<svg enable-background="new 0 0 511.074 511.074" height="511.074" viewBox="0 0 511.074 511.074" width="511.074" xmlns="http://www.w3.org/2000/svg"><g id="permitted_exit"><g><g><g><path d="m336.515 196.454c15.872-4.784 24.86-21.526 20.076-37.396-4.785-15.873-21.531-24.859-37.403-20.073-15.873 4.786-24.862 21.53-20.074 37.402 4.782 15.869 21.529 24.853 37.401 20.067z"/><path d="m377.598 274.083-38.241-10.148-16.512-54.26c-4.975-4.643-17.771-16.867-24.243-20.862-3.673-2.2-13.933-1.585-18.2.735l-84.415 43.439c-6.421 3.741-11.432 10.51-6.19 20.161 3.681 6.57 12.26 7.933 18.317 5.094l57.323-32.372-14.86 37.708-40.629 46.344-47.381 13.239c-14.907 6.47-12.076 18.156-10.625 21.543 2.168 5.091 9.555 13.332 21.212 9.253l60.489-20.449 28.481-32.771 29.29 36.726-15.147 58.413c-1.748 9.135 5.126 16.458 12.198 18.086 9.28 1.819 16.383-2.707 19.452-12.52l12.623-49.075c2.314-9.26 6.757-20.286 1.188-27.809l-28.831-40.052 13.827-31.506 14.874 34.516 47.011 12.796c9.863 2.572 15.925-3.761 17.635-9.767 2.336-7.112-2.989-14.359-8.646-16.462z"/><path d="m223.765 171.438h-125.894v12.822h116.568z"/><path d="m191.126 208.739h-93.255v12.822h83.93z"/><path d="m164.314 243.709h-66.443v12.823h58.284z"/></g></g><g><path d="m255.539 0c-141.131 0-255.539 114.407-255.539 255.537s114.408 255.537 255.539 255.537c141.127 0 255.535-114.407 255.535-255.537s-114.408-255.537-255.535-255.537zm.461 464.758c-115.807 0-209.684-93.879-209.684-209.684s93.877-209.683 209.684-209.683c115.805 0 209.684 93.879 209.684 209.684s-93.879 209.683-209.684 209.683z" fill="#41a62a"/></g></g></g><g id="Capa_1"/></svg>