<svg id="Layer_1" enable-background="new 0 0 512 512" viewBox="0 0 512 512" xmlns="http://www.w3.org/2000/svg"><g><path d="m401.4 43v259.9h-135.3c-6.3 0-12.1-3.3-15.4-8.7l-23.9-39.2c-3.3-5.4-9.1-8.7-15.4-8.7h-107.3v-167.8l45.2-45.2h242.5c5.2 0 9.6 4.3 9.6 9.7z" fill="#eaeffe"/><path d="m159.9 214.9h-18.7c-5.5 0-9.9-4.5-9.9-9.9v-92.5c0-5.5 4.4-9.9 9.9-9.9h18.7c-5.5 0-9.9 4.4-9.9 9.9v92.5c-.1 5.5 4.3 9.9 9.9 9.9z" fill="#f3ae83"/><path d="m243.6 112.5v92.5c0 5.4-4.5 9.9-9.9 9.9h-73.9c-5.5 0-9.9-4.5-9.9-9.9v-92.5c0-5.5 4.4-9.9 9.9-9.9h73.9c5.5-.1 9.9 4.4 9.9 9.9z" fill="#f6c9af"/><path d="m104.1 78.5 45.1-45.2v35.5c0 5.4-4.4 9.7-9.7 9.7z" fill="#d5dcf8"/><path d="m133 511h-60.7c-10 0-18-8.1-18-18v-228.7c0-10 8-18 18-18h60.7c-10 0-18 8-18 18v228.7c0 9.9 8 18 18 18z" fill="#66aff1"/><path d="m457.7 320.9v172.1c0 9.9-8 18-18 18h-306.7c-10 0-18-8.1-18-18v-228.7c0-10 8-18 18-18h78.5c6.3 0 12.1 3.2 15.4 8.7l23.9 39.2c3.3 5.3 9.1 8.7 15.4 8.7h173.6c9.9-.1 17.9 8 17.9 18z" fill="#86c1f4"/><path d="m78.3 246.2h-5.9c-10 0-18 8-18 18v-35.6c0-9.7 7.7-17.6 17.3-18z" fill="#4c9ced"/><path d="m457.7 228.7v92.2c0-10-8-18-18-18h-38.3v-30.8l19.7-61.4h18.6c10 0 18 8.1 18 18z" fill="#4c9ced"/><path d="m313.7 82.9h12.5v-12.5c0-4.8 3.9-8.8 8.8-8.8s8.8 3.9 8.8 8.8v12.5h12.5c4.8 0 8.8 3.9 8.8 8.8s-3.9 8.8-8.8 8.8h-12.5v12.5c0 4.8-3.9 8.8-8.8 8.8s-8.8-3.9-8.8-8.8v-12.5h-12.5c-11.6-.3-11.6-17.4 0-17.6z" fill="#f44a7e"/><path d="m218.4 394h20.1v-20.1c0-7.8 6.3-14.2 14.2-14.2s14.2 6.3 14.2 14.2v20.1h20.1c7.8 0 14.2 6.3 14.2 14.2s-6.3 14.2-14.2 14.2h-20.1v20.1c0 7.8-6.3 14.2-14.2 14.2s-14.2-6.3-14.2-14.2v-20.1h-20.1c-18.6-.6-18.6-28 0-28.4z" fill="#eaeffe"/><path d="m212.9 175.9v20.2h-51v-20.2c0-9.5 5.6-17.7 13.7-21.4 6.3 5.6 17.3 5.6 23.7 0 8 3.7 13.6 11.9 13.6 21.4z" fill="#44569b"/><path d="m206.1 140c-.6 24.6-36.7 24.6-37.3 0 .6-24.6 36.7-24.6 37.3 0z" fill="#6a88c8"/><g fill="#c0c8f3"><path d="m285.2 33.3h-119.5l8.1-25.5c1.6-5.1 7.1-8 12.2-6.3z"/><path d="m457 98.5c-12.7 39.6-43.3 135-55.6 173.5v-201.5l49.4 15.8c5.1 1.7 7.8 7.1 6.2 12.2z"/><path d="m104.1 100v146.3h-25.8c-4.4-23.3-19.2-103-23.8-127.6-1-5.1 2.3-9.9 7.3-10.8z"/></g><g><path d="m294.8 126.8h-26.4c-7 0-7.1-10.8 0-10.8h26.4c7.1 0 7.1 10.7 0 10.8z" fill="#44569b"/></g><g><path d="m364.9 159.7h-96.5c-7 0-7.1-10.8 0-10.8h96.5c7 0 7.1 10.7 0 10.8z" fill="#44569b"/></g><g><path d="m364.9 191.6h-96.5c-7 0-7.1-10.8 0-10.8h96.5c7 0 7.1 10.7 0 10.8z" fill="#44569b"/></g><g><path d="m364.9 225.1h-96.5c-7 0-7.1-10.8 0-10.8h96.5c7 .1 7.1 10.8 0 10.8z" fill="#44569b"/></g><g><path d="m364.9 258.7h-96.5c-7 0-7.1-10.8 0-10.8h96.5c7 .1 7.1 10.8 0 10.8z" fill="#44569b"/></g></g></svg>