<svg height="512" viewBox="0 0 512 512" width="512" xmlns="http://www.w3.org/2000/svg"><g id="filled_outline" data-name="filled outline"><rect fill="#2ad3b3" height="288" rx="24" width="464" x="24" y="112"/><path d="m312 144h144v144h-144z" fill="#04957c"/><path d="m404.563 232.513a32 32 0 1 0 -41.126 0 57.882 57.882 0 0 0 -19.437 43.264v12.223h80v-12.223a57.882 57.882 0 0 0 -19.437-43.264z" fill="#f3af3e"/><g fill="#04957c"><path d="m152 153.243h-24a8 8 0 0 1 0-16h24a8 8 0 0 1 0 16z"/><path d="m200 153.243h-16a8 8 0 0 1 0-16h16a8 8 0 0 1 0 16z"/><path d="m248 152h-16a8 8 0 0 1 0-16h16a8 8 0 0 1 0 16z"/><path d="m168 264h-22.582a8 8 0 0 1 0-16h22.582a8 8 0 1 1 0 16z"/><path d="m96 297.243h-24a8 8 0 0 1 0-16h24a8 8 0 0 1 0 16z"/><path d="m144 297.243h-16a8 8 0 0 1 0-16h16a8 8 0 0 1 0 16z"/><path d="m192 296h-16a8 8 0 0 1 0-16h16a8 8 0 0 1 0 16z"/><path d="m344 376h-24a8 8 0 0 1 0-16h24a8 8 0 0 1 0 16z"/><path d="m392 376h-16a8 8 0 0 1 0-16h16a8 8 0 0 1 0 16z"/><path d="m440 374.757h-16a8 8 0 0 1 0-16h16a8 8 0 0 1 0 16z"/><path d="m113.418 264h-40a8 8 0 0 1 0-16h40a8 8 0 0 1 0 16z"/><path d="m120 376h-48a8 8 0 0 1 0-16h48a8 8 0 0 1 0 16z"/><path d="m168 376h-16a8 8 0 0 1 0-16h16a8 8 0 0 1 0 16z"/></g><path d="m80 176h184v32h-184z" fill="#f3af3e"/><path d="m440 344h-368a8 8 0 0 1 0-16h368a8 8 0 0 1 0 16z" fill="#04957c"/><path d="m80 144-24 16v13a35.511 35.511 0 0 0 15.812 29.546l8.188 5.454 8.188-5.458a35.511 35.511 0 0 0 15.812-29.542v-13z" fill="#04957c"/><path d="m464 104h-416a32.036 32.036 0 0 0 -32 32v240a32.036 32.036 0 0 0 32 32h416a32.036 32.036 0 0 0 32-32v-240a32.036 32.036 0 0 0 -32-32zm16 272a16.019 16.019 0 0 1 -16 16h-416a16.019 16.019 0 0 1 -16-16v-240a16.019 16.019 0 0 1 16-16h416a16.019 16.019 0 0 1 16 16z"/><path d="m456 136h-144a8 8 0 0 0 -8 8v144a8 8 0 0 0 8 8h144a8 8 0 0 0 8-8v-144a8 8 0 0 0 -8-8zm-104 144v-4.223a49.926 49.926 0 0 1 16.752-37.285 8 8 0 0 0 -.17-12.1 24 24 0 1 1 30.836 0 8 8 0 0 0 -.17 12.1 49.926 49.926 0 0 1 16.752 37.285v4.223zm96 0h-16v-4.223a65.945 65.945 0 0 0 -16.3-43.377 40 40 0 1 0 -63.392 0 65.945 65.945 0 0 0 -16.308 43.377v4.223h-16v-128h128z"/><path d="m75.562 214.656a7.992 7.992 0 0 0 4.438 1.344h184a8 8 0 0 0 8-8v-32a8 8 0 0 0 -8-8h-152v-8a8 8 0 0 0 -3.562-6.656l-24-16a8 8 0 0 0 -8.876 0l-24 16a8 8 0 0 0 -3.562 6.656v13a43.422 43.422 0 0 0 19.375 36.2zm180.438-14.656h-153.389a43.36 43.36 0 0 0 7.973-16h145.416zm-192-35.719 16-10.666 16 10.666v8.719a27.456 27.456 0 0 1 -12.25 22.89l-3.75 2.5-3.75-2.5a27.456 27.456 0 0 1 -12.25-22.89z"/><path d="m128 153.243h24a8 8 0 0 0 0-16h-24a8 8 0 0 0 0 16z"/><path d="m184 153.243h16a8 8 0 0 0 0-16h-16a8 8 0 0 0 0 16z"/><path d="m232 152h16a8 8 0 0 0 0-16h-16a8 8 0 0 0 0 16z"/><path d="m176 256a8 8 0 0 0 -8-8h-22.582a8 8 0 0 0 0 16h22.582a8 8 0 0 0 8-8z"/><path d="m72 281.243a8 8 0 0 0 0 16h24a8 8 0 0 0 0-16z"/><path d="m128 297.243h16a8 8 0 0 0 0-16h-16a8 8 0 0 0 0 16z"/><path d="m176 296h16a8 8 0 0 0 0-16h-16a8 8 0 0 0 0 16z"/><path d="m344 360h-24a8 8 0 0 0 0 16h24a8 8 0 0 0 0-16z"/><path d="m392 360h-16a8 8 0 0 0 0 16h16a8 8 0 0 0 0-16z"/><path d="m440 358.757h-16a8 8 0 0 0 0 16h16a8 8 0 0 0 0-16z"/><path d="m121.418 256a8 8 0 0 0 -8-8h-40a8 8 0 0 0 0 16h40a8 8 0 0 0 8-8z"/><path d="m120 360h-48a8 8 0 0 0 0 16h48a8 8 0 0 0 0-16z"/><path d="m168 360h-16a8 8 0 0 0 0 16h16a8 8 0 0 0 0-16z"/><path d="m440 328h-368a8 8 0 0 0 0 16h368a8 8 0 0 0 0-16z"/></g></svg>