<svg id="Capa_1" enable-background="new 0 0 497 497" height="512" viewBox="0 0 497 497" width="512" xmlns="http://www.w3.org/2000/svg"><g><path d="m54.382 0h307.107c13.807 0 25 11.193 25 25v447c0 13.807-11.193 25-25 25h-232.829l-101.278-101.278v-370.722c0-13.807 13.193-25 27-25z" fill="#efedef"/><g><path d="m311.109 309.002h-208.347c-4.143 0-7.5-3.358-7.5-7.5 0-4.143 3.357-7.5 7.5-7.5h208.348c4.143 0 7.5 3.357 7.5 7.5-.001 4.143-3.358 7.5-7.501 7.5z" fill="#685e68"/></g><g><path d="m311.109 363.167h-208.347c-4.143 0-7.5-3.357-7.5-7.5s3.357-7.5 7.5-7.5h208.348c4.143 0 7.5 3.357 7.5 7.5-.001 4.143-3.358 7.5-7.501 7.5z" fill="#685e68"/></g><g><path d="m311.109 417.332h-142.05c-4.143 0-7.5-3.357-7.5-7.5 0-4.142 3.357-7.5 7.5-7.5h142.051c4.143 0 7.5 3.358 7.5 7.5-.001 4.143-3.358 7.5-7.501 7.5z" fill="#685e68"/></g><path d="m381.489 0h-30c13.807 0 25 11.193 25 25v447c0 13.807-11.193 25-25 25h30c13.807 0 25-11.193 25-25v-447c0-13.807-11.192-25-25-25z" fill="#d7d0d6"/><path d="m27.382 395.722h76.282c13.805 0 24.996 11.191 24.996 24.996v76.282z" fill="#b5adb6"/><path d="m291.038 162.097c-25.662-50.275-8.97-80.311-4.332-87.11.594-.87.429-2.048-.372-2.731l-16.868-22.927c-.629-.537-1.519-.65-2.259-.281-28.918 14.444-44.491 4.456-48.928.669-.776-.663-1.911-.663-2.687 0-4.436 3.787-20.009 13.775-48.928-.669-.74-.369-1.63-.256-2.259.281l-26.868 22.927c-.801.684-.965 1.861-.372 2.731 4.638 6.799 21.329 36.835-4.333 87.11-29.381 57.563 58.762 75.478 58.762 75.478s14.918 4.308 23.762 14.563c.835.968 2.32.968 3.155 0 8.845-10.255 23.762-14.563 23.762-14.563s1.118-.227 3.06-.713c15.306-3.825 71.777-23.685 45.705-74.765z" fill="#ffe177"/><g><path d="m301.038 162.097c-25.662-50.275-8.97-80.311-4.333-87.11.594-.87.429-2.048-.372-2.731l-26.868-22.928c-.629-.537-1.519-.65-2.259-.281-4.382 2.189-8.454 3.809-12.231 4.983l21.358 18.225c.801.684.966 1.861.372 2.731-4.638 6.799-21.329 36.834 4.333 87.11 19.186 37.589-11.742 62.602-35.516 74.718 15.636-3.933 81.487-23.834 55.516-74.717z" fill="#ffd15b"/></g><path d="m257.255 128.018c1.721.25 2.408 2.365 1.163 3.579l-19.219 18.734 4.537 26.453c.294 1.714-1.505 3.021-3.044 2.212l-23.756-12.49-23.756 12.49c-1.539.809-3.338-.498-3.044-2.212l4.537-26.453-19.219-18.734c-1.245-1.214-.558-3.328 1.163-3.579l26.56-3.859 11.878-24.068c.77-1.559 2.993-1.559 3.763 0l11.878 24.068z" fill="#efedef"/><path d="m433.885 436.218-27.396-24.464-27.396 24.464c-3.494 3.12-9.033.64-9.033-4.044v-130.958h70.857v128.958c.001 4.684-3.538 9.164-7.032 6.044z" fill="#5f99d7"/><g><path d="m422.918 301.216v125.208l10.967 9.793c3.494 3.12 9.033.64 9.033-4.044v-130.957z" fill="#3c87d0"/></g><path d="m467.618 299.404c0 34.865-26.264 63.129-61.129 63.129s-63.129-28.264-63.129-63.129 28.264-63.129 63.129-63.129 61.129 28.264 61.129 63.129z" fill="#ffe177"/><path d="m406.489 236.275c-3.404 0-6.742.278-10 .796 30.111 4.793 53.129 30.871 53.129 62.332s-23.017 57.538-53.129 62.332c3.258.519 6.596.796 10 .796 34.865 0 63.129-28.264 63.129-63.129 0-34.863-28.264-63.127-63.129-63.127z" fill="#ffd15b"/><circle cx="406.489" cy="299.404" fill="#efedef" r="29.023"/></g></svg>