<?xml version="1.0" encoding="UTF-8" standalone="no"?>
<!-- Created with Inkscape (http://www.inkscape.org/) -->

<svg
   version="1.1"
   id="svg8697"
   xml:space="preserve"
   width="682.66669"
   height="682.66669"
   viewBox="0 0 682.66669 682.66669"
   xmlns="http://www.w3.org/2000/svg"
   xmlns:svg="http://www.w3.org/2000/svg"><defs
     id="defs8701"><clipPath
       clipPathUnits="userSpaceOnUse"
       id="clipPath8711"><path
         d="M 0,512 H 512 V 0 H 0 Z"
         id="path8709" /></clipPath></defs><g
     id="g8703"
     transform="matrix(1.3333333,0,0,-1.3333333,0,682.66667)"><g
       id="g8705"><g
         id="g8707"
         clip-path="url(#clipPath8711)"><g
           id="g8713"
           transform="translate(344.0283,7.5)"><path
             d="m 0,0 h -300.585 c -9.741,0 -17.638,7.896 -17.638,17.639 v 427.013 c 0,9.743 7.897,17.639 17.638,17.639 H 0 c 9.742,0 17.638,-7.896 17.638,-17.639 V 17.639 C 17.638,7.896 9.742,0 0,0"
             style="fill:#c8effe;fill-opacity:1;fill-rule:nonzero;stroke:none"
             id="path8715" /></g><path
           d="m 430.289,308.767 h 58.843 V 133.386 h -58.843 z"
           style="fill:#d83131;fill-opacity:1;fill-rule:nonzero;stroke:none"
           id="path8717" /><g
           id="g8719"
           transform="translate(430.2891,346.2891)"><path
             d="M 0,0 V -37.522 H 58.843 V 0 c 0,5.2 -4.216,9.415 -9.415,9.415 H 9.415 C 4.215,9.415 0,5.2 0,0"
             style="fill:#f47c7c;fill-opacity:1;fill-rule:nonzero;stroke:none"
             id="path8721" /></g><g
           id="g8723"
           transform="translate(489.1328,133.3857)"><path
             d="m 0,0 h -58.843 l 24.611,-49.307 c 2.343,-4.696 7.277,-4.696 9.622,0 z"
             style="fill:#f9c6c6;fill-opacity:1;fill-rule:nonzero;stroke:none"
             id="path8725" /></g><path
           d="m 430.289,308.767 h 58.843 V 133.386 h -58.843 z"
           style="fill:#d83131;fill-opacity:1;fill-rule:nonzero;stroke:none"
           id="path8727" /><g
           id="g8729"
           transform="translate(430.2891,346.2891)"><path
             d="M 0,0 V -37.522 H 58.843 V 0 c 0,5.2 -4.216,9.415 -9.415,9.415 H 9.415 C 4.215,9.415 0,5.2 0,0"
             style="fill:#f47c7c;fill-opacity:1;fill-rule:nonzero;stroke:none"
             id="path8731" /></g><g
           id="g8733"
           transform="translate(489.1328,133.3857)"><path
             d="m 0,0 h -58.843 l 24.611,-49.307 c 2.343,-4.696 7.277,-4.696 9.622,0 z"
             style="fill:#f9c6c6;fill-opacity:1;fill-rule:nonzero;stroke:none"
             id="path8735" /></g><path
           d="m 460.786,133.386 h 28.346 v 175.381 h -28.346 z"
           style="fill:#ca2c2c;fill-opacity:1;fill-rule:nonzero;stroke:none"
           id="path8737" /><g
           id="g8739"
           transform="translate(479.7173,355.7041)"><path
             d="m 0,0 h -28.347 c 5.2,0 9.415,-4.215 9.415,-9.415 V -46.938 H 9.415 V -9.415 C 9.415,-4.215 5.2,0 0,0"
             style="fill:#ee6161;fill-opacity:1;fill-rule:nonzero;stroke:none"
             id="path8741" /></g><g
           id="g8743"
           transform="translate(460.7861,133.3857)"><path
             d="m 0,0 -15.248,-30.55 9.362,-18.757 c 2.344,-4.696 7.278,-4.696 9.622,0 L 28.347,0 Z"
             style="fill:#f9b0b0;fill-opacity:1;fill-rule:nonzero;stroke:none"
             id="path8745" /></g><g
           id="g8747"
           transform="translate(378.5742,504.5)"><path
             d="m 0,0 h -300.585 c -9.741,0 -17.638,-7.896 -17.638,-17.639 v -17.07 h 283.514 c 9.741,0 17.638,-7.896 17.638,-17.639 V -462.291 H 0 c 9.742,0 17.638,7.896 17.638,17.639 V -17.639 C 17.638,-7.896 9.742,0 0,0"
             style="fill:#3c87d0;fill-opacity:1;fill-rule:nonzero;stroke:none"
             id="path8749" /></g><g
           id="g8751"
           transform="translate(115.0508,47.7422)"><path
             d="m 0,0 h -41.333 c -4.418,0 -8,3.582 -8,8 v 41.333 c 0,4.419 3.582,8 8,8 H 0 c 4.418,0 8,-3.581 8,-8 V 8 C 8,3.582 4.418,0 0,0"
             style="fill:#7ca1b1;fill-opacity:1;fill-rule:nonzero;stroke:none"
             id="path8753" /></g><g
           id="g8755"
           transform="translate(315.625,68.9092)"><path
             d="m 0,0 h -159.334 c -4.143,0 -7.5,3.357 -7.5,7.5 0,4.143 3.357,7.5 7.5,7.5 H 0 C 4.143,15 7.5,11.643 7.5,7.5 7.5,3.357 4.143,0 0,0"
             style="fill:#3e5959;fill-opacity:1;fill-rule:nonzero;stroke:none"
             id="path8757" /></g><g
           id="g8759"
           transform="translate(208.6772,276.5889)"><path
             d="m 0,0 h -132.959 c -5.523,0 -10,4.478 -10,10 v 132.96 c 0,5.522 4.477,10 10,10 H 0 c 5.523,0 10,-4.478 10,-10 V 10 C 10,4.478 5.523,0 0,0"
             style="fill:#fddbbd;fill-opacity:1;fill-rule:nonzero;stroke:none"
             id="path8761" /></g><g
           id="g8763"
           transform="translate(168.9663,375.7637)"><path
             d="m 0,0 c 0,-14.783 -11.985,-26.769 -26.769,-26.769 -14.784,0 -26.769,11.986 -26.769,26.769 0,14.784 11.985,26.77 26.769,26.77 C -11.985,26.77 0,14.784 0,0"
             style="fill:#f1b0a2;fill-opacity:1;fill-rule:nonzero;stroke:none"
             id="path8765" /></g><g
           id="g8767"
           transform="translate(113.0054,303.6055)"><path
             d="m 0,0 h 58.384 v 16.197 c 0,16.123 -13.07,29.193 -29.192,29.193 v 0 C 13.07,45.39 0,32.32 0,16.197 Z"
             style="fill:#e94444;fill-opacity:1;fill-rule:nonzero;stroke:none"
             id="path8769" /></g><g
           id="g8771"
           transform="translate(315.625,385.4326)"><path
             d="m 0,0 h -66.288 c -4.143,0 -7.5,3.357 -7.5,7.5 0,4.143 3.357,7.5 7.5,7.5 H 0 C 4.143,15 7.5,11.643 7.5,7.5 7.5,3.357 4.143,0 0,0"
             style="fill:#3e5959;fill-opacity:1;fill-rule:nonzero;stroke:none"
             id="path8773" /></g><g
           id="g8775"
           transform="translate(315.625,342.9121)"><path
             d="m 0,0 h -66.288 c -4.143,0 -7.5,3.357 -7.5,7.5 0,4.143 3.357,7.5 7.5,7.5 H 0 C 4.143,15 7.5,11.643 7.5,7.5 7.5,3.357 4.143,0 0,0"
             style="fill:#3e5959;fill-opacity:1;fill-rule:nonzero;stroke:none"
             id="path8777" /></g><g
           id="g8779"
           transform="translate(315.625,297.5586)"><path
             d="m 0,0 h -66.288 c -4.143,0 -7.5,3.357 -7.5,7.5 0,4.143 3.357,7.5 7.5,7.5 H 0 C 4.143,15 7.5,11.643 7.5,7.5 7.5,3.357 4.143,0 0,0"
             style="fill:#3e5959;fill-opacity:1;fill-rule:nonzero;stroke:none"
             id="path8781" /></g><g
           id="g8783"
           transform="translate(315.625,225.1348)"><path
             d="m 0,0 h -249.907 c -4.143,0 -7.5,3.357 -7.5,7.5 0,4.143 3.357,7.5 7.5,7.5 H 0 C 4.143,15 7.5,11.643 7.5,7.5 7.5,3.357 4.143,0 0,0"
             style="fill:#3e5959;fill-opacity:1;fill-rule:nonzero;stroke:none"
             id="path8785" /></g><g
           id="g8787"
           transform="translate(315.625,182.6152)"><path
             d="m 0,0 h -249.907 c -4.143,0 -7.5,3.357 -7.5,7.5 0,4.143 3.357,7.5 7.5,7.5 H 0 C 4.143,15 7.5,11.643 7.5,7.5 7.5,3.357 4.143,0 0,0"
             style="fill:#3e5959;fill-opacity:1;fill-rule:nonzero;stroke:none"
             id="path8789" /></g><g
           id="g8791"
           transform="translate(315.625,140.0947)"><path
             d="m 0,0 h -249.907 c -4.143,0 -7.5,3.357 -7.5,7.5 0,4.143 3.357,7.5 7.5,7.5 H 0 C 4.143,15 7.5,11.643 7.5,7.5 7.5,3.357 4.143,0 0,0"
             style="fill:#3e5959;fill-opacity:1;fill-rule:nonzero;stroke:none"
             id="path8793" /></g><g
           id="g8795"
           transform="translate(88.2002,53.6348)"><path
             d="m 0,0 c -0.217,0 -0.434,0.01 -0.651,0.028 -2.289,0.2 -4.36,1.437 -5.62,3.357 L -24.933,31.82 c -2.272,3.463 -1.307,8.114 2.156,10.386 3.463,2.272 8.113,1.308 10.385,-2.155 L 1.05,19.568 48.532,70.08 c 2.837,3.02 7.583,3.165 10.602,0.328 3.018,-2.837 3.165,-7.584 0.328,-10.601 L 5.464,2.363 C 4.04,0.849 2.06,0 0,0"
             style="fill:#3e5959;fill-opacity:1;fill-rule:nonzero;stroke:none"
             id="path8797" /></g><g
           id="g8799"
           transform="translate(344.0283,469.791)"><path
             d="m 0,0 h -31.284 c 9.742,0 17.638,-7.896 17.638,-17.639 v -427.013 c 0,-9.743 -7.896,-17.639 -17.638,-17.639 H 0 c 9.741,0 17.639,7.896 17.639,17.639 V -17.639 C 17.639,-7.896 9.741,0 0,0"
             style="fill:#a8d3d8;fill-opacity:1;fill-rule:nonzero;stroke:none"
             id="path8801" /></g><g
           id="g8803"
           transform="translate(378.5742,512)"><path
             d="m 0,0 h -300.585 c -13.861,0 -25.138,-11.277 -25.138,-25.139 v -9.57 h -12.345 c -13.862,0 -25.139,-11.277 -25.139,-25.139 v -321.316 c 0,-4.143 3.358,-7.5 7.5,-7.5 4.143,0 7.5,3.357 7.5,7.5 v 321.316 c 0,5.591 4.548,10.139 10.139,10.139 h 300.585 c 5.59,0 10.138,-4.548 10.138,-10.139 v -427.013 c 0,-5.591 -4.548,-10.139 -10.138,-10.139 h -300.585 c -5.591,0 -10.139,4.548 -10.139,10.139 v 70.697 c 0,4.143 -3.357,7.5 -7.5,7.5 -4.142,0 -7.5,-3.357 -7.5,-7.5 v -70.697 c 0,-13.862 11.277,-25.139 25.139,-25.139 h 300.585 c 13.861,0 25.138,11.277 25.138,25.139 v 9.57 H 0 c 13.861,0 25.138,11.277 25.138,25.139 v 331.663 c 0,4.142 -3.358,7.5 -7.5,7.5 -4.142,0 -7.5,-3.358 -7.5,-7.5 v -331.663 c 0,-5.591 -4.548,-10.139 -10.138,-10.139 h -9.571 v 402.443 c 0,13.862 -11.277,25.139 -25.138,25.139 h -276.014 v 9.57 c 0,5.591 4.548,10.139 10.138,10.139 L 0,-15 c 5.59,0 10.138,-4.548 10.138,-10.139 v -60.35 c 0,-4.143 3.358,-7.5 7.5,-7.5 4.142,0 7.5,3.357 7.5,7.5 v 60.35 C 25.138,-11.277 13.861,0 0,0"
             style="fill:#000000;fill-opacity:1;fill-rule:nonzero;stroke:none"
             id="path8805" /></g><g
           id="g8807"
           transform="translate(481.6313,316.2676)"><path
             d="m 0,0 h -43.842 v 30.021 c 0,1.056 0.859,1.916 1.914,1.916 H -1.915 C -0.859,31.937 0,31.077 0,30.021 Z M 0,-175.382 H -43.842 V -15 H 0 Z m -21.92,-49.651 -17.296,34.651 h 34.591 z m 20.005,271.97 h -40.013 c -9.326,0 -16.914,-7.588 -16.914,-16.916 v -212.903 c 0,-0.145 0.013,-0.286 0.021,-0.429 0.005,-0.078 0.005,-0.156 0.012,-0.234 0.053,-0.601 0.178,-1.178 0.363,-1.729 0.02,-0.059 0.043,-0.117 0.064,-0.174 0.084,-0.231 0.179,-0.456 0.284,-0.675 0.017,-0.035 0.028,-0.073 0.046,-0.108 l 24.61,-49.306 c 2.398,-4.805 6.705,-7.674 11.522,-7.674 4.816,0 9.124,2.869 11.521,7.673 l 24.61,49.307 c 0.022,0.043 0.036,0.088 0.056,0.131 0.097,0.204 0.185,0.413 0.263,0.625 0.027,0.073 0.055,0.144 0.079,0.217 0.086,0.258 0.161,0.52 0.219,0.789 0.004,0.019 0.011,0.037 0.015,0.056 0.057,0.278 0.097,0.563 0.123,0.852 0.009,0.098 0.01,0.196 0.014,0.294 0.007,0.128 0.02,0.255 0.02,0.385 V 30.021 c 0,9.328 -7.588,16.916 -16.915,16.916"
             style="fill:#000000;fill-opacity:1;fill-rule:nonzero;stroke:none"
             id="path8809" /></g><g
           id="g8811"
           transform="translate(73.2178,70.293)"><path
             d="M 0,0 C 9.498,-14.472 9.039,-14.02 10.351,-15.051 H 0.5 c -0.276,0 -0.5,0.225 -0.5,0.5 z m 0,26.782 c 0,0.276 0.224,0.5 0.5,0.5 H 38.942 L 16.032,2.91 2.591,23.393 C 1.91,24.431 1.013,25.239 0,25.809 Z M 42.333,8.988 v -23.539 c 0,-0.275 -0.224,-0.5 -0.5,-0.5 H 19.605 c 0.295,0.232 0.581,0.479 0.841,0.756 z M -15,-14.551 c 0,-8.547 6.953,-15.5 15.5,-15.5 h 41.333 c 8.547,0 15.5,6.953 15.5,15.5 v 39.496 l 17.111,18.203 c 2.837,3.018 2.69,7.765 -0.328,10.602 -3.017,2.837 -7.764,2.69 -10.601,-0.328 L 50.527,39.605 c -2.481,1.688 -5.474,2.677 -8.694,2.677 H 0.5 c -8.547,0 -15.5,-6.953 -15.5,-15.5 z"
             style="fill:#000000;fill-opacity:1;fill-rule:nonzero;stroke:none"
             id="path8813" /></g><g
           id="g8815"
           transform="translate(315.6245,83.9092)"><path
             d="m 0,0 h -159.333 c -4.142,0 -7.5,-3.357 -7.5,-7.5 0,-4.143 3.358,-7.5 7.5,-7.5 H 0 c 4.142,0 7.5,3.357 7.5,7.5 C 7.5,-3.357 4.142,0 0,0"
             style="fill:#000000;fill-opacity:1;fill-rule:nonzero;stroke:none"
             id="path8817" /></g><g
           id="g8819"
           transform="translate(73.2178,419.5488)"><path
             d="m 0,0 c 0,1.379 1.122,2.5 2.5,2.5 h 132.959 c 1.379,0 2.5,-1.121 2.5,-2.5 v -132.96 c 0,-1.379 -1.121,-2.5 -2.5,-2.5 H 2.5 c -1.378,0 -2.5,1.121 -2.5,2.5 z m 2.5,-150.46 h 132.959 c 9.65,0 17.5,7.851 17.5,17.5 V 0 c 0,9.649 -7.85,17.5 -17.5,17.5 H 2.5 C -7.149,17.5 -15,9.649 -15,0 v -132.96 c 0,-9.649 7.851,-17.5 17.5,-17.5"
             style="fill:#000000;fill-opacity:1;fill-rule:nonzero;stroke:none"
             id="path8821" /></g><g
           id="g8823"
           transform="translate(142.1973,395.0332)"><path
             d="m 0,0 c 10.625,0 19.269,-8.645 19.269,-19.27 0,-10.603 -8.609,-19.229 -19.204,-19.265 -0.021,0 -0.042,0.002 -0.063,0.002 -0.022,0 -0.044,-0.002 -0.065,-0.002 -10.596,0.035 -19.206,8.662 -19.206,19.265 C -19.269,-8.645 -10.625,0 0,0 m -29.197,-98.923 c 4.139,0 7.51,3.36 7.51,7.49 v 16.2 c 0.02,11.909 9.699,21.627 21.595,21.698 0.031,-0.001 0.061,-0.003 0.092,-0.003 0.032,0 0.063,0.003 0.094,0.003 11.898,-0.07 21.578,-9.789 21.598,-21.698 v -8.7 H 5.803 c -4.131,0 -7.5,-3.36 -7.5,-7.5 0,-4.13 3.369,-7.5 7.5,-7.5 0.009,0 0.02,0 0.02,0.01 h 23.369 c 1.971,0 3.911,0.8 5.301,2.19 1.4,1.4 2.199,3.33 2.199,5.3 v 16.2 c 0,9.81 -3.819,19.02 -10.75,25.95 -1.307,1.306 -2.695,2.503 -4.153,3.583 7.617,6.291 12.48,15.804 12.48,26.43 C 34.269,-0.373 18.896,15 0,15 c -18.896,0 -34.269,-15.373 -34.269,-34.27 0,-10.626 4.862,-20.138 12.478,-26.428 -1.459,-1.081 -2.849,-2.278 -4.156,-3.585 -6.93,-6.93 -10.741,-16.14 -10.741,-25.95 v -16.2 c 0,-1.97 0.801,-3.9 2.19,-5.3 1.4,-1.39 3.331,-2.19 5.301,-2.19"
             style="fill:#000000;fill-opacity:1;fill-rule:nonzero;stroke:none"
             id="path8825" /></g><g
           id="g8827"
           transform="translate(249.3369,385.4326)"><path
             d="m 0,0 h 66.288 c 4.142,0 7.5,3.357 7.5,7.5 0,4.143 -3.358,7.5 -7.5,7.5 H 0 C -4.142,15 -7.5,11.643 -7.5,7.5 -7.5,3.357 -4.142,0 0,0"
             style="fill:#000000;fill-opacity:1;fill-rule:nonzero;stroke:none"
             id="path8829" /></g><g
           id="g8831"
           transform="translate(249.3369,342.9121)"><path
             d="m 0,0 h 66.288 c 4.142,0 7.5,3.357 7.5,7.5 0,4.143 -3.358,7.5 -7.5,7.5 H 0 C -4.142,15 -7.5,11.643 -7.5,7.5 -7.5,3.357 -4.142,0 0,0"
             style="fill:#000000;fill-opacity:1;fill-rule:nonzero;stroke:none"
             id="path8833" /></g><g
           id="g8835"
           transform="translate(249.3369,297.5586)"><path
             d="m 0,0 h 66.288 c 4.142,0 7.5,3.357 7.5,7.5 0,4.143 -3.358,7.5 -7.5,7.5 H 0 C -4.142,15 -7.5,11.643 -7.5,7.5 -7.5,3.357 -4.142,0 0,0"
             style="fill:#000000;fill-opacity:1;fill-rule:nonzero;stroke:none"
             id="path8837" /></g><g
           id="g8839"
           transform="translate(65.7178,225.1348)"><path
             d="m 0,0 h 249.907 c 4.142,0 7.5,3.357 7.5,7.5 0,4.143 -3.358,7.5 -7.5,7.5 H 0 C -4.142,15 -7.5,11.643 -7.5,7.5 -7.5,3.357 -4.142,0 0,0"
             style="fill:#000000;fill-opacity:1;fill-rule:nonzero;stroke:none"
             id="path8841" /></g><g
           id="g8843"
           transform="translate(65.7178,182.6152)"><path
             d="m 0,0 h 249.907 c 4.142,0 7.5,3.357 7.5,7.5 0,4.143 -3.358,7.5 -7.5,7.5 H 0 C -4.142,15 -7.5,11.643 -7.5,7.5 -7.5,3.357 -4.142,0 0,0"
             style="fill:#000000;fill-opacity:1;fill-rule:nonzero;stroke:none"
             id="path8845" /></g><g
           id="g8847"
           transform="translate(65.7178,140.0947)"><path
             d="m 0,0 h 249.907 c 4.142,0 7.5,3.357 7.5,7.5 0,4.143 -3.358,7.5 -7.5,7.5 H 0 C -4.142,15 -7.5,11.643 -7.5,7.5 -7.5,3.357 -4.142,0 0,0"
             style="fill:#000000;fill-opacity:1;fill-rule:nonzero;stroke:none"
             id="path8849" /></g></g></g></g></svg>
