<svg clip-rule="evenodd" fill-rule="evenodd" height="145" image-rendering="optimizeQuality" shape-rendering="geometricPrecision" text-rendering="geometricPrecision" viewBox="0 0 26996 37688" width="104" xmlns="http://www.w3.org/2000/svg"><g id="Layer_x0020_1"><g id="_401821040"><g><path d="m0 11931h11782c1296 0 2357 1060 2357 2356v14313c0 1296-1061 2357-2357 2357h-10329c-800 0-1453-653-1453-1453z" fill="#2a68a6"/><path d="m0 11413h11782c1296 0 2357 1060 2357 2357v14313c0 1296-1061 2356-2357 2356h-10329c-800 0-1453-653-1453-1453z" fill="#ecf0f1"/><path d="m2341 33100 7928-21855c645 233 1357-100 1591-744 234-645-99-1357-744-1590l3233-8911 12647 4588-3232 8911c-645-234-1357 99-1590 743-234 645 99 1357 743 1591l-7928 21855z" fill="#ecf0f1"/><path d="m26519 4415 477 173-3232 8911c-82-30-165-50-248-62-71-44-148-82-229-111zm-3832 11307c72 44 148 81 230 111l-7928 21855-478-173 7929-21855c82 29 165 50 247 62z" fill="#cfd7e1"/><path d="m3423 30117 6847-18873c396 144 819 73 1139-153h1003c1296 0 2356 1060 2356 2357v14313c0 1296-1060 2356-2356 2356z" fill="#c2cbd6"/><path d="m22585 9447 55-151 1475 535-55 151zm1579-4354 85-233 1475 535-85 233zm-115 317 35-95 1475 535-35 95zm-186 513 117-320 1475 535-117 320zm-214 591 104-288 1475 535-104 288zm-116 320 55-152 1475 535-55 152zm-165 455 55-152 1475 535-55 152zm-165 456 55-152 1475 535-56 152zm-166 455 55-152 1475 535-55 152zm-165 456 108-299 1475 535-108 299zm-143 393 33-90 1475 535-33 90z" fill="#c2cbd6"/><path d="m12233 34053 2227-6140 356 129-2228 6140z" fill="#2c74bd"/><path d="m13299 34439 1538-4240 355 129-1538 4240z" fill="#2c74bd"/><path d="m16653 3172 725 263 1511-1292 261 95-955 1493 1112 403c51 19 161 70 295 138l491-386 281 102-383 494 97 35c113 41 171 167 130 280-40 112-166 171-279 130l-97-35-22 625-281-102-130-611c-147-34-264-65-314-84l-1113-403-224 1758-261-94-331-1960-725-263c-196-71-451-333-396-480 54-145 416-176 608-106z" fill="#c2cbd6"/><path d="m2341 33100 7928-21855c645 233 1357-100 1591-744 234-645-99-1357-744-1590l3233-8911 1887 685-12008 33100z" fill="#2c74bd"/><path d="m3514 29867 150-415h2136l-151 415z" fill="#1b5691"/><path d="m5776 31710 924-2546 2546 924-924 2546z" fill="#c2cbd6"/><path d="m13759 9704 924-2546 2546 924-924 2546z" fill="#c2cbd6"/><path d="m14082 20145-570 1573-4021 803-205 565 3583 403-875 2413c-40 109-109 363-185 681l-1254 306-221 610 1276 20-77 210c-88 244 26 512 254 595 229 83 488-49 576-294l77-210 992 803 221-610-766-1039c146-293 255-532 295-641l875-2413 3008 1987 205-565-2570-3193 570-1573c154-424 95-1205-206-1310-296-103-831 463-982 879z" fill="#c2cbd6"/><g fill="#c2cbd6"><path d="m11145 19370 2695-7429 355 129-2695 7429z"/><path d="m12211 19757 1861-5131 355 129-1861 5131z"/></g><path d="m16814 21427 1064-2934 355 129-1064 2933zm1393-3843 834-2297 355 129-833 2297z" fill="#c2cbd6"/><path d="m17879 21813 1538-4240 356 129-1539 4240z" fill="#c2cbd6"/><path d="m19138 11568 1064-2933 355 129-1064 2933zm1394-3843 833-2296 355 128-833 2297z" fill="#2c74bd"/><path d="m20204 11954 1538-4240 355 129-1538 4240z" fill="#2c74bd"/><g fill="#c2cbd6"><path d="m12833 10765c23-63 93-96 156-73l505 183c63 23 96 93 73 156-23 63-93 96-156 73l-505-183c-63-23-96-93-73-156z"/><path d="m13996 11187c23-63 93-96 156-73l505 183c63 23 96 93 73 156-23 63-93 96-156 73l-505-183c-63-23-96-93-73-156z"/><path d="m15160 11609c22-63 93-96 156-73l505 183c62 23 95 93 72 156-22 63-93 96-155 73l-506-183c-62-23-95-93-72-156z"/><path d="m16323 12031c23-63 93-96 156-73l505 183c63 23 95 93 73 156-23 63-93 96-156 73l-505-183c-63-23-96-93-73-156z"/><path d="m17486 12453c23-63 93-96 156-73l505 183c63 23 96 93 73 156-23 63-93 96-156 73l-505-183c-63-23-96-93-73-156z"/><path d="m18649 12875c23-63 93-96 156-73l505 183c63 23 96 93 73 156-23 63-93 96-156 73l-505-183c-63-23-96-93-73-156z"/><path d="m19812 13297c23-63 93-96 156-73l505 183c63 23 96 93 73 156-23 63-93 96-156 73l-505-183c-63-23-95-93-73-156z"/><path d="m20976 13719c23-63 93-96 156-73l505 183c63 23 95 93 73 156h-1c-22 63-92 96-155 73l-505-183c-63-23-96-93-73-156z"/></g><path d="m13590 4456 1348-3714 355 129-1348 3714z" fill="#2a68a6"/><path d="m0 10426h11782c1296 0 2357 1060 2357 2356v14313c0 1296-1061 2357-2357 2357h-11782z" fill="#2a68a6"/><path d="m11452 10426h330c1296 0 2357 1060 2357 2356v14314c0 1295-1061 2356-2357 2356h-330c1296 0 2357-1061 2357-2356v-14314c0-1296-1061-2356-2357-2356z" fill="#1b5691"/><path d="m3939 12705c129 0 225 35 288 103s94 168 94 300v212c0 132-31 232-94 301-63 68-159 102-288 102h-121v613h-256v-1631zm-121 233v552h121c41 0 72-11 93-32 22-22 33-63 33-122v-244c0-59-11-99-33-121-21-22-52-33-93-33zm1432 1398h-258l-44-296h-315l-44 296h-235l261-1631h374zm-584-517h247l-124-825zm670-722c0-132 32-234 95-304 63-71 157-106 283-106 125 0 220 35 283 106 63 70 94 172 94 304v51h-242v-68c0-59-11-100-34-124s-54-36-94-36c-41 0-72 12-95 36-22 24-33 65-33 124 0 56 12 105 37 148s56 83 93 121 77 76 120 114 83 80 120 125 68 96 93 154c25 57 37 125 37 202 0 132-32 234-96 304-65 71-160 106-286 106-125 0-220-35-285-106-64-70-97-172-97-304v-100h243v117c0 59 12 100 36 123s56 35 96 35c41 0 73-12 97-35s36-64 36-123c0-56-12-106-37-148-25-43-56-83-93-121-38-38-77-77-120-115s-83-79-120-124-68-96-93-154c-25-57-38-125-38-202zm872 0c0-132 31-234 94-304 63-71 157-106 283-106 125 0 220 35 283 106 63 70 94 172 94 304v51h-242v-68c0-59-11-100-34-124-22-24-54-36-94-36-41 0-72 12-95 36-22 24-33 65-33 124 0 56 12 105 37 148s56 83 93 121 77 76 120 114 83 80 120 125 68 96 93 154c25 57 37 125 37 202 0 132-32 234-96 304-65 71-160 106-286 106-125 0-220-35-285-106-64-70-96-172-96-304v-100h242v117c0 59 12 100 36 123s56 35 96 35c41 0 73-12 97-35s36-64 36-123c0-56-12-106-37-148-25-43-56-83-93-121-38-38-78-77-120-115-43-38-83-79-120-124s-68-96-93-154c-25-57-37-125-37-202zm1280-392c129 0 225 35 288 103s94 168 94 300v212c0 132-31 232-94 301-63 68-159 102-288 102h-121v613h-256v-1631zm-121 233v552h121c41 0 72-11 93-32 22-22 33-63 33-122v-244c0-59-11-99-33-121-21-22-52-33-93-33zm869 1023c0 59 12 100 36 124s56 36 97 36c40 0 72-12 96-36s36-65 36-124v-881c0-59-12-100-36-124s-56-36-96-36c-41 0-73 12-97 36s-36 65-36 124zm-256-864c0-132 33-234 100-304 67-71 163-106 289-106 125 0 222 35 288 106 67 70 101 172 101 304v847c0 132-34 234-101 304-66 71-163 106-288 106-126 0-222-35-289-106-67-70-100-172-100-304zm1478 1239c-3-11-6-21-9-31-3-9-6-21-8-35s-4-32-5-53c0-22-1-49-1-82v-256c0-76-13-130-39-161-27-31-69-46-128-46h-89v664h-256v-1631h386c134 0 231 31 290 94 60 62 90 156 90 281v128c0 168-56 278-168 331 66 26 110 70 134 129 24 60 36 133 36 218v252c0 40 2 75 5 106 3 30 11 61 23 92zm-279-1398v501h100c48 0 86-13 113-37 27-25 41-70 41-135v-161c0-59-11-102-32-128-21-27-54-40-98-40zm606-233h791v233h-267v1398h-257v-1398h-267z" fill="#5098c2" fill-rule="nonzero"/><path d="m7069 22808c167-397 299-830 390-1290-129-7-259-11-390-12-131 1-261 5-389 12 90 460 222 893 389 1290zm0-1718c155 1 308 6 459 16 38-277 62-562 70-854h-529-528c8 292 31 577 70 854 151-10 304-15 458-16zm0-1258h529c-10-348-42-687-94-1014-144 9-288 14-435 15-146-1-291-6-434-15-53 327-85 666-94 1014zm0-1415c120-1 239-5 356-11-88-400-208-779-356-1130-147 351-267 730-356 1130 118 6 237 10 356 11zm0-1790c1821 23 3373 1498 3373 3415 0 1934-1559 3393-3373 3415-1813-22-3373-1481-3373-3415 0-1917 1553-3392 3373-3415zm-1488 1635c273-381 630-697 1045-920-131 322-240 668-322 1032-247-26-488-63-723-112zm-797-214c418-488 988-843 1636-993-487 271-901 657-1204 1122-148-39-292-82-432-129zm227 488c-194 395-315 833-343 1296h-614c36-535 209-1032 484-1456 153 58 311 112 473 160zm1114 1296h-1106c29-432 148-839 338-1204 279 67 569 119 868 154-57 338-91 689-100 1050zm-839 1479c-148-326-241-683-267-1059h1106c8 305 33 603 75 892-315 37-621 94-914 167zm-828 266c-229-394-372-844-404-1325h614c25 409 121 797 277 1154-167 52-330 109-487 171zm672 192c309 526 755 963 1290 1260-703-162-1313-566-1739-1119 146-52 295-99 449-141zm1496 974c-465-251-858-618-1140-1063 253-56 515-99 784-128 86 422 206 821 356 1191zm1931-4481c-272-381-630-697-1044-920 131 322 239 668 321 1032 247-26 489-63 723-112zm798-214c-419-488-988-843-1637-993 487 271 901 657 1205 1122 147-39 291-82 432-129zm-228 488c195 395 315 833 343 1296h615c-36-535-210-1032-485-1456-153 58-311 112-473 160zm-1113 1296h1105c-29-432-148-839-337-1204-279 67-569 119-868 154 56 338 90 689 100 1050zm838 1479c149-326 242-683 267-1059h-1105c-8 305-34 603-75 892 315 37 620 94 913 167zm828 266c229-394 372-844 405-1325h-615c-24 409-121 797-277 1154 168 52 330 109 487 171zm-671 192c-310 526-756 963-1291 1260 703-162 1314-566 1739-1119-145-52-295-99-448-141zm-1496 974c465-251 858-618 1139-1063-253-56-515-99-784-128-85 422-205 821-355 1191z" fill="#5098c2"/><path d="m4059 25233h6021v429h-6021zm969 1072h4083v429h-4083z" fill="#5098c2"/><path d="m0 10426h282v19026h-282z" fill="#5285b7"/></g><path d="m1875 29778 1751-220-112 309h-1639z" fill="#c2cbd6"/></g></g></svg>