<svg id="Layer_1" enable-background="new 0 0 256 256" viewBox="0 0 256 256" xmlns="http://www.w3.org/2000/svg"><g><path d="m46.399 25.95s3.41 12.659 13.229 13.246c0 0-13.107 4.525-13.328 14.202 0 0-2.58-13.572-12.932-14.059-.001 0 12.056-1.826 13.031-13.389z" fill="#d4d853"/><path d="m46.298 54.897c-.713 0-1.335-.506-1.473-1.217-.023-.124-2.495-12.418-11.528-12.843-.77-.037-1.388-.651-1.428-1.421-.04-.771.511-1.445 1.274-1.561.441-.069 10.901-1.817 11.761-12.032.062-.725.635-1.301 1.359-1.367.731-.071 1.393.399 1.584 1.101.031.116 3.261 11.626 11.87 12.141.714.043 1.298.584 1.395 1.292.098.708-.318 1.388-.994 1.623-.121.042-12.125 4.311-12.319 12.819-.017.767-.61 1.396-1.375 1.46-.042.004-.084.005-.126.005zm-7.745-15.73c3.881 1.97 6.233 5.748 7.591 8.878 2.027-4.022 5.945-6.788 8.954-8.429-4.137-1.842-6.787-5.652-8.339-8.723-1.793 4.36-5.274 6.87-8.206 8.274z" fill="#3a312a"/><path d="m24.689 42.93s2.412 8.954 9.357 9.369c0 0-9.271 3.201-9.427 10.045 0 0-1.825-9.6-9.147-9.944 0 .001 8.528-1.291 9.217-9.47z" fill="#d4d853"/><path d="m24.617 63.845c-.714 0-1.337-.507-1.473-1.22-.016-.082-1.704-8.442-7.743-8.726-.77-.037-1.388-.651-1.428-1.421s.511-1.445 1.273-1.56c.296-.047 7.368-1.243 7.946-8.113.062-.726.636-1.303 1.361-1.368.718-.066 1.392.4 1.582 1.103.037.135 2.25 7.919 7.998 8.263.714.043 1.299.584 1.396 1.293s-.32 1.388-.997 1.622c-.08.028-8.286 2.953-8.416 8.662-.018.767-.611 1.398-1.376 1.461-.04.002-.082.004-.123.004zm-4.521-11.528c2.108 1.332 3.525 3.395 4.449 5.281 1.377-2.233 3.518-3.873 5.368-4.974-2.288-1.27-3.887-3.351-4.944-5.225-1.174 2.288-3.016 3.877-4.873 4.918z" fill="#3a312a"/><path d="m24.689 16.272s2.412 8.954 9.357 9.37c0 0-9.271 3.201-9.427 10.045 0 0-1.825-9.6-9.147-9.944 0 0 8.528-1.291 9.217-9.471z" fill="#d4d853"/><path d="m24.617 37.188c-.714 0-1.337-.507-1.473-1.22-.016-.082-1.704-8.442-7.743-8.726-.77-.037-1.388-.651-1.428-1.421-.04-.771.511-1.445 1.273-1.561.296-.047 7.368-1.243 7.946-8.114.062-.726.636-1.303 1.361-1.368.717-.064 1.392.399 1.581 1.102.022.079 2.229 7.919 7.999 8.265.714.043 1.299.584 1.396 1.293s-.32 1.388-.997 1.622c-.081.028-8.286 2.953-8.416 8.662-.018.767-.611 1.397-1.376 1.461-.04.003-.082.005-.123.005zm-4.521-11.528c2.108 1.333 3.525 3.395 4.449 5.281 1.377-2.233 3.518-3.872 5.368-4.973-2.288-1.27-3.887-3.351-4.944-5.225-1.174 2.287-3.017 3.876-4.873 4.917z" fill="#3a312a"/><path d="m219.331 118.848v107.01h-15v-102.129c0-3.109-1.311-6.075-3.61-8.168l-81.39-74.094 7.5-6.83z" fill="#ddc9ac"/><path d="m220.831 46.597v52.65l-30.5-27.76v-24.89z" fill="#87796f"/><path d="m220.83 100.747c-.366 0-.728-.134-1.01-.391l-30.5-27.76c-.313-.284-.49-.687-.49-1.109v-24.89c0-.829.672-1.5 1.5-1.5h30.5c.828 0 1.5.671 1.5 1.5v52.65c0 .594-.351 1.132-.894 1.372-.194.086-.401.128-.606.128zm-29-29.923 27.5 25.029v-47.756h-27.5z" fill="#3a312a"/><path d="m183.331 43.495v-10.946c0-1.711 1.387-3.099 3.099-3.099h38.303c1.711 0 3.099 1.387 3.099 3.099v10.946c0 1.711-1.387 3.099-3.099 3.099h-38.303c-1.712 0-3.099-1.387-3.099-3.099z" fill="#87796f"/><path d="m224.731 48.094h-38.303c-2.536 0-4.599-2.063-4.599-4.599v-10.946c0-2.536 2.063-4.599 4.599-4.599h38.303c2.536 0 4.599 2.063 4.599 4.599v10.946c0 2.536-2.062 4.599-4.599 4.599zm-38.302-17.143c-.882 0-1.599.717-1.599 1.599v10.946c0 .881.717 1.599 1.599 1.599h38.303c.882 0 1.599-.717 1.599-1.599v-10.947c0-.881-.717-1.599-1.599-1.599h-38.303z" fill="#3a312a"/><path d="m32.83 227.357h188.001v-118.64l-94.001-85.57-94 85.57z" fill="#fae6ca"/><path d="m220.83 228.857h-188c-.828 0-1.5-.671-1.5-1.5v-118.64c0-.422.178-.825.49-1.109l94-85.57c.572-.521 1.447-.521 2.02 0l94 85.57c.313.284.49.687.49 1.109v118.64c0 .829-.672 1.5-1.5 1.5zm-186.5-3h185v-116.477l-92.5-84.205-92.5 84.205z" fill="#3a312a"/><path d="m110.261 239.647h128.069v-2.708c0-5.292-4.29-9.581-9.582-9.581h-203.836c-5.292 0-9.582 4.29-9.582 9.581v2.708h77.07z" fill="#87796f"/><path d="m238.33 241.148h-128.069c-.828 0-1.5-.671-1.5-1.5s.672-1.5 1.5-1.5h126.569v-1.209c0-4.456-3.625-8.082-8.081-8.082h-203.837c-4.456 0-8.082 3.625-8.082 8.082v1.209h75.569c.828 0 1.5.671 1.5 1.5s-.672 1.5-1.5 1.5h-77.069c-.828 0-1.5-.671-1.5-1.5v-2.709c0-6.11 4.972-11.082 11.082-11.082h203.837c6.11 0 11.081 4.971 11.081 11.082v2.709c0 .828-.672 1.5-1.5 1.5z" fill="#3a312a"/><path d="m83.503 53.124-65.743 59.847c-2.859 2.603-3.067 7.03-.465 9.889 2.603 2.858 7.03 3.066 9.889.464l99.647-90.711 99.647 90.711c1.342 1.222 3.028 1.824 4.71 1.824 1.901 0 3.797-.771 5.179-2.288 2.603-2.859 2.395-7.286-.465-9.889l-104.359-95c-2.67-2.432-6.754-2.432-9.424 0l-24.99 22.748z" fill="#ed6e7a"/><path d="m231.188 126.647c-2.119 0-4.15-.787-5.72-2.214l-98.638-89.791-98.638 89.791c-3.466 3.154-8.852 2.902-12.008-.563-1.528-1.679-2.312-3.853-2.205-6.121.106-2.268 1.091-4.359 2.77-5.887l65.744-59.848c.612-.557 1.562-.513 2.119.1.558.613.513 1.562-.1 2.119l-65.744 59.848c-1.087.989-1.723 2.342-1.792 3.809-.069 1.468.438 2.874 1.427 3.96 2.043 2.243 5.529 2.406 7.77.364l99.647-90.711c.572-.521 1.447-.521 2.02 0l99.648 90.711c1.016.924 2.329 1.433 3.7 1.433 1.546 0 3.029-.655 4.069-1.798.989-1.086 1.496-2.492 1.427-3.96-.069-1.467-.705-2.82-1.792-3.809l-104.359-95c-2.111-1.923-5.293-1.922-7.404-.001l-24.99 22.75c-.611.558-1.562.514-2.119-.1-.558-.613-.513-1.562.1-2.119l24.989-22.748c3.263-2.97 8.183-2.971 11.443.001l104.359 94.999c1.679 1.528 2.663 3.619 2.77 5.887.106 2.268-.677 4.441-2.205 6.121-1.609 1.765-3.901 2.777-6.288 2.777z" fill="#3a312a"/><path d="m219.331 118.848v107.01h-15v-101.365c0-3.596-1.516-7.025-4.174-9.446l-80.826-73.58 7.5-6.83z" fill="#ddc9ac"/><path d="m68.95 198.725h115.762v9.697h-115.762z" fill="#87796f"/><path d="m184.711 209.922h-115.762c-.828 0-1.5-.671-1.5-1.5v-9.697c0-.829.672-1.5 1.5-1.5h115.762c.828 0 1.5.671 1.5 1.5v9.697c0 .829-.672 1.5-1.5 1.5zm-114.262-3h112.762v-6.697h-112.762z" fill="#3a312a"/><path d="m59.252 222.509c0 2.678 2.171 4.849 4.849 4.849s4.849-2.171 4.849-4.849v-99.605c0-2.678-2.171-4.849-4.849-4.849s-4.849 2.171-4.849 4.849z" fill="#87796f"/><path d="m64.101 228.857c-3.501 0-6.349-2.848-6.349-6.349v-99.606c0-3.5 2.848-6.349 6.349-6.349s6.349 2.848 6.349 6.349v99.606c-.001 3.501-2.848 6.349-6.349 6.349zm0-109.302c-1.847 0-3.349 1.502-3.349 3.349v99.606c0 1.847 1.502 3.349 3.349 3.349s3.349-1.502 3.349-3.349v-99.606c-.001-1.847-1.503-3.349-3.349-3.349z" fill="#3a312a"/><path d="m68.95 173.876h115.762v24.849h-115.762z" fill="#ef6d7a"/><path d="m184.711 200.225h-115.762c-.828 0-1.5-.671-1.5-1.5v-24.849c0-.829.672-1.5 1.5-1.5h115.762c.828 0 1.5.671 1.5 1.5v24.849c0 .829-.672 1.5-1.5 1.5zm-114.262-3h112.762v-21.849h-112.762z" fill="#3a312a"/><path d="m107.436 167.815h77.275v30.91h-77.275z" fill="#8ac6dd"/><path d="m184.711 200.225h-77.275c-.828 0-1.5-.671-1.5-1.5v-30.91c0-.829.672-1.5 1.5-1.5h77.275c.828 0 1.5.671 1.5 1.5v30.91c0 .829-.672 1.5-1.5 1.5zm-75.776-3h74.275v-27.91h-74.275z" fill="#3a312a"/><path d="m122.638 169.79v28.935h-15.202v-28.935c0-3.769 3.055-6.823 6.823-6.823h1.555c3.769-.001 6.824 3.054 6.824 6.823z" fill="#fce8cb"/><path d="m122.638 200.225h-15.202c-.828 0-1.5-.671-1.5-1.5v-28.935c0-4.589 3.734-8.323 8.324-8.323h1.555c4.59 0 8.323 3.734 8.323 8.323v28.936c0 .828-.672 1.499-1.5 1.499zm-13.703-3h12.202v-27.435c0-2.935-2.388-5.323-5.323-5.323h-1.555c-2.936 0-5.324 2.388-5.324 5.323z" fill="#3a312a"/><path d="m102.284 173.876v-3.078c0-4.325-3.506-7.831-7.831-7.831h-12.218c-4.325 0-7.831 3.506-7.831 7.831v3.078z" fill="#8ac6dd"/><path d="m102.284 175.376h-27.88c-.828 0-1.5-.671-1.5-1.5v-3.079c0-5.145 4.186-9.331 9.331-9.331h12.218c5.146 0 9.331 4.186 9.331 9.331v3.079c0 .829-.672 1.5-1.5 1.5zm-26.38-3h24.88v-1.579c0-3.491-2.84-6.331-6.331-6.331h-12.218c-3.491 0-6.331 2.84-6.331 6.331z" fill="#3a312a"/><path d="m189.56 155.84c-2.678 0-4.849 2.171-4.849 4.849v61.82c0 2.678 2.171 4.849 4.849 4.849 2.678 0 4.849-2.171 4.849-4.849v-61.82c0-2.679-2.171-4.849-4.849-4.849z" fill="#87796f"/><path d="m189.56 228.857c-3.501 0-6.349-2.848-6.349-6.349v-61.82c0-3.501 2.848-6.349 6.349-6.349s6.349 2.848 6.349 6.349v61.82c-.001 3.501-2.848 6.349-6.349 6.349zm0-71.517c-1.847 0-3.349 1.502-3.349 3.349v61.82c0 1.847 1.502 3.349 3.349 3.349s3.349-1.502 3.349-3.349v-61.82c-.001-1.847-1.503-3.349-3.349-3.349z" fill="#3a312a"/></g></svg>