<svg id="Capa_1" enable-background="new 0 0 512 512" height="512" viewBox="0 0 512 512" width="512" xmlns="http://www.w3.org/2000/svg"><g><g><g><g><path d="m474.502 457.101c15.187 0 27.498-12.311 27.498-27.498v-238.704h-492v238.705c0 15.187 12.311 27.498 27.498 27.498h437.004z" fill="#eaf0f0"/></g><g><path d="m474.502 54.899h-437.004c-15.187 0-27.498 12.311-27.498 27.498v108.502h492v-108.502c0-15.187-12.311-27.498-27.498-27.498z" fill="#a0e4a5"/></g></g><g><path d="m211.951 400.991h-132.912c-8.129 0-14.72-6.59-14.72-14.72v-125.784c0-8.129 6.59-14.72 14.72-14.72h132.912c8.129 0 14.72 6.59 14.72 14.72v125.785c-.001 8.129-6.591 14.719-14.72 14.719z" fill="#80b4ff"/></g><g><path d="m145.495 333.168c-19.967 0-36.153-16.186-36.153-36.153v-15.094c0-19.967 16.186-36.153 36.153-36.153 19.967 0 36.153 16.186 36.153 36.153v15.094c0 19.966-16.186 36.153-36.153 36.153z" fill="#ffd0c6"/></g><g><path d="m223.462 395.44c-2.691 3.382-6.852 5.551-11.508 5.551h-132.914c-4.657 0-8.808-2.16-11.5-5.542l1.186-7.171c2.311-14.005 11.995-25.673 25.328-30.533l22.326-8.136c4.125-1.496 7.073-5.161 7.649-9.517l1.7-12.801c5.675 3.718 12.473 5.878 19.768 5.878s14.093-2.16 19.777-5.887l1.7 12.81c.575 4.356 3.514 8.021 7.631 9.517l22.344 8.136c13.332 4.86 23.017 16.528 25.327 30.533z" fill="#ffd0c6"/></g><g><path d="m474.502 44.899h-437.004c-20.676 0-37.498 16.821-37.498 37.497v347.207c0 20.676 16.822 37.498 37.498 37.498h171.63c5.523 0 10-4.477 10-10s-4.477-10-10-10h-171.63c-9.648 0-17.498-7.849-17.498-17.498v-228.704h472v228.705c0 9.648-7.85 17.498-17.498 17.498h-177.405c-5.523 0-10 4.477-10 10s4.477 10 10 10h177.405c20.676 0 37.498-16.821 37.498-37.498v-347.208c0-20.676-16.822-37.497-37.498-37.497zm-454.502 136v-98.503c0-9.648 7.85-17.498 17.498-17.498h437.004c9.648 0 17.498 7.849 17.498 17.498v98.502h-472z"/><path d="m211.951 235.768h-132.911c-13.63 0-24.72 11.089-24.72 24.72v125.784c0 13.457 11.272 24.72 24.72 24.72h132.912c13.451 0 24.719-11.259 24.719-24.72v-125.785c-.001-13.63-11.089-24.719-24.72-24.719zm4.719 24.719v97.745c-4.672-4.257-10.177-7.651-16.301-9.884l-22.35-8.138c-.612-.223-1.046-.77-1.134-1.434l-.945-7.12c9.62-8.464 15.707-20.853 15.707-34.643v-15.093c0-9.704-3.017-18.713-8.154-26.153h28.456c2.604.001 4.721 2.118 4.721 4.72zm-4.709 130.503c-.002 0-.005 0-.007 0h-132.914c-.005 0-.009-.001-.013-.001-.206-.001-.403-.035-.603-.061l.169-1.023c1.72-10.423 8.957-19.146 18.885-22.765l22.312-8.13c7.57-2.746 12.955-9.364 14.112-17.31 7.552 1.951 15.647 1.952 23.199-.003 1.159 7.949 6.534 14.565 14.083 17.309l22.34 8.134c9.93 3.62 17.167 12.343 18.887 22.771l.168 1.016c-.205.028-.407.063-.618.063zm-40.313-109.07v15.094c0 9.401-4.988 17.656-12.454 22.266-8.288 5.13-19.05 5.124-27.351.03-7.493-4.604-12.501-12.876-12.501-22.297v-15.093c0-14.421 11.732-26.153 26.153-26.153s26.153 11.733 26.153 26.153zm-92.608-26.152h28.456c-5.136 7.439-8.154 16.449-8.154 26.153v15.094c0 13.795 6.092 26.187 15.718 34.652l-.945 7.118c-.086.654-.524 1.2-1.158 1.43l-22.328 8.136c-6.127 2.233-11.636 5.631-16.309 9.892v-97.755c0-2.603 2.117-4.72 4.72-4.72z"/><path d="m444.859 235.768h-164.991c-5.523 0-10 4.477-10 10s4.477 10 10 10h164.992c5.523 0 10-4.477 10-10s-4.478-10-10.001-10z"/><path d="m444.859 289.33h-91.859c-5.523 0-10 4.477-10 10s4.477 10 10 10h91.859c5.523 0 10-4.477 10-10s-4.477-10-10-10z"/><path d="m319.325 299.33c0-5.523-4.477-10-10-10h-29.457c-5.523 0-10 4.477-10 10s4.477 10 10 10h29.457c5.523 0 10-4.477 10-10z"/><path d="m444.859 390.991h-80.739c-5.523 0-10 4.477-10 10s4.477 10 10 10h80.739c5.523 0 10-4.477 10-10s-4.477-10-10-10z"/><path d="m262.23 453.28c-2.067-5.042-8.027-7.485-13.05-5.41-5.033 2.079-7.503 8.029-5.41 13.06 2.094 5.035 8.013 7.478 13.05 5.4 5.029-2.074 7.505-8.022 5.41-13.05z"/><path d="m364.933 90.517c-.035-.092-.071-.183-.108-.274-1.763-4.285-5.894-7.052-10.527-7.052-.003 0-.008 0-.011 0-4.637.004-8.769 2.781-10.524 7.073-.031.075-.061.151-.09.228l-22.914 60.163c-1.966 5.161.625 10.938 5.786 12.904 1.171.446 2.374.658 3.557.658 4.03 0 7.828-2.454 9.347-6.444l3.254-8.542h23.011l3.213 8.514c1.95 5.167 7.719 7.772 12.887 5.825 5.167-1.95 7.775-7.72 5.825-12.887zm-14.613 38.712 3.941-10.347 3.905 10.347z"/><path d="m216.549 83.19c-5.523 0-10 4.477-10 10v61.022c0 5.523 4.477 10 10 10s10-4.477 10-10v-61.022c0-5.523-4.477-10-10-10z"/><path d="m180.26 83.812c-5.239-1.74-10.901 1.096-12.643 6.337l-11.917 35.875-12.535-36.113c-1.812-5.218-7.509-7.979-12.727-6.168-5.217 1.812-7.979 7.509-6.168 12.727l20.888 60.173c1.611 4.536 5.913 7.57 10.721 7.57h.077c4.839-.033 9.137-3.133 10.717-7.781l19.924-59.977c1.741-5.241-1.096-10.902-6.337-12.643z"/></g></g><path d="m287.896 114.801c-7.067-2.607-13.677-5.438-16.132-6.507-.393-.414-.544-.955-.45-1.615.19-1.324 1.353-2.401 3.19-2.955 7.429-2.239 14.473 3.402 14.543 3.458 0 0 8.093 5.136 13.759-1.866 5.747-7.102-.89-13.508-.89-13.508-5.605-4.711-18.901-11.537-33.181-7.235-9.318 2.807-15.916 10.188-17.218 19.263-1.23 8.572 2.488 16.819 9.704 21.524.442.288.906.541 1.387.755.356.159 8.829 3.93 18.366 7.449 3.245 1.197 6.891 3.398 6.486 5.665-.359 2.009-3.253 4.983-8.325 4.983-5.406 0-10.585-2.154-13.855-5.761-3.708-4.092-10.033-4.403-14.125-.694s-4.403 10.033-.694 14.125c7.102 7.836 17.553 12.331 28.674 12.331 14.011 0 25.792-9.028 28.013-21.468 1.69-9.453-2.481-21.759-19.252-27.944z"/></g></svg>