<svg clip-rule="evenodd" fill-rule="evenodd" height="512" image-rendering="optimizeQuality" shape-rendering="geometricPrecision" text-rendering="geometricPrecision" viewBox="0 0 1.70666 1.70666" width="512" xmlns="http://www.w3.org/2000/svg"><g id="Layer_x0020_1"><g id="_249437136"><path id="_249431544" d="m1.65907 1.44373h-1.61148c-.0262953 0-.0475906-.0212953-.0475906-.0475866v-1.08564c0-.0262953.0212953-.0475906.0475906-.0475906h1.61148c.0262953 0 .0475906.0212953.0475906.0475906v1.08564c0 .0262913-.0213031.0475866-.0475906.0475866z" fill="#fe5022"/><path id="_249439800" d="m.586307 1.07185-.168248.371878h1.24101c.0262874 0 .0475906-.0212953.0475906-.0475866v-.324291h-1.12035z" fill="#4d4d4d"/><path id="_249429024" d="m.418146.262913.16815.371878h1.12037v-.324287c0-.0262953-.0212953-.0475906-.0475906-.0475906h-1.24093z" fill="#378b4e"/><path id="_249437304" d="m.596079.662402v.381874c0 .00390945-.0008189.0077874-.00242913.0113465l-.00734252.0162283h1.12035v-.437059h-1.12037l.00735433.0162677c.00161024.00356693.00242913.00742913.00242913.0113425z" fill="#f2f2f2"/></g><path d="m.418059 1.33982h-.370465c-.0262953 0-.0475906-.0212953-.0475906-.0475866v.103906c0 .0262913.0212953.0475866.0475906.0475866h.370465l.0470079-.103906z" fill="#e5481f"/><path d="m1.65907 1.33982h-1.194l-.0470079.103906h1.24101c.0262874 0 .0475906-.0212953.0475906-.0475866v-.103906c0 .0262913-.0213031.0475866-.0475906.0475866z" fill="#454545"/></g></svg>