<svg id="Layer_1" enable-background="new 0 0 62.468 77.67" height="512" viewBox="0 0 62.468 77.67" width="512" xmlns="http://www.w3.org/2000/svg"><g id="Layer_2_1_"><g id="flat"><circle cx="31.279" cy="46.57" fill="#27bdf3" r="29"/><path d="m46.049 21.6c-1.11 4.03-5.48 8.11-14.77 9.21-23.73 2.82-24.96 22.01-23.91 32.18-9.061-13.215-5.694-31.274 7.521-40.335 9.299-6.377 21.45-6.788 31.159-1.055z" fill="#61deff"/><path d="m60.279 46.57c0 16.016-12.984 29-29 29-.11 0-.23 0-.34-.01 2.89-1.471 5.677-3.139 8.34-4.99 7-5 12.4-19.73 15.53-29.43.897-2.957 1.425-6.013 1.57-9.1 2.563 4.413 3.909 9.427 3.9 14.53z" fill="#068df2"/><path d="m32.749 26.57c-9 5-19 0-18 10s8 5 8 15-12.47-3-16.47 9l-.27.23c-7.851-13.969-2.892-31.657 11.077-39.509 6.597-3.708 14.382-4.692 21.693-2.741.46 1.48.3 4.5-6.03 8.02z" fill="#b4df8b"/><path d="m22.749 51.57c0 9.37-10.96-1.46-15.62 7.03-.07-6.68 1.37-15.12 7.75-21.01 1.36 8.64 7.87 4.34 7.87 13.98z" fill="#9dcc6b"/><path d="m31.279 17.57c-4.323-.009-8.593.959-12.49 2.83.741 1.47 1.71 2.813 2.87 3.98.45.255 1 .255 1.45 0 2.24-1.06 7.79-3.81 11.18-6.66-1-.101-2.005-.151-3.01-.15z" fill="#84b749"/><path d="m60.279 46.57c.002 1.106-.061 2.211-.19 3.31-5.727 10.766-14.485 19.618-25.189 25.46-3.155.4-6.354.278-9.47-.36 14.7-4.36 29.88-19.54 34.2-34.25l.03-.12c.414 1.96.622 3.957.619 5.96z" fill="#2a93f2"/><path d="m56.829 60.3c-7.582 14.108-25.165 19.399-39.273 11.817-1.213-.652-2.379-1.39-3.487-2.207l.21-.34s5-7 12-8 9.47 2 11.47-6c1.97-7.88 9.3-1.21 19.08 4.73z" fill="#9dcc6b"/><path d="m56.829 60.3c-5.054 9.408-14.871 15.275-25.55 15.27-.11 0-.23 0-.34-.01 2.89-1.471 5.677-3.139 8.34-4.99 3.51-2.5 7.26-8.52 9.89-15.15 2.31 1.45 4.89 3.19 7.66 4.88z" fill="#84b749"/><path d="m60.279 46.57c.002 1.106-.061 2.211-.19 3.31-1.649 3.116-3.57 6.081-5.74 8.86-1.16-.73-2.27-1.46-3.34-2.14 3.859-4.692 6.785-10.079 8.62-15.87l.03-.12c.415 1.96.622 3.957.62 5.96z" fill="#0665cc"/><path d="m54.349 58.74c-5.237 6.846-11.866 12.503-19.449 16.6l-.01.01c-1.198.144-2.403.218-3.61.22-1.961.001-3.917-.194-5.84-.58 0-.006-.004-.01-.01-.01 9.29-2.76 18.77-9.83 25.58-18.38.37.24.75.48 1.14.73.709.46 1.439.94 2.199 1.41z" fill="#6a9335"/><path d="m61.2 39.37c-.25.8-.53 1.58-.83 2.38v.01c-5.4 14.31-18.89 28.55-33.84 33.81h-.01c-3.408 1.228-6.981 1.936-10.6 2.1-8.161 0-13.42-4.28-15.22-10.72-.922-3.607-.936-7.386-.04-11 .512-1.797 1.154-3.555 1.92-5.26.347 2.526 1.04 4.993 2.06 7.33-.489 2.147-.608 4.363-.35 6.55.332 2.231 1.332 4.309 2.87 5.96 2.69 2.69 6.92 3.68 12.12 2.88 1.01-.159 2.011-.37 3-.63 14.96-4.01 30.66-19.5 35.07-34.5.383-1.231.677-2.487.88-3.76.79-4.97-.36-9.14-2.95-11.95-2.78-3-7.81-4.93-13.67-3.1-1.616-.624-3.287-1.096-4.99-1.41l-.34-.11c1.157-.972 2.528-1.658 4-2 7.53-1.93 13.93-.37 17.89 3.59 4.43 4.28 5.43 11.92 3.03 19.83z" fill="#dad7e5"/><path d="m59.1 39.32c-.23.74-.49 1.46-.77 2.21-2.799 7.062-7.012 13.476-12.38 18.85-5.327 5.556-11.834 9.845-19.04 12.55h-.01c-3.164 1.14-6.481 1.797-9.84 1.95-7.58 0-12.46-3.98-14.13-9.96-.857-3.348-.871-6.856-.04-10.21.03-.1.13-.46.29-.96.368 1.461.856 2.89 1.46 4.27-.489 2.147-.608 4.363-.35 6.55.332 2.231 1.332 4.309 2.87 5.96 2.69 2.69 6.92 3.68 12.12 2.88 1.01-.159 2.011-.37 3-.63 14.96-4.01 30.66-19.5 35.07-34.5.383-1.231.677-2.487.88-3.76.79-4.97-.36-9.14-2.95-11.95-2.78-3-7.81-4.93-13.67-3.1-1.266-.49-2.566-.884-3.89-1.18.628-.303 1.285-.545 1.96-.72 6.99-1.79 12.93-.34 16.61 3.33 4.11 3.98 5.039 11.07 2.81 18.42z" fill="#edebf2"/><path d="m22.279 0c-4.965 0-8.992 4.021-9 8.986 0 5.936 6.137 12.989 8.276 15.266.373.4 1.001.422 1.401.048.017-.016.033-.032.048-.048 2.138-2.277 8.275-9.33 8.275-15.266-.008-4.965-4.035-8.986-9-8.986zm0 12.58c-1.985-.003-3.591-1.615-3.588-3.6s1.615-3.591 3.6-3.588c1.983.003 3.588 1.611 3.588 3.594-.002 1.987-1.613 3.597-3.6 3.597z" fill="#ef204d"/><path d="m29.169 3.21c.732 1.391 1.113 2.939 1.11 4.51 0 6.32-5.59 13.27-8 15.85.04.05-.76.64-.72.68.355.398.965.432 1.363.077.027-.024.053-.05.077-.077 2.14-2.27 8.28-9.32 8.28-15.26.005-2.116-.743-4.165-2.11-5.78z" fill="#b3183a"/><path d="m23.779.64c.9-.002 1.796.126 2.66.38-4.408-2.298-9.843-.587-12.141 3.821-.668 1.281-1.017 2.704-1.019 4.149 0 3.9 2.64 8.27 5.07 11.47-2.13-3.12-4.07-6.91-4.07-10.34.011-5.239 4.261-9.48 9.5-9.48z" fill="#ff5a85"/></g></g></svg>