<svg id="Layer_1" enable-background="new 0 0 64 64" height="512" viewBox="0 0 64 64" width="512" xmlns="http://www.w3.org/2000/svg" xmlns:xlink="http://www.w3.org/1999/xlink"><linearGradient id="SVGID_1_" gradientTransform="matrix(1 0 0 -1 0 66)" gradientUnits="userSpaceOnUse" x1="0" x2="64" y1="34" y2="34"><stop offset="0" stop-color="#e9a254"/><stop offset="1" stop-color="#f4bb79"/></linearGradient><linearGradient id="SVGID_2_" gradientTransform="matrix(1 0 0 -1 0 66)" gradientUnits="userSpaceOnUse" x1="0" x2="64" y1="45" y2="45"><stop offset="0" stop-color="#9b756d"/><stop offset="1" stop-color="#bc9388"/></linearGradient><linearGradient id="lg1"><stop offset="0" stop-color="#474f72"/><stop offset="1" stop-color="#878c9f"/></linearGradient><linearGradient id="SVGID_3_" gradientTransform="matrix(1 0 0 -1 0 66)" gradientUnits="userSpaceOnUse" x1="0" x2="40" xlink:href="#lg1" y1="34" y2="34"/><linearGradient id="SVGID_4_" gradientTransform="matrix(1 0 0 -1 0 66)" gradientUnits="userSpaceOnUse" x1="11" x2="29" xlink:href="#lg1" y1="60" y2="60"/><linearGradient id="SVGID_5_" gradientTransform="matrix(1 0 0 -1 0 66)" gradientUnits="userSpaceOnUse" x1="8" x2="32" y1="34" y2="34"><stop offset="0" stop-color="#8cdd79"/><stop offset="1" stop-color="#d4e6b6"/></linearGradient><linearGradient id="SVGID_6_" gradientTransform="matrix(1 0 0 -1 0 66)" gradientUnits="userSpaceOnUse" x1="14.996" x2="27.004" y1="34.001" y2="34.001"><stop offset="0" stop-color="#d4d8e1"/><stop offset="1" stop-color="#f3f4f5"/></linearGradient><linearGradient id="SVGID_7_" gradientTransform="matrix(1 0 0 -1 0 66)" gradientUnits="userSpaceOnUse" x1="9" x2="31" y1="11" y2="11"><stop offset="0" stop-color="#949aaf"/><stop offset="1" stop-color="#c6ccda"/></linearGradient><linearGradient id="SVGID_8_" gradientUnits="userSpaceOnUse" x1="45" x2="59" y1="46" y2="46"><stop offset="0" stop-color="#da5466"/><stop offset="1" stop-color="#f4929c"/></linearGradient><path d="m4 10h56c2.2 0 4 1.8 4 4v36c0 2.2-1.8 4-4 4h-56c-2.2 0-4-1.8-4-4v-36c0-2.2 1.8-4 4-4z" fill="url(#SVGID_1_)"/><path d="m0 16h64v10h-64z" fill="url(#SVGID_2_)"/><path d="m8 2h24c3.3 0 6 2.7 6 6v48c0 3.3-2.7 6-6 6h-24c-3.3 0-6-2.7-6-6v-48c0-3.3 2.7-6 6-6z" fill="#d7f1ff"/><path d="m32 64h-24c-4.4 0-8-3.6-8-8v-48c0-4.4 3.6-8 8-8h24c4.4 0 8 3.6 8 8v48c0 4.4-3.6 8-8 8zm-24-60c-2.2 0-4 1.8-4 4v48c0 2.2 1.8 4 4 4h24c2.2 0 4-1.8 4-4v-48c0-2.2-1.8-4-4-4z" fill="url(#SVGID_3_)"/><path d="m25 8h-10c-2.2 0-4-1.8-4-4h18c0 2.2-1.8 4-4 4z" fill="url(#SVGID_4_)"/><circle cx="20" cy="32" fill="url(#SVGID_5_)" r="12"/><circle cx="20" cy="32" fill="#7ece67" r="10"/><path d="m20 36c-.6 0-.3.1-4.7-4.3-.4-.4-.4-1 0-1.4s1-.4 1.4 0l3.3 3.3 5.3-5.3c.4-.4 1-.4 1.4 0s.4 1 0 1.4c-6.6 6.6-6.1 6.3-6.7 6.3z" fill="url(#SVGID_6_)"/><path d="m30 56h-20c-.6 0-1-.4-1-1s.4-1 1-1h20c.6 0 1 .4 1 1s-.4 1-1 1z" fill="url(#SVGID_7_)"/><path d="m58 49h-12c-.6 0-1-.4-1-1v-4c0-.6.4-1 1-1h12c.6 0 1 .4 1 1v4c0 .6-.4 1-1 1z" fill="url(#SVGID_8_)"/></svg>