<svg id="Layer_1" enable-background="new 0 0 96 96" height="512" viewBox="0 0 96 96" width="512" xmlns="http://www.w3.org/2000/svg"><g id="Verification-2"><path d="m8.2 7.7h53.8c2.5 0 4.5 2 4.5 4.5v78.3c0 2.5-2 4.5-4.5 4.5h-53.8c-2.5 0-4.5-2-4.5-4.5v-78.3c-.1-2.5 2-4.5 4.5-4.5z" fill="#b3c4f3"/><path d="m61.9 96h-53.7c-3.1 0-5.5-2.5-5.5-5.5v-78.3c0-3.1 2.5-5.5 5.5-5.5h53.8c3.1 0 5.5 2.5 5.5 5.5v78.3c0 3-2.5 5.5-5.6 5.5zm-53.7-87.3c-1.9 0-3.5 1.6-3.5 3.5v78.3c0 1.9 1.6 3.5 3.5 3.5h53.8c1.9 0 3.5-1.6 3.5-3.5v-78.3c0-1.9-1.6-3.5-3.5-3.5z" fill="#302d3d"/><path d="m73.2 19.1v65.1c0 2.5-2.1 4.6-4.6 4.6h-53.6c-2.5 0-4.6-2.1-4.6-4.6v-78.6c0-2.5 2.1-4.6 4.6-4.6 43.8 0 40.8-.2 42.1.4s.5.1 14.8 14.4c.8.9 1.3 2 1.3 3.3z" fill="#d2ddf2"/><path d="m15.4 83.7v-77.7h39.6l13.2 13.2v64.5z" fill="#e6ecf2"/><path d="m73.2 19.1c0 .1 1.4.1-18.2.1.1-19.6 0-18.2.2-18.2 1.2 0 2.4.5 3.2 1.3 14.5 14.5 13.9 13.7 14.4 14.8.3.7.4 1.3.4 2z" fill="#d2ddf2"/><path d="m68.6 89.7h-53.6c-3.1 0-5.6-2.5-5.6-5.6v-78.5c0-3.1 2.5-5.6 5.6-5.6h40.2c.8 0 1.6.2 2.3.5 1.3.6.6.1 15.1 14.6 1.1 1.1 1.7 2.5 1.6 4v65c0 3.1-2.5 5.6-5.6 5.6zm-53.6-87.7c-2 0-3.6 1.6-3.6 3.6.1 0 0-1.9 0 78.5 0 2 1.6 3.6 3.6 3.6h53.6c2 0 3.6-1.6 3.6-3.6v-65c0-.9-.3-1.9-1-2.5-14.6-14.6-13.7-13.9-14.5-14.3-1-.4 2.3-.3-41.7-.3z" fill="#302d3d"/><path d="m23.8 20.8h33.6c1.9 0 3.5 1.6 3.5 3.5v29.4c0 1.9-1.6 3.5-3.5 3.5h-33.6c-1.9 0-3.5-1.6-3.5-3.5v-29.4c0-2 1.6-3.5 3.5-3.5z" fill="#fff"/><path d="m23.8 64.5h33.6c1.9 0 3.5 1.6 3.5 3.5v2.8c0 1.9-1.6 3.5-3.5 3.5h-33.6c-1.9 0-3.5-1.6-3.5-3.5v-2.8c0-1.9 1.6-3.5 3.5-3.5z" fill="#fff"/><path d="m61.6 32.4h-32.4c-.6 0-1-.4-1-1s.4-1 1-1h32.4c.6 0 1 .4 1 1s-.4 1-1 1z" fill="#302d3d"/><path d="m61.6 39.6h-32.4c-.6 0-1-.4-1-1s.4-1 1-1h32.4c.6 0 1 .4 1 1s-.4 1-1 1z" fill="#302d3d"/><path d="m47.7 46.8h-18.5c-.6 0-1-.4-1-1s.4-1 1-1h18.5c.6 0 1 .4 1 1s-.5 1-1 1z" fill="#302d3d"/><path d="m61.6 54h-32.4c-.6 0-1-.4-1-1s.4-1 1-1h32.4c.6 0 1 .4 1 1s-.4 1-1 1z" fill="#302d3d"/><path d="m61.6 68.4h-32.4c-.6 0-1-.4-1-1s.4-1 1-1h32.4c.6 0 1 .4 1 1s-.4 1-1 1z" fill="#302d3d"/><path d="m40.9 75.6h-11.7c-.6 0-1-.4-1-1s.4-1 1-1h11.7c.6 0 1 .4 1 1s-.4 1-1 1z" fill="#302d3d"/><path d="m38.8 61.2h-9.6c-.6 0-1-.4-1-1s.4-1 1-1h9.6c.6 0 1 .4 1 1s-.5 1-1 1z" fill="#302d3d"/><path d="m57.1 1.4v15.7h15.7c-.5-1.1.1-.3-14.4-14.8-.4-.3-.8-.7-1.3-.9z" fill="#b3c4f3"/><path d="m91.9 87.8-4.2 4.2c-.7.7-1.8.7-2.5 0-1.1-1.1 4.1 4.2-11.4-11.4-.7-.7-.7-1.8 0-2.5.4-.4-1.5 1.5 4.2-4.2.7-.7 1.8-.7 2.5 0l11.4 11.4c.6.7.6 1.8 0 2.5z" fill="#fe4a55"/><path d="m78.2 73.8-4.5 4.5-5.3-5.3c1.7-1.2 3.3-2.8 4.5-4.5z" fill="#f0824b"/><circle cx="57.2" cy="57.3" fill="#e9ecef" r="12.7"/><path d="m57.2 67c-5.4 0-9.7-4.4-9.7-9.7 0-5.4 4.4-9.7 9.7-9.7 5.4 0 9.7 4.4 9.7 9.7s-4.3 9.7-9.7 9.7z" fill="#fff"/><path d="m70.8 43.7c-7.5-7.5-19.7-7.5-27.2 0s-7.5 19.7 0 27.2 19.7 7.5 27.2 0 7.5-19.7 0-27.2zm-4.6 22.6c-5 5-13 5-18 0s-5-13 0-18 13-5 18 0 4.9 13 0 18z" fill="#ffca6e"/><path d="m53.1 43.1c0-2.4-2.6-4-4.7-2.9-4.2 2.1-7.4 5.8-9.1 10.1-.6 1.7.2 3.6 1.9 4.2s3.5-.2 4.1-1.8c1.1-2.9 3.2-5.3 6-6.7 1.1-.5 1.8-1.6 1.8-2.9z" fill="#ffe391"/><path d="m61.3 71.4c0 2.4 2.6 4 4.7 2.9 4.2-2.2 7.4-5.8 9.1-10.2.5-1.7-.5-3.5-2.2-4-1.5-.4-3.1.3-3.8 1.6-1.1 2.9-3.2 5.3-6 6.7-1.1.7-1.8 1.8-1.8 3z" fill="#ffa64d"/><path d="m81.6 85.4h9.4v2h-9.4z" fill="#e61f34" transform="matrix(.707 -.707 .707 .707 -35.822 86.346)"/><path d="m86.9 80.3-6.7 6.7-1.4-1.5 6.7-6.6z" fill="#e61f34"/><path d="m74.7 78.4h9.4v2h-9.4z" fill="#e61f34" transform="matrix(.708 -.707 .707 .708 -32.928 79.304)"/><g fill="#302d3d"><path d="m72.8 18.1h-15.7c-.6 0-1-.4-1-1v-15.7c0-.6.4-1 1-1s1.6.8 2 1.2c14.7 14.7 14 13.9 14.6 15.1.3.7-.2 1.4-.9 1.4zm-14.7-2h12.7l-12.7-12.7z"/><path d="m23.7 34.8h-3.5c-1.3 0-2.3-1-2.3-2.3 0-.1 0 .5 0-2.2 0-1.3 1-2.3 2.3-2.3h3.5c1.3 0 2.3 1 2.3 2.3v2.2c0 1.2-1 2.3-2.3 2.3zm-3.5-4.9c-.2 0-.3.2-.3.3v2.2c0 .2.1.3.3.3h3.5c.2 0 .3-.2.3-.3v-2.2c0-.2-.2-.3-.3-.3.1 0-2.8 0-3.5 0z"/><path d="m20.2 49.2c-1.3 0-2.3-1-2.3-2.3 0-.1 0 .5 0-2.2 0-1.3 1-2.3 2.3-2.3h3.5c1.3 0 2.3 1 2.3 2.3v2.2c0 1.3-1 2.3-2.3 2.3-2.2 0-1.3 0-3.5 0zm0-4.8c-.2 0-.3.2-.3.3v2.2c0 .2.1.3.3.3h3.5c.2 0 .3-.2.3-.3v-2.2c0-.2-.2-.3-.3-.3.1 0-2.8 0-3.5 0z"/><path d="m20.2 63.6c-1.3 0-2.3-1-2.3-2.3 0-.1 0 .5 0-2.2 0-1.3 1-2.3 2.3-2.3h3.5c1.3 0 2.3 1 2.3 2.3v2.2c0 1.3-1 2.3-2.3 2.3-2.2 0-1.3 0-3.5 0zm0-4.8c-.2 0-.3.2-.3.3v2.2c0 .2.1.3.3.3h3.5c.2 0 .3-.2.3-.3v-2.2c0-.2-.2-.3-.3-.3.1 0-2.8 0-3.5 0z"/><path d="m23.7 78.1h-3.5c-1.3 0-2.3-1-2.3-2.3 0-.1 0 .5 0-2.2 0-1.3 1-2.3 2.3-2.3h3.5c1.3 0 2.3 1 2.3 2.3v2.2c0 1.2-1 2.3-2.3 2.3zm-3.5-4.9c-.2 0-.3.2-.3.3v2.2c0 .2.1.3.3.3h3.5c.2 0 .3-.2.3-.3v-2.2c0-.2-.2-.3-.3-.3z"/><path d="m84.5 92.7-11.4-11.4c-1.1-1.1-1.1-2.8 0-3.9l4.2-4.2c1.1-1.1 2.8-1.1 3.9 0l11.4 11.4c1.1 1.1 1.1 2.8 0 3.9l-4.2 4.2c-1.1 1-2.8 1-3.9 0zm-5.3-18.3c-.5 0-.2-.1-4.7 4.4-.3.3-.3.8 0 1.1 1.1 1.2-4.2-4.2 11.4 11.4.3.3.8.3 1.1 0l4.2-4.2c.3-.3.3-.8 0-1.1-12.6-12.6-11.6-11.6-12-11.6z"/><path d="m73.6 79.6-5.4-5.4c-9.4 6.1-21.9 3.4-28-5.9s-3.4-21.9 5.9-28 21.9-3.4 28 5.9c4.4 6.7 4.4 15.4 0 22.1l5.4 5.4c.4.4.4 1 0 1.4l-4.5 4.5c-.4.4-1 .4-1.4 0zm-4.6-7.4 5.3 5.2 3.1-3.1-5.2-5.3c-.3-.3-.4-.9-.1-1.3 5.8-8.2 3.9-19.6-4.3-25.4s-19.6-3.9-25.4 4.3-3.9 19.6 4.3 25.4c6.3 4.5 14.8 4.5 21.2 0 .2-.1.8-.1 1.1.2z"/><path d="m47.5 67c-5.4-5.4-5.4-14 0-19.4s14-5.4 19.4 0 5.4 14 0 19.4c-5.3 5.3-14 5.4-19.4 0zm9.7-21.4c-6.5 0-11.7 5.2-11.7 11.7s5.2 11.7 11.7 11.7c3.1 0 6.1-1.2 8.3-3.4 7.3-7.4 2-20-8.3-20z"/><path d="m83 90.7c-.9 0-1.3-1.1-.7-1.7l6.7-6.7c.4-.4 1-.4 1.4 0 .2.2.6.9 0 1.4l-6.7 6.7c-.2.2-.4.3-.7.3z"/><path d="m79.5 87.3c-.9 0-1.3-1.1-.7-1.7l6.7-6.7c.4-.4 1.1-.3 1.4.1s.3.9 0 1.3l-6.7 6.7c-.2.2-.4.3-.7.3z"/><path d="m76 83.8c-.9 0-1.3-1.1-.7-1.7l6.7-6.7c.4-.4 1-.4 1.4 0s.4 1 0 1.4c-.7.7 2.4-2.4-6.7 6.7-.1.2-.4.3-.7.3z"/><path d="m54.8 61.8-3.3-3.8c-.4-.4-.3-1 .1-1.4s1.1-.3 1.5.1l2.5 2.9 6.5-6.9c.4-.4 1-.4 1.4 0s.4 1 0 1.4l-7.2 7.7c-.4.4-1.1.4-1.5 0z"/></g></g></svg>