<svg id="Layer_1" enable-background="new 0 0 75 75" height="512" viewBox="0 0 75 75" width="512" xmlns="http://www.w3.org/2000/svg"><g id="Verify_Visa_1_"><g id="Verify_Visa"><g><g><g><path d="m69.6966248 29.4637451v25.5067291l-31.892746 5.2969284c-2.1657829.3711853-4.244854-1.1014748-4.6038017-3.2920341-.2746239-1.5589333-6.6184063-39.9478226-6.6457062-40.0484238-.4456654-1.522213.2598457-3.1311417 1.2747555-4.2696295 1.8041668-1.9949455 4.2537403-1.4984493 7.2149487-1.9926538.4190216-.0622053 19.0414314-2.8767109 26.8308868-4.0593348 4.4930649-.6407471 4.4486237 2.70891 5.3340912 7.8588238.7093201 4.3127222 2.2204285 13.4101305 2.4627914 14.8882551.0123901.0370102.0247803.0741749.0247803.1113396z" fill="#f7d78a"/></g><g><path d="m69.6966248 29.4637451v25.5067291l-31.892746 5.2969284c-2.1657829.3711853-4.244854-1.1014748-4.6038017-3.2920341-.2746239-1.5589333-6.6184063-39.9478226-6.6457062-40.0484238-.4456654-1.522213.2598457-3.1311417 1.2747555-4.2696295 1.8041668-1.9949455 4.2537403-1.4984493 7.2149487-1.9926538 16.036869.0152369 23.5717583-.0877533 31.5833435.272234.0370026.1739559-.2892532-1.9161539 3.044426 18.4155102.01239.0370101.0247802.0741748.0247802.1113395z" fill="#eac471"/></g><g><path d="m68.7808151 61.3069344c-2.6907043.397892-2.4832458.2115059-38.6127777.2476082-2.1781712-.0371628-3.9354534-1.8193741-3.9354534-4.0099335v-37.3257847c0-2.6259995-.6074982-6.2912836 1.0765457-7.7101669 1.1140137-.9158049 2.6238384-.6064072 3.9354553-.6064072 20.5068321-.0261707 28.6640663-.0590725 36.0883446.2970095 1.3060379.0622654 2.3386688.3662519 2.2401123 2.3514538-.1620789 2.9955473.1235809 7.8406076.1235809 11.0889177v23.4770641c0 3.5518799.0867157 7.0665932.0371628 10.6308632-.0263958.8964615.1998539 1.3395348-.9529705 1.5593758z" fill="#feeeb7"/></g><g><path d="m39.7593689 55.7377739-9.5913296 5.8167686c-2.1781712-.0371628-3.9354534-1.8193741-3.9354534-4.0099335v-10.0863952l2.6978626-1.6335526c1.7600937-1.1041679 4.3409748-.6867714 5.6187115 1.3737068l1.695343 2.821743.0247765-.0123863c.48283-.2970123 1.0272942-.4455147 1.5717621-.4455147 2.1122208 0 2.8144722 1.8998146 2.9332352 2.0296669.8538665 1.4107209.3958129 3.2794953-1.0149079 4.145897z" fill="#f7d78a"/></g><g><path d="m45.2690315 20.3314972c-.040966 15.470871.1191216 14.8505592-.1699219 15.3400879-.2974243.5694618-.8497047.9499512-1.5200195.9499512-12.5280781 0-11.8014698.0110359-11.9101563-.0200195-.8870964-.0986977-1.4899902-.8799553-1.4899902-1.6699219v-14.6000977c0-.9499512.7600098-1.6999512 1.7099609-1.6999512h11.6901855c.9499513 0 1.6899415.75 1.6899415 1.6999512z" fill="#9a99e1"/></g><g><g><ellipse cx="37.882" cy="27.478" fill="#f6f3fe" rx="3.858" ry="3.762"/></g><g><path d="m44.4289436 36.3915558c-.3062325.1725197-.5531387.2299805-.8498535.2299805-11.4263153-.0745163-11.8178749.156002-12.4101563-.1599121.141367-2.1466942.9236183-4.5044575 2.6601563-5.6401367.3198242-.2299805.7700195-.1499023 1.0598145.1201172 1.6035156 1.3657417 4.0238495 1.5703163 5.9299316.0899658.3000488-.2200928.7202148-.2600098 1.0400391-.0699463 1.8347931 1.2082023 2.4461097 3.2362174 2.5700683 5.4299316z" fill="#f6f3fe"/></g></g><g><g><g><path d="m59.0995331 23.6630421h-9.9455452c-.4029465 0-.7290077-.3260612-.7290077-.7290077 0-.4029484.3260612-.7290077.7290077-.7290077h9.9455452c.4029465 0 .7290077.3260593.7290077.7290077 0 .4029464-.3260612.7290077-.7290077.7290077z" fill="#f8c73b"/></g></g><g><g><path d="m62.284668 28.351757h-13.1306801c-.4029465 0-.7290077-.3260612-.7290077-.7290077 0-.4029484.3260612-.7290077.7290077-.7290077h13.1306801c.4029465 0 .7290077.3260593.7290077.7290077 0 .4029465-.3260613.7290077-.7290077.7290077z" fill="#f8c73b"/></g></g><g><g><path d="m65.8613586 33.0390472h-16.7073707c-.4029465 0-.7290077-.3260612-.7290077-.7290077 0-.4029484.3260612-.7290077.7290077-.7290077h16.7073708c.4029541 0 .7290115.3260593.7290115.7290077 0 .4029465-.3260575.7290077-.7290116.7290077z" fill="#f8c73b"/></g></g></g><g><g><path d="m54.8579178 50.1562271c-.17313.1485062-.222683.3959656-.1111908.5940208l.8538666 1.5469894c.1483536.2723846 0 .6187935-.3093987.6929703l-1.6460915.3713379c-.222683.0495529-.3837242.2722359-.3589516.5074539l.1734352 1.8192253c.0247726.3093948-.2477608.5693932-.5571594.5074539l-1.8563843-.3341751c-.222683-.0371628-.4329758.0867157-.5196915.2846222l-.6435738 1.6089287c-.1111908.2846222-.4577522.383728-.7052078.1979065l-1.3986359-1.0271454c-.17313-.136116-.4208908-.1237297-.5816307.0123863l-1.4354973 1.2005806c-.2353706.1979027-.5816307.1359634-.7178993-.1362686l-.7798386-1.4726601c-.1111908-.1980591-.3341751-.2846222-.5568581-.2228355l-1.6457901.5198441c-.2973099.0867157-.594017-.1238823-.6067085-.4332771-.0049095-.1005707-.1184311-2.4252815-.1111908-2.2769737l-.2846222-.0495529-1.7820587-.3589516c-.2973099-.0619392-.4704399-.3837242-.3341713-.6559563l.7423706-1.584156c.0991058-.2102928.0247765-.4577484-.1607399-.5816307l-1.5098228-1.0147591c-.2293129-.1525612-.3060913-.5351791-.0371666-.7549095l1.3983345-1.163414c.1734314-.1485062.2226791-.3959656.099102-.5940208l-.8910294-1.5593758c-.1610413-.2722359 0-.6311836.3093987-.6929741l1.7201195-.3465614c.2353706-.0495529.3961143-.2722321.3713379-.5074539l-.1607437-1.794445c-.0371628-.3093987.2350693-.569397.5444679-.5074539l1.7696724.2970085c.2226791.0371628.4332771-.0867157.5199928-.2846222l.8414764-2.1286201c.0123863-.0495529.0740242-.0495529.0867157-.0991058l1.918026 1.5469894c.1858177.1486588.4456635.1362686.6187935-.0247765l1.2623672-1.1880379c.2350693-.2102928.6064072-.1485062.7426758.1362686l.7795372 1.5963898c.0991058.2228317.3589516.321785.5816307.2352219.6064072-.2352219 1.2252045-.4704437 1.831913-.6931267.0864143-.0247726.1979065-.0495491.2846222 0 .3192863.142292.2102928 1.3148346.2102928 2.3019028 0 .2352219.1607437.4207382.383728.4702911.0252686.0043373 2.1160736.3837242 2.1410065.3837242.3996582 0 .1679115.2953606.0495529.5320816-.3168411.4752579-.7750931 1.5388145-.8417816 1.6831055-.099102.2104454-.0247726.4702911.1734352.5941696l1.5098228.952816c.2722321.1732826.2970085.5570068.0371628.7549133z" fill="#6dd356"/></g></g><g><path d="m41.0588989 54.0670586-1.7820587-.3589516c-.2973099-.0619392-.4704399-.3837242-.3341713-.6559563l.7423706-1.584156c.0991058-.2102928.0247765-.4577484-.1607399-.5816307l-1.5098228-1.0147591c-.1114922-.0741768-.1734352-.1856651-.1982117-.3093948h.0247765c2.1122208 0 2.8144722 1.8998146 2.9332352 2.0296669.4701423.7672996.5444679 1.6707153.2846221 2.4751816z" fill="#4aba2f"/></g><g><g><path d="m46.32201 52.5178337c-.8182869-.0787468-1.3103065-.6139679-1.726284-1.2363663-.5051003-.7484627-1.068203-1.3996887-1.7026482-1.9759598-.4606133-.418026-.4948082-1.1311226-.0756874-1.591629.418026-.4606133 1.1312256-.4959068 1.591629-.0756874.7666283.6962395 1.449276 1.483902 2.0269432 2.3399582-.0001068.0010948-.0001068.0010948-.0001068.0010948.1673317-.2375908.2391548-.3063507 3.2871704-4.091732.3915482-.484169 1.100769-.5585365 1.5851517-.1691818.4841652.3915482.5596313 1.1008759.1691818 1.5851479-3.2968521 4.0977287-3.0730247 3.7915993-3.2547913 4.0539436-.4895018.7092247-1.0126304 1.2458648-1.9005584 1.1604118z" fill="#f6f3fe"/></g></g><g><path d="m24.7847004 51.9384384c-.1009178.0611076-3.8140526 2.3094368-3.576807 2.1657829-.2474575-.5693932-.5320797-1.1386375-.8290901-1.6832542-.4944324-.9878654-1.365469-2.2730598-2.0914555-3.2300949-2.7467489-3.6110077-4.2876606-3.1582413-5.4579697-3.6756096-4.2201824-1.9361687-4.5683136-7.8514099-.5816307-10.2595253 3.7855034-2.295475 8.5718079.3726463 8.7994041 4.5790253.1220188 2.1330872-.6650677 2.0239754-.2846222 4.1953011.4554749 2.5829963 2.3708173 5.8438682 4.0221711 7.9083747z" fill="#f56357"/></g><g><path d="m19.894413 51.5564079 3.2406311-1.9659119c.1722069.283062.3537521.5592537.5446377.8285828l.2096386-.1254158c.4771786.7272339.9892426 1.443203 1.5305595 2.1304703l-4.2794895 2.586113c-.3503551-.7989464-.7449303-1.5798111-1.1673164-2.3400955l.4111767-.2520638c-.1547642-.2886925-.3176308-.5786209-.4898377-.8616791z" fill="#e11a17"/></g><g><path d="m14.2061949 56.156002 5.7668791-3.4858513.4111767-.2520638c.1017456-.0616302 9.3132133-5.6413078 9.2092438-5.5783806 1.3512135-.8210564 3.0993462-.3887138 3.9204025.9625015l1.6683464 2.7478867c.0605888.1001854 1.1686401 1.932415 1.098217 1.8159714l-20.2705555 12.2741929c-.0605783-.1001892-1.1684313-1.9323883-1.0980186-1.815937l-1.6683474-2.7478905c-.812954-1.3499794-.3794165-3.1062699.962656-3.9204293z" fill="#6f6ecf"/></g><g><path d="m13.748 56.536h23.693v2.12h-23.693z" fill="#595ab7" transform="matrix(.855 -.518 .518 .855 -26.134 21.589)"/></g><g><path d="m39.4298935 54.468998-22.7767773 13.794094c-.6849508.4148178-1.5764923.1958313-1.991313-.4891205l-.6933432-1.1448517c-.4148197-.6849442-.1958361-1.5764847.4891148-1.9913101l22.7767773-13.7940865c.6849518-.4148216 1.5764923-.1958351 1.9913101.4891129l.6933479 1.1448517c.4148179.684948.1958352 1.5764923-.4891166 1.9913102z" fill="#ef9f27"/></g><g><g><path d="m21.1868114 55.914753c-.2062893-.3462448-.0922413-.7953949.255579-1.0004234l3.950901-2.346653c.3493958-.2037621.7955513-.0908203 1.0016842.2540054.2064457.3476639.0922394.7953949-.2540035 1.0016823l-3.9537391 2.3469657c-.3481236.2076531-.7970066.089428-1.0004216-.255577z" fill="#b3b5e6"/></g></g><g opacity=".37"><path d="m62.1285591 49.3433189c1.5238152-.3936348 3.2559395.4357147 3.9541817 1.84618.6982422 1.4104691.3328857 3.2534676-.8127899 4.3325348-1.0408478.9803391-2.6772003 1.297821-3.9832726.7159195-3.0213547-1.3461151-2.1719322-6.1160965.8418808-6.8946343z" fill="#fff"/></g><g opacity=".37"><path d="m64.752182 45.1195602c.6857529-.1771469 1.4652557.1960793 1.77948.8308258s.1498108 1.4641418-.3657761 1.949749c-.4684067.4411774-1.2048035.5840492-1.792572.3221817-1.359684-.6057853-.9774246-2.7523956.3788681-3.1027565z" fill="#fff"/></g><g><path d="m12.3543262 42.0424232c-.7460938-1.0712891-.7060547-2.4365234.1005859-3.4785156.1699219-.2177734.4833984-.2568359.7021484-.0888672.2177734.1699219.2578125.4833984.0888672.7021484-.5341797.6884766-.5615234 1.5888672-.0712891 2.2929688.1582031.2265625.1025391.5390625-.1240234.6962891-.2339114.1611366-.5423316.0968017-.696289-.1240235z" fill="#fe9f8b"/></g><g><path d="m8.9949512 35.2308998-2.5664058-3.8203144c-.1542969-.2294922-.0927734-.5400391.1357422-.6943359.2275391-.1533203.5390625-.0947266.6943359.1357422l2.5664058 3.8203144c.1542969.2294922.0927734.5400391-.1357422.6943359-.2293147.1537437-.5401382.0932159-.6943359-.1357422z" fill="#6dd356"/></g><g><path d="m7.8650689 37.5141029-1.4072266-.1171875c-.2744141-.0224609-.4794922-.2646484-.4560547-.5400391.0224609-.2753906.2734375-.4716797.5400391-.4560547l1.4072266.1171875c.2744136.0224609.4794917.2646484.4560542.5400391-.0213881.2595711-.2432728.4758378-.5400386.4560547z" fill="#6dd356"/></g><g><path d="m5.2605767 40.4838295c-.0537109-.2705078.1220703-.5341797.3925781-.5878906l2.3935542-.4785156c.2666016-.0546875.5341797.1201172.5878906.3925781.0537109.2705078-.1220703.5341797-.3925781.5878906l-2.3935542.4785156c-.2662529.0548172-.5339975-.1186218-.5878906-.3925781z" fill="#6dd356"/></g><g opacity=".37"><path d="m15.8427181 38.8269005c.261528-.3795433.7033825-.6224136 1.1623554-.6647682.8649559-.0798264 1.729002.6129036 1.8391781 1.4745178s-.5517521 1.7494736-1.4089603 1.8898697c-1.5191832.2488174-2.418272-1.5013123-1.5925732-2.6996193z" fill="#fff"/></g></g></g></g></g></svg>