<svg id="Layer_1" height="512" viewBox="0 0 256 256" width="512" xmlns="http://www.w3.org/2000/svg"><g><g><g><g><g><g><g><path d="m217.253 229.835v-101.835h-178.507v101.835c0 5.258 4.263 9.521 9.521 9.521h159.465c5.259 0 9.521-4.263 9.521-9.521z" fill="#f1f2f2"/></g></g><g><g><path d="m207.253 128v91.835c0 5.258-4.263 9.521-9.521 9.521h-158.986v.479c0 5.258 4.263 9.521 9.521 9.521h159.465c5.258 0 9.521-4.263 9.521-9.521v-101.835z" fill="#e6e7e8"/></g></g><g><g><path d="m212.253 128v96.835c0 5.258-4.263 9.521-9.521 9.521h-159.464c-1.333 0-2.601-.274-3.753-.768 1.456 3.392 4.827 5.768 8.753 5.768h159.465c5.258 0 9.521-4.263 9.521-9.521v-101.835z" fill="#d1d3d4"/></g></g><g><g><path d="m38.746 26.166v101.835h178.507v-101.834c0-5.258-4.263-9.521-9.521-9.521h-159.464c-5.259-.002-9.522 4.261-9.522 9.52z" fill="#ffa91a"/></g></g><g><path d="m44.75 44.59c-1.11 0-2-.9-2-2 0-1.11.89-2 2-2 1.1 0 1.99.89 1.99 2 0 1.1-.89 2-1.99 2zm0-8c-1.11 0-2-.9-2-2v-8.43c0-3.03 2.479-5.51 5.52-5.52h159.46c1.101 0 2 .9 2 2 0 1.11-.899 2-2 2h-159.46c-.84.01-1.52.69-1.529 1.52v8.41c.01.01.01.01.01.02-.001 1.1-.901 2-2.001 2z" fill="#ffc91d"/></g></g><g><g><g><g><g><path d="m148.874 155.789h-14.294c-1.819 0-3.293 1.474-3.293 3.293s1.474 3.293 3.293 3.293h14.294c1.819 0 3.293-1.474 3.293-3.293s-1.474-3.293-3.293-3.293z" fill="#939598"/></g></g></g><g><g><g><path d="m193.653 155.789h-28.725c-1.819 0-3.293 1.474-3.293 3.293s1.474 3.293 3.293 3.293h28.725c1.819 0 3.293-1.474 3.293-3.293s-1.474-3.293-3.293-3.293z" fill="#939598"/></g></g></g><g><g><g><path d="m169.84 143.519h-35.26c-1.819 0-3.293 1.474-3.293 3.293s1.474 3.293 3.293 3.293h35.26c1.819 0 3.293-1.474 3.293-3.293s-1.474-3.293-3.293-3.293z" fill="#58595b"/></g></g></g></g><g><g><g><path d="m148.874 186.458h-14.294c-1.819 0-3.293 1.474-3.293 3.293s1.474 3.293 3.293 3.293h14.294c1.819 0 3.293-1.474 3.293-3.293 0-1.818-1.474-3.293-3.293-3.293z" fill="#939598"/></g></g></g><g><g><g><path d="m193.653 186.458h-28.725c-1.819 0-3.293 1.474-3.293 3.293s1.474 3.293 3.293 3.293h28.725c1.819 0 3.293-1.474 3.293-3.293 0-1.818-1.474-3.293-3.293-3.293z" fill="#939598"/></g></g></g><g><g><g><path d="m169.84 174.188h-35.26c-1.819 0-3.293 1.474-3.293 3.293s1.474 3.293 3.293 3.293h35.26c1.819 0 3.293-1.474 3.293-3.293 0-1.818-1.474-3.293-3.293-3.293z" fill="#58595b"/></g></g></g><g><g><g><path d="m148.874 217.128h-14.294c-1.819 0-3.293 1.474-3.293 3.293s1.474 3.293 3.293 3.293h14.294c1.819 0 3.293-1.474 3.293-3.293s-1.474-3.293-3.293-3.293z" fill="#939598"/></g></g></g><g><g><g><path d="m193.653 217.128h-28.725c-1.819 0-3.293 1.474-3.293 3.293s1.474 3.293 3.293 3.293h28.725c1.819 0 3.293-1.474 3.293-3.293s-1.474-3.293-3.293-3.293z" fill="#939598"/></g></g></g><g><g><g><path d="m169.84 204.858h-35.26c-1.819 0-3.293 1.474-3.293 3.293s1.474 3.293 3.293 3.293h35.26c1.819 0 3.293-1.474 3.293-3.293s-1.474-3.293-3.293-3.293z" fill="#58595b"/></g></g></g></g></g><g><g><g><g><path d="m109.253 143.519h-48.344c-2.209 0-4 1.791-4 4v65.609c0 2.209 1.791 4 4 4h48.344c2.209 0 4-1.791 4-4v-65.609c0-2.21-1.791-4-4-4z" fill="#d1d3d4"/></g></g></g></g></g></g><g><g><g><g><g><g><g><path d="m113.253 213.128v-6.546c-1.823-6.899-8.089-11.993-15.561-11.993h-25.223c-7.471 0-13.737 5.093-15.56 11.991v6.548c0 2.209 1.791 4 4 4h48.344c2.209 0 4-1.791 4-4z" fill="#8c3f0a"/></g><g><g><g><g><g><path d="m94.414 191.861h-18.667c-9.146 0-15.69-8.838-13.022-17.586l3.74-12.261h37.231l3.74 12.261c2.668 8.748-3.876 17.586-13.022 17.586z" fill="#f79219"/></g><g><g><g><path d="m80.451 185.953v11.457c0 .886.254 1.754.733 2.5 1.822 2.839 5.971 2.839 7.792 0 .479-.746.733-1.614.733-2.5v-11.457z" fill="#fcc4ae"/></g></g></g><g><g><g><g><path d="m95.493 194.588-5.769-2.602v2.502l-4.644 7.237-4.644-7.237v-2.502l-5.765 2.602 6.876 18.663c1.21 3.285 5.856 3.285 7.067 0z" fill="#e63950"/></g></g><g><g><path d="m74.672 194.588 4.347 11.793c.177.48.791.614 1.153.253l4.908-4.909-4.644-7.237v-2.502z" fill="#e8566f"/></g></g><g><g><path d="m95.493 194.588-4.351 11.793c-.177.48-.791.614-1.153.253l-4.908-4.909 4.644-7.237v-2.502z" fill="#e8566f"/></g></g></g></g><g><g><g><g><path d="m80.451 189.536c1.455.487 3.01.754 4.629.754 1.619 0 3.174-.268 4.63-.754v-3.582h-9.258v3.582z" fill="#f2ad97"/></g></g></g><g><g><g><path d="m85.08 188.276c-8.057 0-14.589-6.532-14.589-14.589v-7.573c0-8.057 6.532-14.589 14.589-14.589 8.057 0 14.589 6.532 14.589 14.589v7.573c.001 8.057-6.531 14.589-14.589 14.589z" fill="#ffd2c0"/></g></g></g><g><g><g><g><path d="m79.992 171.775c0 .976-.791 1.768-1.768 1.768-.976 0-1.768-.791-1.768-1.768s.791-1.768 1.768-1.768c.977.001 1.768.792 1.768 1.768z" fill="#995222"/></g></g></g><g><g><g><path d="m93.704 171.775c0 .976-.791 1.768-1.768 1.768-.976 0-1.768-.791-1.768-1.768s.791-1.768 1.768-1.768c.977.001 1.768.792 1.768 1.768z" fill="#995222"/></g></g></g></g></g></g></g></g><g><g><g><g><g><g><path d="m79.85 148.609c.025 7.747-4.308 14.75-10.904 18.339-1.395.759-3.108-.333-2.969-1.916.474-5.375 2.863-10.295 6.618-13.761 2.029-1.879 4.456-3.328 7.194-4.199.04.509.061 1.019.061 1.537z" fill="#f79219"/></g></g></g><g><g><g><path d="m103.117 165.67c-12.23 6.314-27.605-.893-30.522-14.398 2.017-1.869 4.429-3.312 7.148-4.184 11.37-3.691 22.701 4.962 24.427 16.526.125.836-.302 1.669-1.053 2.056z" fill="#ffa91a"/></g></g></g></g></g></g></g><g><g><g><path d="m87.675 179.094c.401 0 .705.375.612.765-.345 1.451-1.65 2.531-3.207 2.531s-2.862-1.079-3.207-2.531c-.093-.39.211-.765.612-.765z" fill="#e59076"/></g></g></g></g></g></g></g></g><g><path d="m103.554 195.664v21.463h5.699c2.209 0 4-1.791 4-4v-6.604c-1.325-4.975-4.962-9.007-9.699-10.859z" fill="#e63950"/></g><g><path d="m56.909 206.545v6.583c0 2.209 1.791 4 4 4h5.82v-21.487c-4.796 1.829-8.483 5.887-9.82 10.904z" fill="#e63950"/></g></g><g><g><g><path d="m128 48.88c-13.552 0-24.578 11.026-24.578 24.578s11.026 24.578 24.578 24.578 24.578-11.026 24.578-24.578-11.026-24.578-24.578-24.578zm-20.936 24.578c0-1.931.268-3.799.76-5.576h6.718c-.225 1.787-.347 3.651-.347 5.576 0 1.761.1 3.473.289 5.12h-6.784c-.414-1.639-.636-3.354-.636-5.12zm10.771 0c0-1.923.136-3.792.385-5.576h7.959v10.696h-8.023c-.209-1.645-.321-3.361-.321-5.12zm11.986-20.577c3.152 1.231 5.844 5.574 7.265 11.361h-7.265zm-3.642 0v11.361h-7.265c1.421-5.788 4.113-10.13 7.265-11.361zm0 29.339v11.816c-3.234-1.263-5.984-5.802-7.374-11.816zm3.642 11.816v-11.816h7.374c-1.39 6.013-4.14 10.553-7.374 11.816zm0-15.458v-10.695h7.959c.249 1.783.385 3.653.385 5.576 0 1.759-.112 3.475-.322 5.12h-8.022zm11.638-10.695h6.717c.492 1.777.76 3.645.76 5.576 0 1.766-.222 3.481-.636 5.12h-6.784c.189-1.647.289-3.359.289-5.12.001-1.926-.121-3.789-.346-5.576zm5.334-3.642h-5.96c-.847-3.832-2.211-7.165-3.951-9.737 4.305 2.026 7.812 5.474 9.911 9.737zm-27.675-9.736c-1.74 2.572-3.103 5.905-3.951 9.737h-5.96c2.099-4.264 5.606-7.712 9.911-9.737zm-10.126 27.715h6.076c.838 4.024 2.242 7.519 4.05 10.192-4.457-2.097-8.056-5.72-10.126-10.192zm27.89 10.192c1.808-2.673 3.212-6.168 4.05-10.192h6.076c-2.07 4.472-5.669 8.095-10.126 10.192z" fill="#fff"/></g></g><g><g><g><g><g><g><g><g><g><g><g><path d="m108.103 104.841c1.163 4.464 5.493 7.2 5.493 7.2s2.445-4.501 1.282-8.965c-.743-2.853-2.781-5-4.154-6.179-.669-.574-1.705-.304-2.009.524-.624 1.698-1.355 4.567-.612 7.42z" fill="#fff"/></g></g></g></g><g><g><g><g><path d="m106.397 117.533c4.464-1.163 7.2-5.493 7.2-5.493s-4.501-2.445-8.965-1.282c-2.853.743-5 2.781-6.179 4.154-.574.669-.304 1.705.524 2.009 1.698.625 4.567 1.356 7.42.612z" fill="#fff"/></g></g></g></g></g><g><g><g><g><g><path d="m97.342 95.336c-.416 4.594 2.733 8.633 2.733 8.633s3.824-3.408 4.24-8.002c.266-2.936-.925-5.646-1.819-7.22-.436-.767-1.502-.863-2.068-.187-1.162 1.388-2.82 3.84-3.086 6.776z" fill="#fff"/></g></g></g></g><g><g><g><g><path d="m91.442 106.703c4.594.416 8.633-2.733 8.633-2.733s-3.408-3.824-8.002-4.24c-2.936-.266-5.646.925-7.22 1.819-.767.436-.863 1.502-.187 2.068 1.387 1.162 3.84 2.82 6.776 3.086z" fill="#fff"/></g></g></g></g></g><g><g><g><g><g><path d="m89.897 80.413c-1.749 4.268.072 9.056.072 9.056s4.657-2.133 6.406-6.401c1.118-2.728.777-5.669.386-7.435-.191-.861-1.181-1.267-1.921-.787-1.519.983-3.825 2.839-4.943 5.567z" fill="#fff"/></g></g></g></g><g><g><g><g><path d="m80.914 89.541c4.268 1.749 9.056-.072 9.056-.072s-2.132-4.657-6.401-6.406c-2.728-1.118-5.669-.777-7.435-.386-.861.191-1.267 1.181-.787 1.921.983 1.519 2.838 3.825 5.567 4.943z" fill="#fff"/></g></g></g></g></g><g><g><g><g><g><path d="m91.175 63.956c-3.773 2.653-4.819 7.667-4.819 7.667s5.072.713 8.846-1.94c2.412-1.696 3.709-4.356 4.332-6.055.303-.828-.313-1.704-1.194-1.699-1.811.01-4.754.331-7.165 2.027z" fill="#fff"/></g></g></g></g><g><g><g><g><path d="m78.688 66.804c2.653 3.773 7.667 4.819 7.667 4.819s.713-5.072-1.94-8.846c-1.696-2.412-4.356-3.709-6.056-4.332-.828-.303-1.704.312-1.699 1.194.012 1.81.333 4.753 2.028 7.165z" fill="#fff"/></g></g></g></g></g><g><g><g><g><g><path d="m98.387 49.161c-4.479 1.103-7.272 5.396-7.272 5.396s4.468 2.505 8.947 1.402c2.863-.705 5.037-2.714 6.233-4.071.583-.662.327-1.701-.497-2.016-1.69-.647-4.549-1.416-7.411-.711z" fill="#fff"/></g></g></g></g><g><g><g><g><path d="m85.718 47.285c1.103 4.479 5.396 7.272 5.396 7.272s2.505-4.468 1.402-8.947c-.705-2.863-2.714-5.037-4.071-6.234-.662-.583-1.701-.327-2.016.497-.647 1.691-1.416 4.549-.711 7.412z" fill="#fff"/></g></g></g></g></g><g><g><g><g><path d="m101.456 35.525c-2.424 2.542-3.258 5.988-3.545 8.007-.123.87.646 1.603 1.509 1.439 2.004-.382 5.407-1.378 7.831-3.92s3.258-5.988 3.545-8.007c.124-.87-.646-1.603-1.509-1.439-2.004.382-5.407 1.378-7.831 3.92z" fill="#fff"/></g></g></g></g></g><g><g><path d="m103.166 39.218c-.071-.01-.141-.014-.211-.014-.349 0-.685.114-.967.329-10.65 8.171-16.757 20.547-16.757 33.953 0 23.583 19.185 42.769 42.768 42.769 23.583-.001 42.769-19.187 42.769-42.769 0-13.406-6.108-25.781-16.757-33.953-.338-.259-.758-.37-1.178-.315-.422.055-.798.272-1.057.61-.535.697-.403 1.699.295 2.234 9.858 7.563 15.51 19.016 15.51 31.424 0 21.826-17.756 39.582-39.583 39.582-21.825 0-39.581-17.756-39.581-39.582 0-12.407 5.653-23.861 15.51-31.424.338-.26.554-.635.61-1.056.055-.422-.057-.84-.316-1.178-.257-.338-.632-.555-1.055-.61z" fill="#fff"/></g><g><g><g><g><g><path d="m147.897 104.841c-1.163 4.464-5.493 7.2-5.493 7.2s-2.445-4.501-1.282-8.965c.743-2.853 2.781-5 4.154-6.179.669-.574 1.705-.304 2.009.524.624 1.698 1.355 4.567.612 7.42z" fill="#fff"/></g></g></g></g><g><g><g><g><path d="m149.603 117.533c-4.464-1.163-7.2-5.493-7.2-5.493s4.501-2.445 8.965-1.282c2.853.743 5 2.781 6.179 4.154.574.669.304 1.705-.523 2.009-1.699.625-4.568 1.356-7.421.612z" fill="#fff"/></g></g></g></g></g><g><g><g><g><g><path d="m158.658 95.336c.416 4.594-2.733 8.633-2.733 8.633s-3.824-3.408-4.24-8.002c-.266-2.936.925-5.646 1.819-7.22.436-.767 1.502-.863 2.068-.187 1.162 1.388 2.82 3.84 3.086 6.776z" fill="#fff"/></g></g></g></g><g><g><g><g><path d="m164.558 106.703c-4.594.416-8.633-2.733-8.633-2.733s3.408-3.824 8.002-4.24c2.936-.266 5.646.925 7.22 1.819.767.436.863 1.502.187 2.068-1.387 1.162-3.839 2.82-6.776 3.086z" fill="#fff"/></g></g></g></g></g><g><g><g><g><g><path d="m166.103 80.413c1.749 4.268-.072 9.056-.072 9.056s-4.657-2.133-6.406-6.401c-1.118-2.728-.777-5.669-.386-7.435.191-.861 1.181-1.267 1.921-.787 1.519.983 3.825 2.839 4.943 5.567z" fill="#fff"/></g></g></g></g><g><g><g><g><path d="m175.086 89.541c-4.268 1.749-9.056-.072-9.056-.072s2.132-4.657 6.401-6.406c2.728-1.118 5.669-.777 7.435-.386.861.191 1.267 1.181.787 1.921-.983 1.519-2.838 3.825-5.567 4.943z" fill="#fff"/></g></g></g></g></g><g><g><g><g><g><path d="m164.825 63.956c3.773 2.653 4.819 7.667 4.819 7.667s-5.072.713-8.846-1.94c-2.412-1.696-3.709-4.356-4.332-6.055-.303-.828.312-1.704 1.194-1.699 1.811.01 4.753.331 7.165 2.027z" fill="#fff"/></g></g></g></g><g><g><g><g><path d="m177.312 66.804c-2.653 3.773-7.667 4.819-7.667 4.819s-.713-5.072 1.94-8.846c1.696-2.412 4.356-3.709 6.056-4.332.828-.303 1.704.312 1.699 1.194-.012 1.81-.333 4.753-2.028 7.165z" fill="#fff"/></g></g></g></g></g><g><g><g><g><g><path d="m157.613 49.161c4.479 1.103 7.272 5.396 7.272 5.396s-4.468 2.505-8.947 1.402c-2.863-.705-5.037-2.714-6.233-4.071-.583-.662-.327-1.701.497-2.016 1.69-.647 4.549-1.416 7.411-.711z" fill="#fff"/></g></g></g></g><g><g><g><g><path d="m170.282 47.285c-1.103 4.479-5.396 7.272-5.396 7.272s-2.505-4.468-1.402-8.947c.705-2.863 2.714-5.037 4.071-6.234.662-.583 1.701-.327 2.016.497.647 1.691 1.416 4.549.711 7.412z" fill="#fff"/></g></g></g></g></g><g><g><g><g><path d="m154.544 35.525c2.424 2.542 3.258 5.988 3.545 8.007.123.87-.646 1.603-1.509 1.439-2.004-.382-5.407-1.378-7.831-3.92s-3.258-5.988-3.545-8.007c-.124-.87.646-1.603 1.509-1.439 2.004.382 5.407 1.378 7.831 3.92z" fill="#fff"/></g></g></g></g></g></g></g></g></g></g></g><g><g><g><g><path d="m96.975 66.356-35.641 85.42c-.982 2.354-3.687 3.467-6.042 2.484l-38.447-16.042c-2.354-.982-3.467-3.687-2.484-6.042l35.641-85.42c.982-2.354 3.687-3.467 6.042-2.484l38.446 16.042c2.355.982 3.467 3.687 2.485 6.042z" fill="#58595b"/></g></g><g><g><path d="m35.503 89.574 1.722.718c.57.238.83.918.579 1.519s-.917.895-1.487.657l-1.722-.718c-.571-.238-.83-.918-.579-1.519.251-.6.916-.895 1.487-.657zm4.158 3.013c-.251.601.008 1.281.579 1.519l1.722.718c.571.238 1.236-.056 1.487-.657s-.008-1.281-.579-1.519l-1.722-.718c-.57-.238-1.236.056-1.487.657zm5.645 2.356c-.251.601.008 1.281.579 1.519l1.722.718c.57.238 1.236-.056 1.487-.657s-.008-1.281-.579-1.519l-1.722-.718c-.57-.239-1.236.056-1.487.657zm5.645 2.355c-.251.601.008 1.281.579 1.519l1.722.718c.571.238 1.236-.056 1.487-.657s-.008-1.281-.579-1.519l-1.722-.718c-.57-.238-1.236.056-1.487.657zm5.645 2.356c-.251.601.008 1.281.579 1.519l1.722.718c.571.238 1.236-.056 1.487-.657s-.008-1.281-.579-1.519l-1.722-.718c-.57-.239-1.236.055-1.487.657zm5.646 2.355c-.251.601.008 1.281.579 1.519l1.722.718c.57.238 1.236-.056 1.487-.657s-.008-1.281-.579-1.519l-1.722-.718c-.571-.239-1.237.056-1.487.657zm5.645 2.355c-.251.601.008 1.281.579 1.519l1.722.718c.571.238 1.236-.056 1.487-.657s-.008-1.281-.579-1.519l-1.722-.718c-.571-.238-1.236.056-1.487.657zm5.645 2.356c-.251.601.008 1.281.579 1.519l1.722.718c.57.238 1.236-.056 1.487-.657s-.008-1.281-.579-1.519l-1.722-.718c-.571-.239-1.236.056-1.487.657z" fill="#fff"/></g></g><g><g><g><path d="m55.446 69.195-2.853-1.336 1.705-3.64c.102-.217.361-.311.578-.209l2.066.968c.217.102.311.361.209.578z" fill="#ef7816"/></g></g><g><g><path d="m61.154 69.56-2.853-1.336 1.705-3.64c.102-.217.361-.311.578-.209l2.066.968c.217.102.311.361.209.578z" fill="#ef7816"/></g></g><g><g><path d="m76.564 79.088 2.853 1.336 1.705-3.64c.102-.217.008-.476-.209-.578l-2.066-.968c-.217-.102-.476-.008-.578.209z" fill="#ef7816"/></g></g><g><g><path d="m72.631 74.936 2.853 1.336 1.705-3.64c.102-.217.008-.476-.209-.578l-2.066-.968c-.217-.102-.476-.008-.578.209z" fill="#ef7816"/></g></g><g><g><path d="m48.509 68.467-1.884 4.022c-.118.252.027.547.298.608l14.452 3.245 4.032-8.608-15.716-.018c-.506 0-.967.293-1.182.751z" fill="#f79219"/></g></g><g><g><path d="m81.564 83.952-1.884 4.022c-.118.252-.438.329-.658.16l-11.744-9.026 4.032-8.608 10.074 12.063c.324.389.394.93.18 1.389z" fill="#f79219"/></g></g><g><g><path d="m57.877 85.177-1.465 5.474 3.099 1.452 3.35-4.789c2.485-3.553 4.697-7.289 6.617-11.177l5.436-11.007c1.345-2.67.654-5.733-1.524-6.753-2.177-1.02-4.973.41-6.164 3.152l-4.901 11.051c-1.808 4.077-3.295 8.289-4.448 12.597z" fill="#ffa91a"/></g></g><g><g><path d="m51.78 86.669 6.408-2.624-1.776 6.607-5.766-1.095c-.279-.053-.433-.354-.312-.611l.76-1.623c.138-.297.383-.53.686-.654z" fill="#ffa91a"/></g></g><g><g><path d="m65.507 93.099-2.086-6.603-3.939 5.594 4.532 3.729c.219.18.549.106.67-.151l.76-1.623c.139-.296.161-.634.063-.946z" fill="#ffa91a"/></g></g></g></g><g><g><g><g><g><circle cx="46.584" cy="122.937" fill="#ffa91a" r="15.427"/></g></g></g></g><g><g><g><g><g><path d="m41.913 129.796c-.635-.265-1.168-.771-1.45-1.457l-2.845-6.919c-.564-1.372.091-2.941 1.463-3.506 1.372-.564 2.941.091 3.506 1.463l1.823 4.435 8.8-3.619c1.372-.564 2.941.091 3.506 1.463.564 1.372-.091 2.941-1.463 3.506l-11.284 4.64c-.686.281-1.421.259-2.056-.006z" fill="#fff"/></g></g></g></g></g></g></g></g></svg>