<?xml version="1.0" encoding="UTF-8"?>
<svg id="Layer_1" data-name="Layer 1" xmlns="http://www.w3.org/2000/svg" viewBox="0 0 841.89 319.56">
  <defs>
    <style>
      .cls-1 {
        fill: #fff;
      }

      .cls-2 {
        font-family: AgencyFB-Bold, 'Agency FB';
        font-size: 70px;
        font-weight: 700;
      }

      .cls-2, .cls-3 {
        fill: #001499;
      }

      .cls-4 {
        fill: #ffc40d;
      }
    </style>
  </defs>
  <text id="INTERNATIONAL_TOURS_TRAVELS" data-name="INTERNATIONAL TOURS &amp;amp; TRAVELS" class="cls-2" transform="translate(54.45 287.1)"><tspan x="0" y="0">INTERNATIONAL TOURS &amp; TRAVELS</tspan></text>
  <g>
    <path class="cls-4" d="m247.67,80.67c-65.89,81.19-170.97,69.52-170.97,69.52,74.11-12.43,98.62-31.39,160.93-87.86-17.82-25.7-47.54-42.54-81.19-42.54-54.55,0-98.76,44.22-98.76,98.76s44.21,98.76,98.76,98.76,98.76-44.22,98.76-98.76c0-13.42-2.67-26.2-7.53-37.87Zm-76.95-5.3c19.46-3.49,37.79-7.51,54.95-11.79l-11.05,11.42c-12.43,2.14-25.88,3.99-40.23,5.3-17.88,1.62-34.57,2.17-49.84,2.03,14.74-1.8,30.16-4.08,46.18-6.96Zm-17.48,19.72c17.74-3.29,34.46-7.03,50.09-10.99l-11.05,11.42c-12.15,2.29-25.45,4.27-39.8,5.61-18.26,1.71-35.13,2.09-50.28,1.72,16.12-1.92,33.18-4.45,51.04-7.77Z"/>
    <path class="cls-1" d="m247.67,80.67c-65.89,81.19-170.97,69.52-170.97,69.52,74.11-12.43,98.62-31.39,160.93-87.86,3.97,5.7,7.34,11.85,10.03,18.34Z"/>
    <path class="cls-4" d="m339.07,22.94c-6.88-.98-50.11,4.91-90.4,56.5-.33.41-.66.82-1,1.23-2.69-6.5-6.06-12.64-10.03-18.34.48-.44.96-.87,1.45-1.31,63.38-57.48,99.98-38.08,99.98-38.08Z"/>
    <path class="cls-1" d="m203.33,84.11l-11.05,11.42c-12.15,2.29-25.45,4.27-39.8,5.61-18.26,1.71-35.13,2.09-50.28,1.72,16.12-1.92,33.18-4.45,51.04-7.77,17.74-3.29,34.46-7.03,50.09-10.99Z"/>
    <path class="cls-1" d="m225.67,63.59l-11.05,11.42c-12.43,2.14-25.88,3.99-40.23,5.3-17.88,1.62-34.57,2.17-49.84,2.03,14.74-1.8,30.16-4.08,46.18-6.96,19.46-3.49,37.79-7.51,54.95-11.79Z"/>
  </g>
  <g>
    <path class="cls-3" d="m640.93,205.26h-35.97c12.33-52.8,28.06-103.71,40.73-156.45-6.93-.85-12.58-1.55-20.08-2.47,1.07-4.8,2.05-9.15,3.3-14.72,14.74,0,28.78-.04,42.82.02,6.95.03,10.89,3.52,11.5,10.54.28,3.3.52,6.59.92,11.75,5.46-2.91,9.6-5.23,13.84-7.36,15.31-7.69,30.9-14.57,48.28-15.94,3.88-.31,7.81-.55,11.68-.31,19.36,1.23,29.16,12.82,26.77,32.16-.89,7.22-2.79,14.35-4.62,21.42-9.03,34.92-18.16,69.81-27.34,104.68-1.35,5.13-3.16,10.13-4.99,15.94h-35.81c1.23-5.65,2.05-10.33,3.27-14.91,8.65-32.49,17.42-64.95,26.03-97.46,1.24-4.68,2.36-9.53,2.54-14.33.53-14.2-7.5-22.02-21.79-20.7-16.53,1.53-30.78,9.24-43.56,19.23-3.34,2.61-4.83,8.26-6.06,12.82-9.17,33.87-18.03,67.82-27.05,101.74-1.23,4.64-2.79,9.18-4.38,14.37Z"/>
    <path class="cls-3" d="m571.27,32.22h36.6c-13.94,52.45-27.55,103.65-41.45,155.95,7.51,1.05,13.55,1.89,20.73,2.89-1.3,4.85-2.39,8.91-3.87,14.4-14.92,0-29.42.15-43.93-.08-5.58-.09-8.98-3.55-9.84-9.04-.59-3.76-.69-7.59-1.16-13.13-5.81,3-10.43,5.44-15.1,7.79-17.12,8.61-34.67,15.78-54.27,15.88-23.63.12-34.55-11.93-30.56-35.15,2.48-14.38,6.49-28.51,10.15-42.67,7.21-27.86,14.65-55.66,22.04-83.47,1.11-4.17,2.45-8.28,3.86-13h35.8c-1.14,5.48-1.94,10.52-3.25,15.42-8.53,32.05-17.23,64.05-25.73,96.11-1.37,5.16-2.69,10.49-2.86,15.77-.4,12.52,7.38,20.82,19.77,20.15,17.66-.96,32.88-9.04,46.26-19.94,3.6-2.93,4.81-9.33,6.17-14.39,8.9-32.96,17.52-66,26.28-98.99,1.24-4.67,2.77-9.27,4.35-14.5Z"/>
    <path class="cls-3" d="m251.99,210.04c3.39-14.81,3.39-14.96,15.17-15.03,22.45-.12,44.91.29,67.35-.22,7.66-.17,15.73-1.24,22.83-3.96,20.95-8.03,24.01-29.79,6.57-43.82-7.6-6.11-15.76-11.52-23.3-17.7-25.69-21.07-27.02-46.17-3.85-70.23,11.49-11.93,25.55-19.83,41.57-23.31,22.1-4.8,44.48-2.15,66.68-2.14,1.31,9.24-2.51,12.28-9.7,12.28-11.22,0-22.5-.6-33.66.29-8.61.68-17.8,1.71-25.47,5.28-18.84,8.78-21.11,31.15-5,44.38,7.51,6.18,16.14,10.98,23.89,16.9,21.48,16.43,25.41,35.66,11.69,58.92-13.41,22.74-34.62,34.09-60,37.08-15.41,1.82-31.14,1.08-46.73,1.25-15.54.17-31.08.04-48.03.04Z"/>
  </g>
</svg>