<svg id="Layer_1" height="512" viewBox="0 0 66 66" width="512" xmlns="http://www.w3.org/2000/svg"><g><g><path d="m58.9 59.6 2.7-5.3s-22.6-12.5-28.4 0v5.3" fill="#f3877e"/><path d="m7.4 59.6-2.7-5.3s22.6-12.5 28.4 0v5.3" fill="#f3877e"/><path d="m3.2 60.7v2.3c0 .6.5 1.2 1.2 1.2h57.6c.6 0 1.2-.5 1.2-1.2v-2.3c0-.6-.5-1.2-1.2-1.2h-57.7c-.6.1-1.1.6-1.1 1.2z" fill="#34cba0"/></g><g style="fill:none;stroke:#151f81;stroke-linecap:round;stroke-linejoin:round;stroke-miterlimit:10;stroke-width:1.5"><path d="m58.9 59.6 2.7-5.3s-22.6-12.5-28.4 0v5.3"/><path d="m7.4 59.6-2.7-5.3s22.6-12.5 28.4 0v5.3"/><path d="m3.2 60.7v2.3c0 .6.5 1.2 1.2 1.2h57.6c.6 0 1.2-.5 1.2-1.2v-2.3c0-.6-.5-1.2-1.2-1.2h-57.7c-.6.1-1.1.6-1.1 1.2z"/></g><g><path d="m38.6 37.7 1-5.6c.2-1.7 1-3.2 2.2-4.4 2.4-2.4 3.7-5.8 3.4-9.4-.5-6-5.5-10.8-11.6-11.1-7-.3-12.8 5.2-12.8 12.1 0 3.2 1.3 6.2 3.4 8.4 1.2 1.2 2 2.8 2.2 4.5l1 5.5z" fill="#ffc408"/><path d="m27.4 37.7v3.5c0 3.1 2.5 5.6 5.6 5.6 3.1 0 5.6-2.5 5.6-5.6v-3.5" fill="#d7e8ff"/><path d="m33 12.5 1.9 4 4.4.6-3.2 3 .8 4.3-3.9-2-3.9 2 .8-4.3-3.2-3 4.4-.6z" fill="#fff"/><g style="fill:none;stroke:#151f81;stroke-linecap:round;stroke-linejoin:round;stroke-miterlimit:10;stroke-width:1.5"><path d="m38.6 37.7 1-5.6c.2-1.7 1-3.2 2.2-4.4 2.4-2.4 3.7-5.8 3.4-9.4-.5-6-5.5-10.8-11.6-11.1-7-.3-12.8 5.2-12.8 12.1 0 3.2 1.3 6.2 3.4 8.4 1.2 1.2 2 2.8 2.2 4.5l1 5.5z"/><path d="m27.4 37.7v3.5c0 3.1 2.5 5.6 5.6 5.6 3.1 0 5.6-2.5 5.6-5.6v-3.5"/><path d="m17.5 19.7h-2.4"/><path d="m50.9 19.7h-2.4"/><path d="m33 4.2v-2.4"/><path d="m24 4.1 1.3 2.2"/><path d="m48.5 10.7-2.1 1.2"/><path d="m40.7 6.3 1.3-2.2"/><path d="m46.4 27.4 2.1 1.2"/><path d="m17.5 10.7 2.1 1.2"/><g><path d="m38.6 41.4h2.2"/><path d="m25.2 41.4h2.2"/></g><path d="m33 12.5 1.9 4 4.4.6-3.2 3 .8 4.3-3.9-2-3.9 2 .8-4.3-3.2-3 4.4-.6z"/></g></g><g><path d="m63.5 21.4-10 11.8 3.9 3-2.7 10.4 9.6-11.2-3.8-2.9z" fill="#efeef3"/><path d="m63.5 21.4-10 11.8 3.9 3-2.7 10.4 9.6-11.2-3.8-2.9z" style="fill:none;stroke:#151f81;stroke-linecap:round;stroke-linejoin:round;stroke-miterlimit:10;stroke-width:1.5"/></g><g><g><g><g><path d="m7.4 32.6h.6c1.1 0 2.1-.4 2.9-1.1 1.1-.9 1.9-2.2 2-3.7 0-.3 0-.6 0-.9-.1-.9.6-1.7 1.5-1.7.5 0 1 .3 1.3.7.6 1 1.2 3.2-1.1 6.6h4.7c.7 0 1.3.6 1.3 1.3l-.6 7.6c0 .7-.6 1.3-1.3 1.3h-6.3c-.6 0-1.3-.1-1.8-.4l-.8-.3c-.5-.2-1.8-.4-2.4-.4" fill="#fff"/><path d="m6.4 42.8h-3.6c-.6 0-1-.4-1-1v-9.4c0-.6.4-1 1-1h3.7c.6 0 1 .4 1 1v9.4c-.1.5-.5 1-1.1 1z" fill="#2aabf5"/></g><g style="fill:none;stroke:#151f81;stroke-linecap:round;stroke-linejoin:round;stroke-miterlimit:10;stroke-width:1.5"><path d="m7.4 32.6h.6c1.1 0 2.1-.4 2.9-1.1 1.1-.9 1.9-2.2 2-3.7 0-.3 0-.6 0-.9-.1-.9.6-1.7 1.5-1.7.5 0 1 .3 1.3.7.6 1 1.2 3.2-1.1 6.6h4.7c.7 0 1.3.6 1.3 1.3l-.6 7.6c0 .7-.6 1.3-1.3 1.3h-6.3c-.6 0-1.3-.1-1.8-.4l-.8-.3c-.5-.2-1.8-.4-2.4-.4"/><path d="m6.4 42.8h-3.6c-.6 0-1-.4-1-1v-9.4c0-.6.4-1 1-1h3.7c.6 0 1 .4 1 1v9.4c-.1.5-.5 1-1.1 1z"/></g></g></g></g></g></svg>