<svg xmlns="http://www.w3.org/2000/svg" version="1.1" xmlns:xlink="http://www.w3.org/1999/xlink" width="512" height="512" x="0" y="0" viewBox="0 0 512 512" style="enable-background:new 0 0 512 512" xml:space="preserve" class=""><g><path d="M408.21 148.011c-4.111-12.109-15.565-20.827-29.064-20.827-13.269 0-24.57 8.421-28.855 20.209h-63.597v-64.37c13.254-3.397 23.052-15.421 23.052-29.735 0-14.631-10.241-26.863-23.943-29.94C282.51 9.945 270.419 0 256 0s-26.51 9.945-29.803 23.348c-13.702 3.077-23.943 15.309-23.943 29.94 0 14.313 9.798 26.338 23.052 29.735v64.371h-63.597c-4.285-11.788-15.586-20.209-28.855-20.209-13.498 0-24.953 8.718-29.064 20.827-14.003 2.849-24.542 15.232-24.542 30.077 0 14.353 9.853 26.402 23.163 29.76 1.902 15.126 14.802 26.828 30.443 26.828 15.319 0 28.014-11.223 30.318-25.894h62.133v216.994c-13.254 3.397-23.052 15.421-23.052 29.735 0 14.409 9.931 26.493 23.32 29.796C227.536 500.367 240.406 512 256 512s28.464-11.633 30.426-26.692c13.389-3.303 23.32-15.387 23.32-29.796 0-14.313-9.798-26.338-23.052-29.735V208.783h62.133c2.304 14.671 14.999 25.894 30.318 25.894 15.641 0 28.541-11.703 30.443-26.828 13.311-3.359 23.164-15.408 23.164-29.761 0-14.845-10.539-27.227-24.542-30.077z" fill="#333333" opacity="1" data-original="#000000" class=""></path></g></svg>