<svg id="Capa_1" enable-background="new 0 0 512.002 512.002" height="512" viewBox="0 0 512.002 512.002" width="512" xmlns="http://www.w3.org/2000/svg" xmlns:xlink="http://www.w3.org/1999/xlink"><linearGradient id="SVGID_1_" gradientUnits="userSpaceOnUse" x1="324.727" x2="324.727" y1="512.002" y2="137.45"><stop offset="0" stop-color="#fd5900"/><stop offset="1" stop-color="#ffde00"/></linearGradient><linearGradient id="SVGID_00000141432625006043411410000012639848426787146161_" gradientUnits="userSpaceOnUse" x1="167.446" x2="167.446" y1="334.895" y2="0"><stop offset="0" stop-color="#ffe59a"/><stop offset="1" stop-color="#ffffd5"/></linearGradient><g id="Click_10_"><g><g><path d="m502.127 272.908-344.554-134.551c-5.449-1.992-11.602-.645-15.732 3.486-4.116 4.116-5.479 10.254-3.486 15.732l134.554 344.552c2.124 5.845 7.632 9.771 13.857 9.873 6.148.101 11.831-3.612 14.165-9.434l57.612-144.023 144.023-57.612c5.786-2.314 9.536-7.954 9.434-14.165-.102-6.226-4.028-11.734-9.873-13.858z" fill="url(#SVGID_1_)"/></g></g><g><g><path d="m64.702 193.771-55.444 22.969c-7.646 3.164-11.279 11.938-8.115 19.6 3.168 7.659 11.966 11.276 19.6 8.115l55.444-22.969c7.646-3.164 11.279-11.938 8.115-19.6s-11.997-11.279-19.6-8.115zm269.048-95.214c-3.164-7.646-11.953-11.279-19.6-8.115l-55.444 22.969c-7.646 3.164-11.279 11.938-8.115 19.6 3.168 7.659 11.966 11.276 19.6 8.115l55.444-22.969c7.646-3.165 11.279-11.939 8.115-19.6zm-215.596-89.297c-3.164-7.661-11.938-11.279-19.6-8.115-7.646 3.164-11.279 11.938-8.115 19.6l22.969 55.444c3.168 7.659 11.966 11.276 19.6 8.115 7.646-3.164 11.279-11.938 8.115-19.6zm14.854 241.333c-7.603-3.12-16.421.454-19.6 8.115l-22.969 55.444c-3.164 7.661.469 16.436 8.115 19.6 7.628 3.159 16.429-.451 19.6-8.115l22.969-55.444c3.164-7.662-.469-16.436-8.115-19.6zm103.33-249.448c-7.603-3.164-16.421.454-19.6 8.115l-22.968 55.444c-3.164 7.661.469 16.436 8.115 19.6 7.628 3.159 16.429-.451 19.6-8.115l22.969-55.444c3.163-7.662-.47-16.436-8.116-19.6zm-160.151 112.265-55.445-22.969c-7.588-3.179-16.436.454-19.6 8.115s.469 16.436 8.115 19.6l55.444 22.969c7.628 3.159 16.429-.451 19.6-8.115 3.165-7.661-.468-16.436-8.114-19.6z" fill="url(#SVGID_00000141432625006043411410000012639848426787146161_)"/></g></g></g></svg>