<svg width="103" height="103" viewBox="0 0 103 103" fill="none" xmlns="http://www.w3.org/2000/svg">
<g id="Favourite File">
<path id="Vector" d="M57.9362 12.875L81.5404 37.0156M57.9362 12.875V32.724C57.9362 35.0942 59.8576 37.0156 62.2279 37.0156H81.5404M57.9362 12.875H34.332C27.2214 12.875 21.457 18.6393 21.457 25.75V77.25C21.457 84.3607 27.2214 90.125 34.332 90.125H47.207M81.5404 37.0156V50.6953M57.568 75.7773C54.216 72.4253 54.216 66.9907 57.568 63.6387C60.92 60.2867 66.3547 60.2867 69.7067 63.6387C73.0587 60.2867 78.4934 60.2867 81.8454 63.6387C85.1974 66.9907 85.1974 72.4254 81.8454 75.7773L69.7067 87.916L57.568 75.7773Z" stroke="#B39164" stroke-width="2" stroke-linecap="round" stroke-linejoin="round"/>
</g>
</svg>
