<svg width="99" height="97" viewBox="0 0 99 97" fill="none" xmlns="http://www.w3.org/2000/svg">
<g id="Favourite Desktop">
<path id="Vector" d="M45.375 16.1665H24.75C20.1937 16.1665 16.5 19.7855 16.5 24.2498V56.5832C16.5 61.0475 20.1937 64.6665 24.75 64.6665H74.25C78.8063 64.6665 82.5 61.0475 82.5 56.5832V52.5415M49.5 64.6665V80.8332M33 80.8332H66M63.9982 28.2914C61.1673 25.5176 61.1673 21.0205 63.9982 18.2467C66.8292 15.473 71.4192 15.4732 74.2502 18.2469C77.0812 15.4733 81.6709 15.4734 84.5018 18.2471C87.3327 21.0209 87.3327 25.518 84.5018 28.2918L74.25 38.3364L63.9982 28.2914Z" stroke="#B39164" stroke-width="2" stroke-linecap="round" stroke-linejoin="round"/>
</g>
</svg>
