<svg id="Layer_1" enable-background="new 0 0 512 512" height="512" viewBox="0 0 512 512" width="512" xmlns="http://www.w3.org/2000/svg"><g><g><g><path d="m458.448 99.258-202.448-10.001-5 169.28 5 164.206 202.448-10.001c34.726-44.665 53.552-99.255 53.552-156.742s-18.826-112.077-53.552-156.742z" fill="#efe2dd"/><path d="m0 256c0 57.487 18.826 112.077 53.552 156.742l202.448 10.001v-333.486l-202.448 10.001c-34.726 44.665-53.552 99.255-53.552 156.742z" fill="#faf6f5"/></g><g><path d="m458.448 99.258c-6.58-8.464-13.726-16.574-21.428-24.277-48.352-48.352-112.64-74.981-181.02-74.981l-4 43.598 4 55.66z" fill="#429bdb"/><path d="m53.552 99.258h202.448v-99.258c-68.38 0-132.667 26.629-181.019 74.981-7.703 7.703-14.849 15.813-21.429 24.277z" fill="#12b0ff"/></g><g><path d="m256 512c68.38 0 132.668-26.629 181.02-74.98 7.703-7.703 14.848-15.813 21.428-24.277h-202.448l-5 46.48z" fill="#429bdb"/><path d="m53.552 412.742c6.58 8.464 13.726 16.574 21.429 24.277 48.352 48.352 112.639 74.981 181.019 74.981v-99.258z" fill="#12b0ff"/></g></g><g><g><path d="m343.503 205.48h-58.336l-29.167-50.52-10.833 40.206 10.833 19.795v-.001l11.847 20.52h23.694l-11.847 20.52 11.847 20.52h-23.694l-11.847 20.52v-.001l-10.833 26.128 10.833 33.873 29.167-50.52h58.336l-29.168-50.52z" fill="#429bdb"/><path d="m244.153 276.52h-23.695l11.847-20.52-11.847-20.52h23.695l11.847-20.519v-60.001l-29.168 50.52h-58.336l29.168 50.52-29.167 50.52h58.335l29.168 50.52v-60.001z" fill="#12b0ff"/></g></g></g></svg>