<svg height="469.334pt" viewBox="0 0 469.334 469.334" width="469.334pt" xmlns="http://www.w3.org/2000/svg"><path d="m469.335938 426.667969-320 42.667969-149.335938-42.667969v-384l149.335938-42.667969 320 42.667969zm0 0" fill="#b1581a"/><path d="m0 341.332031h42.667969v21.335938h-42.667969zm0 0" fill="#ba6b33"/><path d="m64 362.667969c50.0625 0 95.417969-43.917969 100.417969-48.917969l3.125-3.125-15.085938-15.082031-3.125 3.125c-.4375.414062-43.164062 42.664062-85.332031 42.664062-42.019531 0-63.125-20.457031-64-21.332031v26.183594c12.988281 7.703125 34.15625 16.484375 64 16.484375zm0 0" fill="#a84400"/><path d="m469.335938 298.667969h-469.335938v-256l149.335938-42.667969 320 42.667969zm0 0" fill="#555754"/><path d="m128 245.332031v-239.238281l-21.332031 6.097656v233.140625c0 25.3125 27.914062 32 42.664062 32l.042969-21.332031c-.230469 0-21.375-.605469-21.375-10.667969zm0 0" fill="#3d3f3c"/><path d="m64 266.667969v-242.285157l-21.332031 6.09375v236.191407c0 11.847656 4.949219 23.09375 10.398437 32h26.3125c-5.976562-6.953125-15.378906-20.332031-15.378906-32zm0 0" fill="#3d3f3c"/><path d="m469.335938 426.667969v-384l-320-42.667969v469.335938zm0 0" fill="#9d3100"/><path d="m277.335938 405.335938h42.664062v21.332031h21.335938v17.066406l128-17.066406v-128h-192zm0 0" fill="#851f00"/><path d="m149.332031 322.214844c25.335938 11.382812 97.214844 40.453125 170.667969 40.453125 69.746094 0 125.890625-26.296875 149.332031-39.242188v-24.765625c-2.753906 1.832032-65.300781 42.671875-149.332031 42.671875-84.375 0-167.1875-40.914062-170.644531-42.664062l-.023438-.011719zm0 0" fill="#851f00"/><path d="m469.335938 298.667969v-256l-320-42.667969v277.335938zm0 0" fill="#2c2e2b"/><path d="m234.667969 11.378906v191.289063c0 46.539062 23.457031 70.539062 24.457031 71.539062l15.144531-15.019531c-.75-.769531-18.269531-19.292969-18.269531-56.519531v-188.445313zm0 0" fill="#242623"/><path d="m341.332031 25.601562v187.730469c0 47.875 24.4375 61.480469 27.230469 62.875l9.792969-18.957031c-.648438-.355469-15.6875-9.355469-15.6875-43.917969v-184.886719zm0 0" fill="#242623"/><path d="m448 39.820312v173.511719c0 38.613281 15.964844 68.628907 21.332031 77.652344v-248.316406zm0 0" fill="#242623"/><path d="m149.335938 192-149.335938 21.335938v-64l149.335938-21.335938zm0 0" fill="#cb8c01"/><path d="m149.335938 192 320 21.335938v-64l-320-21.335938zm0 0" fill="#9e6611"/><path d="m149.332031 277.332031c42.667969 0 64-42.664062 64-64h21.335938s0 64 42.664062 64c42.667969 0 42.667969-64 42.667969-64h21.332031s0 64 42.667969 64 42.667969-64 42.667969-64h21.332031s0 64 21.332031 64v21.335938s-64 42.664062-149.332031 42.664062-170.667969-42.664062-170.667969-42.664062zm0 0" fill="#e0bb69"/><path d="m453.25 294.355469c-15.855469-9.335938-24.730469-32.855469-26.355469-69.898438l21.335938-.914062c1.1875 27.6875 7.125 47.289062 15.851562 52.4375zm0 0" fill="#efddb4"/><path d="m384 298.667969c-41.167969 0-59.730469-38-63.375-73.585938l21.207031-2.164062c1.3125 12.769531 8.230469 54.414062 42.167969 54.414062zm0 0" fill="#efddb4"/><path d="m277.332031 298.667969c-41.164062 0-59.726562-38-63.375-73.585938l21.210938-2.164062c1.3125 12.769531 8.226562 54.414062 42.164062 54.414062zm0 0" fill="#efddb4"/><path d="m213.335938 8.535156v204.800782h21.332031v-201.957032zm0 0" fill="#b37900"/><path d="m320 22.757812v190.578126h21.335938v-187.734376zm0 0" fill="#b37900"/><path d="m213.335938 192v21.335938l21.332031-21.335938v-21.332031zm0 0" fill="#cb8c01"/><path d="m320 192v21.335938l21.335938-21.335938v-21.332031zm0 0" fill="#cb8c01"/><path d="m320 149.335938v21.332031l21.335938-21.332031v-21.335938zm0 0" fill="#cb8c01"/><path d="m320 106.667969v21.332031l21.335938-21.332031v-21.332031zm0 0" fill="#cb8c01"/><path d="m320 64v21.335938l21.335938-21.335938v-21.332031zm0 0" fill="#cb8c01"/><path d="m320 22.757812v19.910157l17.570312-17.570313zm0 0" fill="#cb8c01"/><path d="m213.335938 149.335938v21.332031l21.332031-21.332031v-21.335938zm0 0" fill="#cb8c01"/><path d="m213.335938 106.667969v21.332031l21.332031-21.332031v-21.332031zm0 0" fill="#cb8c01"/><path d="m213.335938 64v21.335938l21.332031-21.335938v-21.332031zm0 0" fill="#cb8c01"/><path d="m224.628906 10.039062-11.292968 11.296876v21.332031l21.332031-21.332031v-9.957032zm0 0" fill="#cb8c01"/><path d="m426.667969 36.976562v176.359376h21.332031v-173.515626zm0 0" fill="#b37900"/><path d="m149.332031 277.332031s-42.664062 0-42.664062-42.664062h-21.335938s0 64-21.332031 64-21.332031-42.667969-21.332031-42.667969h-21.335938s0 42.667969-21.332031 42.667969v21.332031s21.332031 21.332031 64 21.332031 85.332031-42.664062 85.332031-42.664062zm0 0" fill="#e9cf95"/><path d="m136.625 297.394531c-27.332031-5.332031-46.167969-24.164062-50.355469-50.375l21.085938-3.375c3.75 23.625 22.519531 30.6875 33.351562 32.792969zm0 0" fill="#f4e8cc"/><path d="m64 320c-23.0625 0-38.792969-19.542969-42.082031-52.269531l21.207031-2.125c.792969 7.75 4.605469 33.0625 20.875 33.0625zm0 0" fill="#f4e8cc"/><path d="m320 341.332031c-68.6875 0-138.25-28.082031-161.769531-38.539062l-15.0625 1.519531c-14.648438 12.769531-46.710938 37.019531-79.167969 37.019531-31.3125 0-50.855469-11.125-59.730469-17.769531l12.792969-17.082031c5.417969 4.0625 20.875 13.519531 46.9375 13.519531 27.9375 0 58.730469-25.917969 67.5-33.875l2.605469-2.355469 27.6875-2.769531 2.625 1.1875c19.5 8.875 88.394531 37.8125 155.582031 37.8125 65.582031 0 118.605469-27.957031 133.292969-36.519531l10.75 18.414062c-15.855469 9.25-73.105469 39.4375-144.042969 39.4375zm0 0" fill="#e0bb69"/><path d="m320 341.332031c-71.480469 0-143.917969-30.414062-164.417969-39.726562l8.835938-19.417969c19.5 8.875 88.394531 37.8125 155.582031 37.8125 65.582031 0 118.605469-27.957031 133.292969-36.519531l10.75 18.414062c-15.855469 9.25-73.105469 39.4375-144.042969 39.4375zm0 0" fill="#d6a436"/><path d="m85.335938 18.285156v216.382813h21.332031v-222.476563zm0 0" fill="#d6a436"/><path d="m21.335938 36.570312v219.429688h21.332031v-225.523438zm0 0" fill="#d6a436"/><path d="m426.667969 192v21.335938l21.332031-21.335938v-21.332031zm0 0" fill="#cb8c01"/><path d="m426.667969 149.335938v21.332031l21.332031-21.332031v-21.335938zm0 0" fill="#cb8c01"/><path d="m426.667969 106.667969v21.332031l21.332031-21.332031v-21.332031zm0 0" fill="#cb8c01"/><path d="m426.667969 64v21.335938l21.332031-21.335938v-21.332031zm0 0" fill="#cb8c01"/><path d="m426.667969 36.976562v5.691407l5.019531-5.019531zm0 0" fill="#cb8c01"/><g fill="#e0bb69"><path d="m85.335938 213.335938v21.332031l21.332031-21.332031v-21.335938zm0 0"/><path d="m21.335938 234.667969v21.332031l21.332031-21.332031v-21.332031zm0 0"/><path d="m21.335938 192v21.335938l21.332031-21.335938v-21.332031zm0 0"/><path d="m21.335938 149.335938v21.332031l21.332031-21.332031v-21.335938zm0 0"/><path d="m21.335938 106.667969v21.332031l21.332031-21.332031v-21.332031zm0 0"/><path d="m21.335938 64v21.335938l21.332031-21.335938v-21.332031zm0 0"/><path d="m21.335938 36.570312v6.097657l8.53125-8.535157zm0 0"/><path d="m85.335938 170.667969v21.332031l21.332031-21.332031v-21.332031zm0 0"/><path d="m85.335938 128v21.335938l21.332031-21.335938v-21.332031zm0 0"/><path d="m85.335938 85.335938v21.332031l21.332031-21.332031v-21.335938zm0 0"/><path d="m85.335938 42.667969v21.332031l21.332031-21.332031v-21.332031zm0 0"/><path d="m85.335938 18.285156v3.050782l4.265624-4.269532zm0 0"/></g><path d="m42.667969 207.238281 21.332031-3.046875v-64l-21.332031 3.046875zm0 0" fill="#9e6611"/><path d="m128 131.050781-21.332031 3.042969v64l21.332031-3.042969zm0 0" fill="#9e6611"/><path d="m362.667969 142.222656-21.332031-1.421875v64l21.332031 1.421875zm0 0" fill="#885400"/><path d="m448 211.910156 21.335938 1.425782v-64l-21.335938-1.425782zm0 0" fill="#885400"/><path d="m234.667969 197.6875 21.332031 1.421875v-64l-21.332031-1.421875zm0 0" fill="#885400"/><path d="m192 384h42.667969v21.332031h-42.667969zm0 0" fill="#a84400"/><path d="m256 405.332031h42.667969v21.335938h-42.667969zm0 0" fill="#a84400"/><path d="m256 362.667969h42.667969v21.332031h-42.667969zm0 0" fill="#a84400"/><path d="m277.332031 362.667969h21.335938v21.332031h-21.335938zm0 0" fill="#9d3100"/><path d="m170.667969 426.667969h42.664062v21.332031h-42.664062zm0 0" fill="#a84400"/><path d="m149.332031 384h21.335938v21.332031h-21.335938zm0 0" fill="#a84400"/><path d="m320 362.667969h42.667969v21.332031h-42.667969zm0 0" fill="#9d3100"/><path d="m341.332031 405.332031h42.667969v21.335938h-42.667969zm0 0" fill="#9d3100"/><path d="m384 362.667969h42.667969v21.332031h-42.667969zm0 0" fill="#9d3100"/><path d="m405.332031 405.332031h42.667969v21.335938h-42.667969zm0 0" fill="#9d3100"/><path d="m448 341.332031h21.332031v21.335938h-21.332031zm0 0" fill="#9d3100"/><path d="m149.332031 341.332031h42.667969v21.335938h-42.667969zm0 0" fill="#a84400"/><path d="m106.667969 362.667969h42.664062v21.332031h-42.664062zm0 0" fill="#ba6b33"/><path d="m85.332031 405.332031h42.667969v21.335938h-42.667969zm0 0" fill="#ba6b33"/><path d="m21.332031 384h42.667969v21.332031h-42.667969zm0 0" fill="#ba6b33"/><path d="m128 448v15.238281l21.335938 6.097657v-21.335938zm0 0" fill="#ba6b33"/></svg>