<svg xmlns="http://www.w3.org/2000/svg" version="1.1" xmlns:xlink="http://www.w3.org/1999/xlink" width="512" height="512" x="0" y="0" viewBox="0 0 64 64" style="enable-background:new 0 0 512 512" xml:space="preserve" class=""><g><path d="m43 55.01 4-1.43v-9.4l-4 .67z" fill="#333333" opacity="1" data-original="#000000" class=""></path><path d="M5 26.87v2.06l1.92-.14a.998.998 0 1 1 .14 1.99L5 30.93V49.3l27 9.64 9-3.22V44a1 1 0 0 1 .84-.99l6-1A1.008 1.008 0 0 1 49 43v9.87l10-3.57V30.93l-2.06-.15a1 1 0 0 1-.93-1.07.986.986 0 0 1 1.07-.92l1.92.14v-2.06l-27-3.86zm13.18 3.12c-.08 0-5.55.41-5.63.4a1.002 1.002 0 0 1-.07-2l5.56-.39a.998.998 0 0 1 .14 1.99zm11.11-.79c-.08 0-5.55.4-5.63.4a1.002 1.002 0 0 1-.07-2l5.56-.4a1.003 1.003 0 0 1 .14 2zm16.67-1.21 5.56.4a1.002 1.002 0 0 1-.07 2h-.07l-5.56-.4a1.003 1.003 0 0 1 .14-2zm-11.11-.79 5.56.4a.998.998 0 0 1-.15 1.99l-5.55-.39a1.003 1.003 0 0 1 .14-2zM32 5.06 5 14.7v6.06l26.79-5.74a.991.991 0 0 1 .42 0L59 20.76V14.7z" fill="#333333" opacity="1" data-original="#000000" class=""></path><path d="M5 22.81v2.04C5.13 24.84 31.75 21 32 21c.22 0 26.83 3.83 27 3.85v-2.04l-27-5.79z" fill="#333333" opacity="1" data-original="#000000" class=""></path></g></svg>