<svg id="Layer_1" enable-background="new 0 0 68 68" viewBox="0 0 68 68" xmlns="http://www.w3.org/2000/svg"><g><g><g><path d="m33.99971 21.6408c-.41406 0-.75-.33594-.75-.75v-5.05957c0-.41406.33594-.75.75-.75s.75.33594.75.75v5.05957c0 .41406-.33593.75-.75.75z" fill="#666"/></g></g><g><g><g><g><path d="m57.87485 7.35467c-.41897 0-.75889-.33992-.75889-.75889v-3.83696c0-.41897.33992-.75889.75889-.75889s.75889.33992.75889.75889v3.83696c0 .41897-.33992.75889-.75889.75889z" fill="#f93"/></g></g></g><g><g><path d="m54.60283 8.81512c0-1.81289 1.45925-3.28133 3.27214-3.28133s3.27237 1.46844 3.27237 3.28133v2.93257h-6.54451z" fill="#ffeaa9"/></g></g><g><g><path d="m54.603 15.126h6.545v22.388h-6.545z" fill="#ffeaa9"/></g></g><g><g><path d="m57.875 15.126h3.272v22.388h-3.272z" fill="#f9da93"/></g></g><g><g><path d="m62.80732 13.43706c0 .93302-.75636 1.68938-1.68937 1.68938h-6.48571c-.93302 0-1.68937-.75636-1.68937-1.68937 0-.93301.75636-1.68937 1.68937-1.68937h6.48571c.93301-.00001 1.68937.75635 1.68937 1.68936z" fill="#f93"/></g></g><g><g><g><path d="m54.603 29.302h6.544v1.5h-6.544z" fill="#666"/></g></g><g><g><path d="m54.603 21.839h6.544v1.5h-6.544z" fill="#666"/></g></g></g><g><g><path d="m57.8752 38.26482c-.41406 0-.75-.33594-.75-.75v-3.19629c0-.41406.33594-.75.75-.75s.75.33594.75.75v3.19629c0 .41407-.33594.75-.75.75z" fill="#666"/></g></g><g><g><path d="m57.8752 30.80193c-.41406 0-.75-.33594-.75-.75v-3.19629c0-.41406.33594-.75.75-.75s.75.33594.75.75v3.19629c0 .41407-.33594.75-.75.75z" fill="#666"/></g></g><g><g><path d="m57.8752 23.33904c-.41406 0-.75-.33594-.75-.75v-3.19629c0-.41406.33594-.75.75-.75s.75.33594.75.75v3.19629c0 .41407-.33594.75-.75.75z" fill="#666"/></g></g></g><g><g><g><g><path d="m10.12584 7.35467c-.41897 0-.75889-.33992-.75889-.75889v-3.83696c0-.41897.33992-.75889.75889-.75889s.75889.33992.75889.75889v3.83696c0 .41897-.33992.75889-.75889.75889z" fill="#f93"/></g></g></g><g><g><path d="m6.85345 8.81512c0-1.81289 1.45925-3.28133 3.27215-3.28133s3.27237 1.46844 3.27237 3.28133v2.93257h-6.54452z" fill="#ffeaa9"/></g></g><g><g><path d="m6.853 15.126h6.545v22.388h-6.545z" fill="#ffeaa9"/></g></g><g><g><path d="m10.126 15.126h3.272v22.388h-3.272z" fill="#f9da93"/></g></g><g><g><path d="m15.05794 13.43706c0 .93302-.75636 1.68938-1.68937 1.68938h-6.48572c-.93301 0-1.68937-.75636-1.68937-1.68937 0-.93301.75636-1.68937 1.68937-1.68937h6.48571c.93302-.00001 1.68938.75635 1.68938 1.68936z" fill="#f93"/></g></g><g><g><g><path d="m6.853 29.302h6.545v1.5h-6.545z" fill="#666"/></g></g><g><g><path d="m6.853 21.839h6.545v1.5h-6.545z" fill="#666"/></g></g></g><g><g><path d="m10.12569 38.26482c-.41406 0-.75-.33594-.75-.75v-3.19629c0-.41406.33594-.75.75-.75s.75.33594.75.75v3.19629c0 .41407-.33594.75-.75.75z" fill="#666"/></g></g><g><g><path d="m10.12569 30.80193c-.41406 0-.75-.33594-.75-.75v-3.19629c0-.41406.33594-.75.75-.75s.75.33594.75.75v3.19629c0 .41407-.33594.75-.75.75z" fill="#666"/></g></g><g><g><path d="m10.12569 23.33904c-.41406 0-.75-.33594-.75-.75v-3.19629c0-.41406.33594-.75.75-.75s.75.33594.75.75v3.19629c0 .41407-.33594.75-.75.75z" fill="#666"/></g></g></g><g><g><g><path d="m4.73 41.203h15.849v20.749h-15.849z" fill="#f93"/></g></g><g><g><path d="m7.83272 51.63543c-.20703 0-.375-.16797-.375-.375v-7c0-.20703.16797-.375.375-.375s.375.16797.375.375v7c0 .20703-.16797.375-.375.375z" fill="#fff"/></g></g><g><g><path d="m16.86299 41.20317v4.56269c0 6.70065-5.43206 12.1326-12.13266 12.1326v4.0541h15.84931v-20.74939z" fill="#ff8b22"/></g></g></g><g><g><g><path d="m47.42 41.203h15.849v20.749h-15.849z" fill="#f93"/></g></g><g><g><path d="m59.55296 41.20317v4.56269c0 6.70065-5.43182 12.1326-12.13266 12.1326v4.0541h15.84931v-20.74939z" fill="#ff8b22"/></g></g></g><g><g><path d="m63.78147 41.20317h-59.56297c-1.01569 0-1.83906-.82338-1.83906-1.83907v-.01134c0-1.01569.82338-1.83907 1.83906-1.83907h59.56297c1.01569 0 1.83907.82338 1.83907 1.83907v.01134c0 1.0157-.82338 1.83907-1.83907 1.83907z" fill="#fc3"/></g></g><g><g><path d="m63.78147 37.5137h-4.27026v3.68948h4.27026c1.01569 0 1.83906-.82337 1.83906-1.83905v-.01136c0-1.0157-.82337-1.83907-1.83906-1.83907z" fill="#fcb910"/></g></g><g><g><path d="m16.866 37.514h6.281v3.689h-6.281z" fill="#fcb910"/></g></g><g><g><path d="m65.99865 63.97636v1.01186c0 .55884-.45303 1.01186-1.01186 1.01186h-61.97493c-.55884-.00001-1.01186-.45303-1.01186-1.01187v-1.01186c0-1.11767.90605-2.02372 2.02372-2.02372h59.95121c1.11767.00001 2.02372.90606 2.02372 2.02373z" fill="#77e244"/></g></g><g><g><path d="m66 63.97485v1.01186c0 .55883-.45303 1.01186-1.01186 1.01186h-9.64541v-2.52964c0-.83986-.67786-1.51778-1.51778-1.51778h10.15133c1.11767-.00001 2.02372.90604 2.02372 2.0237z" fill="#62d333"/></g></g><g><g><path d="m20.583 37.978h26.835v23.975h-26.835z" fill="#ffeaa9"/></g></g><g><g><path d="m25.10079 41.5783h-1.05859c-.20703 0-.375-.16797-.375-.375s.16797-.375.375-.375h1.05859c.20703 0 .375.16797.375.375s-.16797.375-.375.375z" fill="#fff"/></g></g><g><g><path d="m36.0378 41.5783h-8.33887c-.20703 0-.375-.16797-.375-.375s.16797-.375.375-.375h8.33887c.20703 0 .375.16797.375.375s-.16797.375-.375.375z" fill="#fff"/></g></g><g><g><path d="m42.84367 37.97751v2.24492c0 12.29428-9.96649 17.16999-22.26078 17.16999h-.00002v4.56017h26.83423v-23.97508z" fill="#f9da93"/></g></g><g><g><path d="m47.41724 33.82751h-26.83368c0-7.43318 5.9832-13.45404 13.41638-13.45404s13.4173 6.02086 13.4173 13.45404z" fill="#ffeaa9"/></g></g><g><g><path d="m47.42026 33.82262h-26.84055c0-1.17658.15498-2.31433.43938-3.38738h12.71926c4.8952 0 7.56396-5.92398 4.14734-9.42964l-.07188-.07319c5.55952 1.62906 9.60645 6.77476 9.60645 12.89021z" fill="#f9da93"/></g></g><g><g><g><path d="m39.23119 50.57204v11.37675h-10.4624v-11.37675c0-2.88911 2.34209-5.2312 5.2312-5.2312h.00001c2.8891 0 5.23119 2.34209 5.23119 5.2312z" fill="#666"/></g></g><g><g><path d="m38.77085 48.42891c-.65971-.29734-1.38349-.46542-2.14641-.46542-2.88313 0-5.22335 2.35308-5.22335 5.23622v8.75293h-2.63756v-11.37747c0-2.89616 2.35316-5.23629 5.23629-5.23629 1.4482 0 2.75404.58182 3.69783 1.53855.45232.43961.81437.96967 1.0732 1.55148z" fill="#595857"/></g></g></g><g><g><g><path d="m59.29485 61.95264v-7.86141c0-2.18034-1.76749-3.94783-3.94788-3.94783-2.18028 0-3.94788 1.76749-3.94788 3.94783v7.86141z" fill="#666"/></g></g><g><g><path d="m53.38567 61.95264v-5.87837c0-2.17584 1.76616-3.95166 3.94189-3.95166.57584 0 1.12205.12687 1.61987.35125-.19535-.43904-.46862-.83907-.80982-1.17083-.71237-.72203-1.69778-1.16112-2.79065-1.16112-2.17595 0-3.95177 1.76604-3.95177 3.95171v7.85903h1.99048z" fill="#595857"/></g></g></g><g><g><g><path d="m16.60479 61.95264v-7.86141c0-2.18034-1.76749-3.94783-3.94788-3.94783-2.18028 0-3.94788 1.76749-3.94788 3.94783v7.86141z" fill="#666"/></g></g><g><g><path d="m10.69562 61.95264v-5.87837c0-2.17584 1.76616-3.95166 3.94189-3.95166.57584 0 1.12205.12687 1.61987.35125-.19535-.43904-.46862-.83907-.80982-1.17083-.71237-.72203-1.69779-1.16112-2.79065-1.16112-2.17595 0-3.95177 1.76604-3.95177 3.95171v7.85903h1.99048z" fill="#595857"/></g></g></g><g><g><path d="m48.19634 37.97755h-28.39189c-1.14248 0-2.06864-.92616-2.06864-2.06863v-.01276c0-1.14248.92616-2.06864 2.06864-2.06864h28.39189c1.14248 0 2.06863.92616 2.06863 2.06864v.01276c.00001 1.14247-.92615 2.06863-2.06863 2.06863z" fill="#666"/></g></g><g><g><path d="m50.26319 35.8958v.01013c0 1.14341-.9207 2.0743-2.06423 2.0743h-6.79966c1.14353 0 2.06423-.93089 2.06423-2.0743v-.01013c0-1.14341-.9207-2.06417-2.06423-2.06417h6.79966c1.14353 0 2.06423.92077 2.06423 2.06417z" fill="#595857"/></g></g><g><g><path d="m26.67256 28.41131c-.08105 0-.1626-.02637-.23145-.08008-.1626-.12793-.19092-.36377-.06299-.52686 1.479-1.88086 3.58447-3.14355 5.92822-3.55518.20703-.03418.39844.10059.43408.3042.03613.2041-.1001.39844-.3042.43408-2.16162.37988-4.10401 1.54492-5.46826 3.28076-.07421.09376-.18407.14308-.2954.14308z" fill="#fff"/></g></g><g><g><path d="m41.0836 11.93603c.31332-.25851.78018.09634.62415.47137-1.02661 2.46747-3.46233 4.19847-6.30354 4.19847-3.76422 0-6.83718-3.05666-6.83718-6.83718 0-2.84014 1.72996-5.26423 4.17817-6.29677.3746-.15799.73218.30723.47543.62244-.78592.96486-1.25897 2.19458-1.25897 3.53467 0 3.08877 2.50974 5.58231 5.58231 5.58231 1.33908 0 2.5759-.48017 3.53963-1.27531z" fill="#f93"/></g></g><g><g><path d="m22.12959 63.88885h-12.14208c-.20703 0-.375-.16797-.375-.375s.16797-.375.375-.375h12.14209c.20703 0 .375.16797.375.375s-.16797.375-.37501.375z" fill="#fff"/></g></g></g></svg>