<svg id="Icons" viewBox="0 0 60 60" xmlns="http://www.w3.org/2000/svg"><path d="m5 59 19.243-4.811c.445-.111.757-.511.757-.97v-40.51c0-.425-.269-.803-.67-.944l-19.33-6.765h-1s0 53 0 53z" fill="#7c4d39"/><ellipse cx="19" cy="30.5" fill="#f7b930" rx="2" ry="2.5"/><path d="m55 59-19.243-4.811c-.445-.111-.757-.511-.757-.97v-40.51c0-.425.269-.803.67-.944l19.33-6.766h1s0 53 0 53l-1 1z" fill="#7c4d39"/><path d="m59 4v54c0 .552-.448 1-1 1h-3v-53c0-.552-.448-1-1-1h-48c-.552 0-1 .448-1 1v53h-3c-.552 0-1-.448-1-1v-54c0-1.657 1.343-3 3-3h52c1.657 0 3 1.343 3 3z" fill="#ddd"/><ellipse cx="41" cy="30.5" fill="#f7b930" rx="2" ry="2.5"/><g fill="#262626"><path d="m2 60h3c.084 0 .16-.028.238-.048l.004.018 19.242-4.811c.893-.223 1.516-1.021 1.516-1.94v-40.509c0-.849-.538-1.607-1.34-1.889l-13.775-4.821h38.23l-13.776 4.822c-.801.28-1.339 1.039-1.339 1.888v40.509c0 .92.623 1.718 1.516 1.94l19.242 4.811.004-.018c.078.02.153.048.238.048h3c1.103 0 2-.897 2-2v-54c0-2.206-1.794-4-4-4h-52c-2.206 0-4 1.794-4 4v4c0 .553.447 1 1 1s1-.447 1-1v-4c0-1.103.897-2 2-2h52c1.103 0 2 .897 2 2v54h-2v-52c0-.857-.544-1.583-1.303-1.868l-.027-.077-.103.036c-.181-.054-.369-.092-.567-.092h-48c-.198 0-.386.038-.567.092l-.103-.036-.027.077c-.759.284-1.303 1.011-1.303 1.868v52h-2v-46c0-.553-.447-1-1-1s-1 .447-1 1v46c0 1.103.897 2 2 2zm34-47.29 18-6.3v51.31l-18-4.501zm-12 40.51-18 4.5v-51.31l18 6.3z"/><path d="m19 34c1.654 0 3-1.57 3-3.5s-1.346-3.5-3-3.5-3 1.57-3 3.5 1.346 3.5 3 3.5zm0-5c.532 0 1 .701 1 1.5s-.468 1.5-1 1.5-1-.701-1-1.5.468-1.5 1-1.5z"/><path d="m41 27c-1.654 0-3 1.57-3 3.5s1.346 3.5 3 3.5 3-1.57 3-3.5-1.346-3.5-3-3.5zm0 5c-.532 0-1-.701-1-1.5s.468-1.5 1-1.5 1 .701 1 1.5-.468 1.5-1 1.5z"/></g></svg>