<svg id="Layer_1" height="512" viewBox="0 0 512 512" width="512" xmlns="http://www.w3.org/2000/svg"><g><path d="m494.981 169.758h-375.874l-78.095-49.082c44.985-71.311 124.442-118.676 214.988-118.676 110.018 0 203.676 69.933 238.981 167.758z"/><path d="m510 256c0 30.646-5.425 60.035-15.373 87.229h-371.352l135.904-85.426-140.072-88.045h375.874c9.73 26.922 15.019 55.97 15.019 86.242z" fill="#f1f2f2"/><path d="m494.627 343.229c-35.58 97.313-128.982 166.771-238.627 166.771-89.44 0-168.082-46.226-213.337-116.09l80.612-50.681z" fill="#39b54a"/><path d="m17.363 343.229h-.357" fill="none"/><g fill="#ed1c24"><path d="m259.18 257.803-135.904 85.426h-105.903c-9.95-27.194-15.373-56.583-15.373-87.229 0-30.272 5.287-59.32 15.017-86.242h102.091z"/><path d="m119.107 169.758h-102.09c6.241-17.313 14.319-33.759 23.996-49.082z"/><path d="m123.275 343.229-80.612 50.681c-10.222-15.766-18.742-32.755-25.29-50.681z"/></g></g></svg>