<svg width="105" height="103" viewBox="0 0 105 103" fill="none" xmlns="http://www.w3.org/2000/svg">
<g id="Thumbs Up">
<g id="Vector">
<path d="M13.1248 42.9167C13.1248 40.5464 15.0835 38.625 17.4998 38.625L30.6248 38.625L30.6248 90.125L17.4998 90.125C15.0835 90.125 13.1248 88.2035 13.1248 85.8333L13.1248 42.9167Z" stroke="#B39164" stroke-width="2"/>
<path d="M40.4433 87.9626L30.6248 81.5417L30.6248 47.2083L34.5246 47.2083C36.1602 47.2083 37.6592 46.3134 38.4106 44.8883L51.2392 20.5587C54.6647 14.0622 64.7262 17.3111 63.5482 24.5333L62.0604 33.6553C61.6351 36.2628 63.6884 38.625 66.3804 38.625L81.114 38.625C86.6642 38.625 90.8121 43.6288 89.6801 48.9589L83.114 79.8759C81.846 85.8463 76.4818 90.125 70.2649 90.125L47.7237 90.125C45.1325 90.125 42.5993 89.3726 40.4433 87.9626Z" stroke="#B39164" stroke-width="2"/>
</g>
</g>
</svg>
