<svg id="Capa_1" enable-background="new 0 0 512.068 512.068" height="512" viewBox="0 0 512.068 512.068" width="512" xmlns="http://www.w3.org/2000/svg"><path d="m455.68 412.583-108.375-108.375h-105.469v-60.754h106.285c16.568 0 30-13.431 30-30 0-16.568-13.432-30-30-30h-106.285v-28.622c0-16.347-12.817-30.165-29.157-30.613-16.954-.465-30.843 13.14-30.843 29.989v190c0 11.046 8.954 20 20 20h120.616l90.802 90.802c11.716 11.715 30.711 11.715 42.426 0 11.715-11.716 11.715-30.711 0-42.427z"/><ellipse cx="213.539" cy="47.466" rx="47.466" ry="47.466" transform="matrix(.23 -.973 .973 .23 118.282 244.387)"/><path d="m329.981 414.164c-23.359 40.548-67.151 67.904-117.212 67.904-74.531 0-135.167-60.635-135.167-135.166 0-52.623 30.231-98.313 74.234-120.631v-32.885c-61.004 24.3-104.234 83.953-104.234 153.516 0 91.073 74.094 165.166 165.167 165.166 58.292 0 109.626-30.355 139.03-76.087z"/></svg>