<svg xmlns="http://www.w3.org/2000/svg" xml:space="preserve" width="512" height="512" style="enable-background:new 0 0 512 512" viewBox="0 0 32 32"><path fill="#0b2f6a" d="M15 6v6a2.981 2.981 0 0 1-.44 1.56A3.012 3.012 0 0 1 12 15H6a3.009 3.009 0 0 1-3-3V6a3.012 3.012 0 0 1 1.44-2.56A2.981 2.981 0 0 1 6 3h6a3.009 3.009 0 0 1 3 3zm14 0v6a2.981 2.981 0 0 1-.44 1.56A3.012 3.012 0 0 1 26 15h-6a3.009 3.009 0 0 1-3-3V6a3.012 3.012 0 0 1 1.44-2.56A2.981 2.981 0 0 1 20 3h6a3.009 3.009 0 0 1 3 3zM15 20v6a2.981 2.981 0 0 1-.44 1.56A3.012 3.012 0 0 1 12 29H6a3.009 3.009 0 0 1-3-3v-6a3.012 3.012 0 0 1 1.44-2.56A2.981 2.981 0 0 1 6 17h6a3.009 3.009 0 0 1 3 3z" data-original="#156cdd"/><path fill="#ffd220" d="M29 20v6a2.981 2.981 0 0 1-.44 1.56A3.012 3.012 0 0 1 26 29h-6a3.009 3.009 0 0 1-3-3v-6a3.012 3.012 0 0 1 1.44-2.56A2.981 2.981 0 0 1 20 17h6a3.009 3.009 0 0 1 3 3z" data-original="#ccd8e5"/><path fill="#0b2f6a" d="M15 6v6a2.981 2.981 0 0 1-.44 1.56A2.981 2.981 0 0 1 13 14H7a3.009 3.009 0 0 1-3-3V5a2.981 2.981 0 0 1 .44-1.56A2.981 2.981 0 0 1 6 3h6a3.009 3.009 0 0 1 3 3zm14 0v6a2.981 2.981 0 0 1-.44 1.56A2.981 2.981 0 0 1 27 14h-6a3.009 3.009 0 0 1-3-3V5a2.981 2.981 0 0 1 .44-1.56A2.981 2.981 0 0 1 20 3h6a3.009 3.009 0 0 1 3 3zM15 20v6a2.981 2.981 0 0 1-.44 1.56A2.981 2.981 0 0 1 13 28H7a3.009 3.009 0 0 1-3-3v-6a2.981 2.981 0 0 1 .44-1.56A2.981 2.981 0 0 1 6 17h6a3.009 3.009 0 0 1 3 3z" data-original="#0795ff"/><path fill="#ffd220" d="M29 20v6a2.981 2.981 0 0 1-.44 1.56A2.981 2.981 0 0 1 27 28h-6a3.009 3.009 0 0 1-3-3v-6a2.981 2.981 0 0 1 .44-1.56A2.981 2.981 0 0 1 20 17h6a3.009 3.009 0 0 1 3 3z" data-original="#dfe8f4"/></svg>