<svg xmlns="http://www.w3.org/2000/svg" xml:space="preserve" width="512" height="512" style="enable-background:new 0 0 512 512" viewBox="0 0 500 500"><path fill="#0b2f6a" fill-rule="evenodd" d="m209.827 310.61.008.003-1.373 4.238c-.94 2.901 2.419 5.457 4.956 3.607l36.052-26.299a.891.891 0 0 1 1.064 0l35.706 26.047.025.019c3.043 2.384 6.208-.594 5.301-3.368l-13.867-42.403a.891.891 0 0 1 .329-1.012l32.503-23.52-.007-.01 3.628-2.633c2.523-1.832 1.224-5.848-1.882-5.842l-44.622.086a.891.891 0 0 1-.861-.625L253.098 196.5c-.997-3.088-5.221-3.015-6.178-.05l-13.702 42.447a.89.89 0 0 1-.861.625l-44.204-.085-.028-.001c-3.841-.128-4.667 4.131-2.288 5.853l36.139 26.151a.891.891 0 0 1 .329 1.012zm-98.765 116.602v-23.658a.905.905 0 0 0-.903-.903H69.045c-.363 0-.674.201-.823.532s-.094.697.147.969l17.593 19.895a6.748 6.748 0 0 1 .024 8.967l-17.617 19.922c-.241.272-.296.638-.147.969s.46.532.823.532h78.368a.905.905 0 0 0 .903-.903v-11.413a.905.905 0 0 0-.903-.903h-22.345c-7.717 0-14.006-6.288-14.006-14.006zm277.876 0c0 7.717-6.289 14.006-14.005 14.006h-22.346a.905.905 0 0 0-.903.903v11.413c0 .497.405.903.903.903h78.368c.363 0 .674-.201.823-.532s.094-.697-.147-.969l-17.617-19.922a6.747 6.747 0 0 1 .024-8.967l17.593-19.895c.241-.272.296-.638.147-.969s-.46-.532-.823-.532h-41.114a.905.905 0 0 0-.903.903zm-49.427-39.72a26.403 26.403 0 0 0 1.79-3.754.887.887 0 0 1 .843-.579h32.415c.249 0 .462.089.638.264l.197.197v43.218a.875.875 0 0 1-.264.638l-.198.198H125.441a.873.873 0 0 1-.639-.265l-.197-.198v-43.218c0-.248.089-.462.264-.638l.197-.197h32.79c.381 0 .706.224.842.58 5.69 14.835 23.834 22.229 38.784 13.597l-.007-.011 6.756-3.885c6.408-3.705 14.746-1.481 18.466 4.961l.011-.006c3.96 6.858 6.445 12.497 13.729 16.702l.007-.011c12.623 7.377 29.317 3.303 36.96-9.935l-.012-.007 4.113-7.085.006-.012c3.308-5.897 12.116-8.25 17.914-4.797a.075.075 0 0 0 .012.007l6.721 3.858.026.015c12.977 8.028 29.969 3.107 37.327-9.637zm-75.95-283.497c7.284 4.205 9.769 9.844 13.729 16.702l.011-.007c3.591 6.219 11.51 8.529 17.849 5.296a.875.875 0 0 0 .47-.603L309.784 63.4a.885.885 0 0 0-.307-.899.887.887 0 0 0-.942-.126l-35.732 16.022a6.76 6.76 0 0 1-8.941-3.386l-13.04-28.917c-.149-.331-.46-.532-.823-.532s-.674.201-.823.532l-13.04 28.917-.01-.005a6.75 6.75 0 0 1-8.904 3.39l-35.758-16.022a.883.883 0 0 0-.942.126.885.885 0 0 0-.308.899l14.164 61.984c.062.27.223.478.47.603 6.329 3.227 14.245.939 17.849-5.296l3.908-6.742-.011-.007c4.915-8.513 13.596-13.524 23.406-13.524 4.765 0 9.658 1.261 13.555 3.589zM162.522 347.024c-4.898-4.897-11.661-7.934-19.114-7.934h-7.793c-10.63 0-16.865-11.344-11.714-20.256l3.885-6.756.011.007c7.459-12.92 3.031-29.46-9.881-36.928l-6.756-3.885.007-.012c-2.184-1.261-3.886-2.947-5.027-4.924-2.325-3.91-2.282-9.635-.011-13.586l.011.006c1.141-1.977 2.843-3.663 5.027-4.924l6.743-3.907.006.011c12.909-7.453 17.343-24.034 9.881-36.928l-3.908-6.743.012-.007c-5.153-8.925 1.093-20.257 11.714-20.257h7.793c14.906 0 27.048-12.142 27.048-27.047v-7.793c0-10.647 11.365-16.862 20.283-11.714l6.729 3.885-.007.011c12.921 7.46 29.468 3.028 36.929-9.881l3.885-6.755.011.007c1.261-2.184 2.947-3.886 4.924-5.027 3.91-2.325 9.634-2.283 13.586-.011l-.006.011c1.977 1.141 3.663 2.843 4.924 5.027l3.908 6.742-.011.007c7.452 12.906 24.021 17.344 36.929 9.881l6.723-3.896c8.918-5.148 20.283 1.067 20.283 11.714v7.793c0 14.906 12.142 27.047 27.048 27.047h7.793c10.613 0 16.869 11.353 11.714 20.283l-3.885 6.73-.011-.007c-7.459 12.92-3.031 29.46 9.881 36.928l6.756 3.885-.007.011c2.184 1.261 3.886 2.947 5.027 4.924 2.326 3.914 2.281 9.636.011 13.586l-.011-.007c-1.141 1.977-2.843 3.663-5.027 4.924l-6.743 3.908-.006-.011c-12.909 7.454-17.343 24.035-9.881 36.928l3.897 6.723c5.148 8.918-1.067 20.283-11.714 20.283h-7.793c-14.906 0-27.048 12.142-27.048 27.048v7.793c0 10.629-11.344 16.865-20.256 11.714l-6.756-3.885.007-.011c-12.921-7.46-29.463-3.03-36.929 9.881l-3.885 6.756-.011-.007c-1.261 2.184-2.947 3.886-4.924 5.027-3.915 2.327-9.638 2.281-13.587.011l.007-.011c-1.977-1.141-3.663-2.843-4.924-5.027l-3.57-6.157-.021-.038c-3.403-6.584-9.998-11.331-16.721-13.133a26.961 26.961 0 0 0-20 2.409l-.018.01-7.238 4.187-.007-.012c-8.925 5.153-20.256-1.093-20.256-11.714v-7.793c-.002-7.453-3.039-14.216-7.936-19.114zm155.111-19.845c-37.354 37.355-97.913 37.354-135.267 0s-37.354-97.913 0-135.267 97.913-37.354 135.267 0 37.355 97.913 0 135.267z" clip-rule="evenodd" data-original="#000000"/></svg>