<svg xmlns="http://www.w3.org/2000/svg" width="512" height="512" viewBox="0 0 500 500" style="enable-background:new 0 0 512 512" xml:space="preserve"><g fill="#0b2f6a"><path d="M250 390.93c-3.71 0-7.422-1.415-10.253-4.246l-126.43-126.431c-5.664-5.662-5.664-14.843 0-20.506 5.661-5.663 14.843-5.663 20.505 0l126.431 126.43c5.663 5.663 5.663 14.844 0 20.507A14.456 14.456 0 0 1 250 390.93z" data-original="#27a30d"/><path d="M250 390.93c-3.71 0-7.422-1.415-10.253-4.246-5.663-5.663-5.663-14.844 0-20.506l126.43-126.431c5.663-5.663 14.845-5.663 20.507 0 5.663 5.663 5.663 14.844 0 20.506l-126.431 126.43A14.455 14.455 0 0 1 250 390.932zm0-126.43c-3.71 0-7.422-1.416-10.253-4.247l-126.43-126.43c-5.664-5.663-5.664-14.843 0-20.506 5.661-5.663 14.843-5.663 20.505 0l126.431 126.43c5.663 5.663 5.663 14.844 0 20.506A14.455 14.455 0 0 1 250 264.5z" data-original="#0a420a"/><path d="M250 264.5a14.45 14.45 0 0 1-10.253-4.247c-5.663-5.662-5.663-14.843 0-20.506l126.43-126.43c5.663-5.663 14.845-5.662 20.507 0 5.663 5.662 5.663 14.843 0 20.506l-126.431 126.43A14.456 14.456 0 0 1 250 264.5z" data-original="#27a30d"/></g></svg>