<svg xmlns="http://www.w3.org/2000/svg" width="512" height="512" viewBox="0 0 512.001 512.001" style="enable-background:new 0 0 512 512" xml:space="preserve"><g fill="#0b2f6a"><path d="M161.81 66.39S109.05-4.474 49.911 61.243c-1.822 2.025-.004 5.211 2.658 4.687 16.378-3.225 52.873-6.827 71.606 19.462 0 0-106.273-26.986-121.657 79.275-.893 6.164 6.149 10.331 11.123 6.586 17.864-13.45 51.767-37.149 83.349-49.073-18.091 24.973-35.727 70.931-26.538 152.548-26.727 5.533-67.162 20.78-70.427 47.089a3.152 3.152 0 0 0 3.131 3.539h194.899c-19.283-4.873-29.805-25.31-23.103-43.641l1.753-4.803c-17.123-4.426-36.838-6.952-57.825-6.952-2.669 0-5.316.046-7.941.126-9.161-28.993-20.258-82.692 2.407-129.813 2.303 7.413 7.795 12.635 14.212 12.635 5.956 0 11.111-4.504 13.663-11.079 3.198 18.285 5.878 44.54 3.075 74.321-.265 2.815 3.311 4.228 5.052 2.034 12.669-15.967 39.763-58.362 26.893-116.377 0 0 37.417-13.227 54.794 28.65 1.14 2.747 5.214 2.093 5.454-.857 1.924-23.741-2.296-73.783-74.679-63.21z" data-original="#000000"/><circle cx="414.001" cy="51.656" r="40.174" data-original="#000000"/><path d="M466.133 104.633H361.874c-11.132 0-21.361 4.011-29.324 10.658h4.151c28.816 0 46.841 19.869 56.188 47.066 10.43 30.347 31.696 88.888 39.679 110.801a31.476 31.476 0 0 1 17.547 17.221 31.146 31.146 0 0 1 2.368 11.932v33.382c4.977.473 9.491 2.53 13.062 5.643V149.762a3.68 3.68 0 1 1 7.36 0c0 .213-.004.432-.012.659v142.297c-.026 10.705 8.631 19.403 19.336 19.43h.048c10.682-.001 19.698-8.648 19.724-19.336V150.271c-.126-25.165-20.703-45.638-45.868-45.638zM305.32 43.364c-20.735 0-37.542 16.809-37.542 37.542 0 20.84 16.943 37.542 37.542 37.542 20.602 0 37.542-16.705 37.542-37.542 0-20.734-16.808-37.542-37.542-37.542z" data-original="#000000"/><path d="M450.267 349.999h-12.195V302.31c0-9.316-7.579-16.897-16.895-16.897h-.237c-10.705-29.317-32.064-88.201-42.354-118.142-8.406-24.456-22.496-36.857-41.884-36.857H273.94c-19.387 0-33.479 12.4-41.884 36.857-10.359 30.145-32.42 90.964-42.901 119.638-3.435 9.396 1.396 19.797 10.793 23.233 9.389 3.435 19.797-1.393 23.233-10.792.253-.69 21.491-58.799 36-99.869-.972 7.948 2.104-8.808-25.728 134.891-1.208 6.235 3.596 11.988 9.879 11.988h13.822v131.397c0 12.005 9.732 21.738 21.738 21.738 12.004 0 21.738-9.732 21.738-21.738V346.359h9.385v131.397c0 12.005 9.732 21.738 21.738 21.738a21.666 21.666 0 0 0 15.3-6.302c-3.955-4.178-6.389-9.81-6.389-16.003V358.888c0-12.1 9.272-22.076 21.083-23.196V302.31a31.13 31.13 0 0 1 5.741-18.037c-17.215-88.886-15.087-77.118-16.026-84.796 6.496 18.39 30.616 85.105 32.01 88.933-4.413 3.051-7.314 8.141-7.314 13.9v47.689h-12.194a8.89 8.89 0 0 0-8.89 8.89v118.299c0 4.746 3.723 8.613 8.407 8.865v6.46c0 4.219 3.267 7.668 7.407 7.976.198.014.397.03.598.03s.4-.016.598-.03c4.141-.308 7.407-3.757 7.407-7.976v-6.436h55.244v6.436c0 4.219 3.267 7.668 7.407 7.976.198.014.397.03.598.03s.4-.016.598-.03c4.141-.308 7.407-3.757 7.407-7.976v-6.46c4.684-.253 8.407-4.119 8.407-8.865l.001-118.299c.004-4.91-3.976-8.89-8.886-8.89zm-58.097-43.576a18.168 18.168 0 0 0 12.305 4.825 18.084 18.084 0 0 0 15.784-9.263 3.735 3.735 0 0 1 1.801 3.185v44.827h-29.89v-43.574zm40.31 96.685h-50.732c-3.987 0-7.206-3.243-7.206-7.206 0-3.962 3.217-7.206 7.206-7.206h50.732c3.987 0 7.206 3.243 7.206 7.206 0 3.962-3.217 7.206-7.206 7.206z" data-original="#000000"/></g></svg>