<svg xmlns="http://www.w3.org/2000/svg" width="512" height="512" viewBox="0 0 64 64" style="enable-background:new 0 0 512 512" xml:space="preserve"><path d="M53.4 2H15.7c-1.6 0-2.9 1.3-2.9 2.9V7h-2.2C9 6.9 7.8 8.2 7.8 9.8v49.4c0 1.6 1.3 2.9 2.8 2.9h37.7c1.6 0 2.9-1.3 2.9-2.9v-2.1h2.2c1.6 0 2.8-1.3 2.8-2.9V4.9C56.2 3.3 55 2 53.4 2zM40.3 51.9c.6 0 1 .5 1 1s-.4 1-1 1H18.6c-.5 0-1-.5-1-1s.5-1 1-1zm-18.2-4c0-.5.4-1 1-1h12.8c.5 0 1 .5 1 1 0 .6-.5 1-1 1H23.1c-.6 0-1-.4-1-1zm20.2-10.7c.1.4.1.8-.2 1.1l-2.6 2.6c-.2.2-.4.3-.7.3h-.1c-.3 0-.6-.2-.7-.5l-6.2-9.5-5.8 5.4.7 2.8c.1.3 0 .7-.3.9l-2 2c-.2.2-.5.3-.7.3h-.1c-.3 0-.6-.2-.7-.5l-2.3-4.2-4.2-2.3c-.3-.1-.5-.4-.5-.7s.1-.6.3-.8l2-2c.2-.2.6-.3.9-.3l2.8.7 5.4-5.8-9.5-6.2c-.2-.2-.4-.4-.4-.7s.1-.6.3-.8l2.6-2.6c.3-.3.7-.4 1.1-.2L33 20.8l4.2-4.4c.7-.7 1.7-1.2 2.7-1.1 1 0 2 .4 2.7 1.2 1.3 1.5 1.2 3.8-.3 5.2l-4.3 4zm11.9 17c0 .5-.4.9-.8.9h-2.2V9.8c0-1.6-1.3-2.8-2.9-2.8H14.8V4.9c0-.5.4-.9.9-.9h37.7c.5 0 .8.4.8.9z" fill="#0b2f6a" data-original="#000000"/></svg>